<svg
  xmlns="http://www.w3.org/2000/svg"
  width="137.078"
  height="78.526"
  viewBox="0 0 137.078 78.526"
  style="cursor: pointer"
>
  <g
    id="Group_4682"
    transform="translate(-1166.428 -411.897)"
  >
    <path
      id="Path_2519"
      d="M930.143,278.131a17.65,17.65,0,0,0-6.537,1.246c.027-.412.042-.827.042-1.246A18.9,18.9,0,0,0,893.8,262.725a23.165,23.165,0,0,0-44.333,1.988A19.186,19.186,0,0,0,825.2,285.976c-8.442,2.475-14.426,8.664-14.426,15.909a14.656,14.656,0,0,0,5,10.753c3.652,3.344,7.682,4.183,12.37,5.257,11.078,2.536,22.207,4.936,33.485,6.4q2.2.285,4.4.521c14.811,1.578,29.965,1.331,44.369-2.463a122.92,122.92,0,0,0,24.3-9.6c3.535-1.8,7.13-3.3,9.609-6.49a17.016,17.016,0,0,0,3.539-10.423A17.71,17.71,0,0,0,930.143,278.131Z"
      transform="translate(355.653 164.694)"
      fill="#a6d2fa"
    />
    <path
      id="volume-up"
      d="M18.844,20.82l-7.8,7.8H2.1a2.1,2.1,0,0,0-2.1,2.1V43.338a2.1,2.1,0,0,0,2.1,2.1h8.944l7.8,7.8a2.1,2.1,0,0,0,3.59-1.487V22.307A2.1,2.1,0,0,0,18.844,20.82Zm20.447-4.476a2.121,2.121,0,0,0-2.328,3.546,20.476,20.476,0,0,1,0,34.279,2.12,2.12,0,1,0,2.328,3.545,24.717,24.717,0,0,0,0-41.369Zm2.774,20.684a16.18,16.18,0,0,0-7.516-13.692,2.094,2.094,0,0,0-2.9.654,2.128,2.128,0,0,0,.649,2.923,11.977,11.977,0,0,1,0,20.229,2.128,2.128,0,0,0-.649,2.923,2.1,2.1,0,0,0,2.9.654A16.179,16.179,0,0,0,42.064,37.028ZM29.64,30.291a2.1,2.1,0,1,0-2.03,3.686,3.454,3.454,0,0,1,0,6.1,2.1,2.1,0,0,0,2.03,3.686,7.662,7.662,0,0,0,0-13.473Z"
      transform="translate(1259.904 493.477) rotate(180)"
      fill="#fff"
    />
  </g>
</svg>
