<svg xmlns="http://www.w3.org/2000/svg" width="206.941" height="368.835">
  <g>
    <g>
      <g>
        <g>
          <g>
            <g>
              <path d="M95.572 179.191a1.252 1.252 0 0 1-1.2-.9c-.113-.383-11.429-38.488-26.745-48.173-16.178-10.23-18.5-22.2-18.594-22.7l2.465-.449c.021.113 2.288 11.436 17.468 21.034 11.914 7.535 21.157 30.163 25.355 42.091V99.716h2.5v78.222a1.253 1.253 0 0 1-1.074 1.24 1.219 1.219 0 0 1-.175.013Z" fill="#371a45"/>
            </g>
            <g>
              <path d="m96.804 178.169-2.463-.461c.251-1.338 6.288-32.882 19.916-42.879 12.825-9.409 16.286-29.49 16.32-29.692l2.471.41c-.143.865-3.67 21.3-17.31 31.3-12.83 9.414-18.875 41.004-18.934 41.322Z" fill="#371a45"/>
            </g>
          </g>
          <g>
            <g>
              <g transform="translate(345.425 406.826)">
                <ellipse cx="31.325" cy="41.261" rx="31.325" ry="41.261" transform="rotate(-14.444 -1641.887 1176.778)" fill="#ffc200"/>
              </g>
              <g>
                <path d="M46.019 107.318a19.789 19.789 0 0 1-.92 10.494l16.343-4.209s-5.009-4.5-5.486-8.555" fill="#ffc200"/>
              </g>
            </g>
            <g opacity=".3">
              <path d="m55.956 105.048-4.194.958a14.837 14.837 0 0 0 .886 1.516 3.892 3.892 0 0 1-2.321 5.88l-4.32 1.113a18.925 18.925 0 0 1-.908 3.3l16.343-4.209s-5.009-4.503-5.486-8.558Z" fill="#371a45"/>
            </g>
            <g opacity=".3">
              <path d="M70.962 58.81c-3.1-12.057-9.947-21.812-18.244-27.487a50.788 50.788 0 0 1 10.739 20.776c5.684 22.067-3.289 43.455-20.043 47.77-7.6 1.958-15.493.056-22.382-4.656 8.208 9.374 19.332 14.087 29.888 11.368 16.753-4.316 25.727-25.704 20.042-47.771Z" fill="#371a45"/>
            </g>
            <g opacity=".7">
              <path d="M14.764 77.147C9.079 55.08 18.053 33.692 34.806 29.376a26.186 26.186 0 0 1 18.509 2.35c-7.028-5.016-15.16-7.079-22.98-5.065-16.753 4.315-25.727 25.7-20.043 47.771 3.578 13.889 12.11 24.732 22.119 29.789-8.029-5.724-14.616-15.306-17.647-27.074Z" fill="#fff"/>
            </g>
            <g>
              <g opacity=".5" transform="translate(345.425 406.826)">
                <ellipse cx="8.49" cy="4.522" rx="8.49" ry="4.522" transform="rotate(-86.949 -344.866 -1.77)" fill="#fff"/>
              </g>
              <g opacity=".5" transform="translate(345.425 406.826)">
                <ellipse cx="5.179" cy="2.759" rx="5.179" ry="2.759" transform="rotate(-86.96 -336.247 -4.624)" fill="#fff"/>
              </g>
            </g>
            <g>
              <g>
                <path d="M44.833 108.988c-6.613 0-13.316-2.493-19.393-7.3-7.952-6.292-13.9-15.824-16.732-26.841s-2.24-22.234 1.683-31.584c3.988-9.506 10.926-15.962 19.536-18.18s17.8.083 25.888 6.479c7.952 6.292 13.894 15.825 16.732 26.842s2.24 22.233-1.683 31.584c-3.988 9.505-10.926 15.962-19.536 18.18a26.017 26.017 0 0 1-6.495.82Zm-8.429-81.453a22.65 22.65 0 0 0-5.661.716c-7.6 1.956-13.751 7.737-17.334 16.277-3.648 8.694-4.192 19.171-1.532 29.5s8.2 19.239 15.594 25.09c7.262 5.746 15.445 7.833 23.04 5.877s13.752-7.737 17.335-16.277c3.648-8.7 4.192-19.172 1.531-29.5-2.66-10.329-8.2-19.24-15.593-25.091-5.484-4.339-11.495-6.592-17.38-6.592Z" fill="#371a45"/>
              </g>
              <g>
                <path d="M45.099 119.449a1.636 1.636 0 0 1-1.219-.544 1.638 1.638 0 0 1-.312-1.672 18.362 18.362 0 0 0 .857-9.547l3.188-.742a21.11 21.11 0 0 1-.131 8.565l10.82-2.787c-1.62-1.853-3.64-4.668-3.972-7.483l3.251-.382c.331 2.811 3.69 6.388 4.956 7.529a1.637 1.637 0 0 1 .494 1.607 1.637 1.637 0 0 1-1.18 1.2l-16.344 4.21a1.671 1.671 0 0 1-.408.046Z" fill="#371a45"/>
              </g>
            </g>
          </g>
          <g>
            <path d="M128.462 99.212a19.8 19.8 0 0 1-8.062 6.782l14.545 8.56s-.37-6.723 2.156-9.932" fill="#00c3ff"/>
          </g>
          <g transform="translate(345.425 406.826)">
            <ellipse cx="41.261" cy="31.325" rx="41.261" ry="31.325" transform="rotate(-59.54 -400.196 49.504)" fill="#0fc3ed"/>
          </g>
          <g opacity=".3">
            <path d="M185.861 46.098a50.33 50.33 0 0 1-7.138 23.886c-11.558 19.639-33.015 28.447-47.925 19.672a26.271 26.271 0 0 1-11.553-15.067c-.333 11.791 4.216 22.27 13.207 27.562 14.91 8.775 36.367-.033 47.925-19.672 7.199-12.233 8.858-25.781 5.484-36.381Z" fill="#371a45"/>
          </g>
          <g opacity=".3">
            <path d="m137.101 104.626-4.161-2.6a15.417 15.417 0 0 0-.49 1.962 3.61 3.61 0 0 1-5.379 2.454l-3.665-2.157a18.994 18.994 0 0 1-3.007 1.718l14.546 8.56s-.37-6.732 2.156-9.937Z" fill="#371a45"/>
          </g>
          <g opacity=".7">
            <path d="M127.563 56.138c11.558-19.639 33.014-28.447 47.924-19.672a26.376 26.376 0 0 1 11.68 15.5c-1.237-9-5.6-16.659-12.859-20.933-14.91-8.775-36.367.033-47.925 19.673-7.1 12.069-8.806 25.415-5.61 35.951-1.302-9.481.861-20.444 6.79-30.519Z" fill="#fff"/>
          </g>
          <g opacity=".5" transform="translate(345.425 406.826)">
            <ellipse cx="8.234" cy="4.386" rx="8.234" ry="4.386" transform="rotate(-53.05 -456.468 28.908)" fill="#fff"/>
          </g>
          <g opacity=".5" transform="translate(345.425 406.826)">
            <ellipse cx="5.023" cy="2.676" rx="5.023" ry="2.676" transform="rotate(-53.06 -443.23 28.477)" fill="#fff"/>
          </g>
          <g>
            <path d="M145.265 107.199a26.642 26.642 0 0 1-13.643-3.638c-7.662-4.509-12.547-12.631-13.755-22.868-1.188-10.07 1.336-21.016 7.106-30.821 12-20.385 34.5-29.472 50.165-20.252 7.663 4.509 12.548 12.631 13.755 22.869 1.188 10.07-1.335 21.015-7.106 30.82s-14.113 17.325-23.494 21.175a34.357 34.357 0 0 1-13.028 2.715Zm16.226-77.93c-12.116 0-25.489 8.316-33.7 22.264-5.41 9.192-7.781 19.412-6.676 28.776 1.085 9.2 5.405 16.453 12.164 20.431s15.2 4.233 23.768.716c8.723-3.58 16.507-10.615 21.917-19.808 5.409-9.192 7.78-19.411 6.676-28.776-1.085-9.2-5.4-16.453-12.165-20.431a23.393 23.393 0 0 0-11.984-3.172Z" fill="#371a45"/>
          </g>
          <g>
            <path d="M134.944 116.19a1.628 1.628 0 0 1-.829-.226l-14.546-8.56a1.637 1.637 0 0 1-.8-1.5 1.64 1.64 0 0 1 .96-1.4 18.345 18.345 0 0 0 7.347-6.154l2.782 1.725a21.08 21.08 0 0 1-6.14 5.972l9.629 5.668c.161-2.456.719-5.876 2.471-8.1l2.573 2.024c-1.751 2.224-1.9 7.129-1.808 8.831a1.639 1.639 0 0 1-.784 1.487 1.634 1.634 0 0 1-.855.233Z" fill="#371a45"/>
          </g>
          <g transform="translate(345.425 406.826)">
            <ellipse cx="33.414" cy="44.013" rx="33.414" ry="44.013" transform="translate(-283.267 -405.19)" fill="#ee97c0"/>
          </g>
          <g>
            <path d="M90.314 89.12a21.109 21.109 0 0 1-3.743 10.6h18s-3.978-5.98-3.392-10.3" fill="#ee97c0"/>
          </g>
          <g opacity=".3">
            <path d="m101.182 89.42-4.812-.133a16.785 16.785 0 0 0 .565 1.892 3.87 3.87 0 0 1-3.624 5.206h-4.842a20.272 20.272 0 0 1-1.9 3.331h18s-3.973-5.98-3.387-10.296Z" fill="#371a45"/>
          </g>
          <g opacity=".3">
            <path d="M120.452 16.277a56.164 56.164 0 0 1 2.534 16.825c0 24.308-14.96 44.013-33.415 44.013-9.883 0-18.761-5.656-24.879-14.641 5.017 15.959 16.951 27.189 30.88 27.189 18.455 0 33.415-19.706 33.415-44.013a52.41 52.41 0 0 0-8.535-29.373Z" fill="#371a45"/>
          </g>
          <g opacity=".7">
            <path d="M65.704 49.39c0-24.307 14.96-44.013 33.414-44.013 7.091 0 13.661 2.918 19.07 7.88-5.951-7.213-13.891-11.621-22.616-11.621-18.454 0-33.414 19.706-33.414 44.014 0 14.967 5.677 28.182 14.345 36.133-6.637-8.043-10.799-19.576-10.799-32.393Z" fill="#fff"/>
          </g>
          <g opacity=".5" transform="translate(345.425 406.826)">
            <ellipse cx="9.381" cy="4.997" rx="9.381" ry="4.997" transform="rotate(-80.2 -355.642 -26.794)" fill="#fff"/>
          </g>
          <g opacity=".5" transform="translate(345.425 406.826)">
            <ellipse cx="5.723" cy="3.048" rx="5.723" ry="3.048" transform="rotate(-80.2 -345.5 -29.526)" fill="#fff"/>
          </g>
          <g>
            <path d="M95.573 91.299c-19.328 0-35.052-20.478-35.052-45.65S76.245 0 95.573 0s35.05 20.478 35.05 45.649-15.724 45.65-35.05 45.65Zm0-88.026c-17.523 0-31.778 19.01-31.778 42.376S78.05 88.026 95.573 88.026s31.777-19.01 31.777-42.377S113.095 3.273 95.573 3.273Z" fill="#371a45"/>
          </g>
          <g>
            <path d="M104.574 101.353h-18a1.639 1.639 0 0 1-1.453-.883 1.637 1.637 0 0 1 .115-1.7 19.683 19.683 0 0 0 3.445-9.694l3.272.076a22.4 22.4 0 0 1-2.482 8.924h12.274c-1.193-2.333-2.594-5.843-2.181-8.88l3.243.44c-.412 3.039 2.122 7.65 3.133 9.17a1.636 1.636 0 0 1 .079 1.679 1.636 1.636 0 0 1-1.445.868Z" fill="#371a45"/>
          </g>
        </g>
        <g>
          <g>
            <g>
              <g>
                <path d="M173.525 150.948s-2.5 2.446-2.01 7.923c-.627-.24-17.746-8.8-17.746-8.8a25.4 25.4 0 0 0 1.611 13.492l-.166.074a33.614 33.614 0 0 0-6.282.147c-13.689 1.592-23.094 11.464-29.179 21.317a87.164 87.164 0 0 0-8.273 17.985c-.652 1.986-.984 3.252-1.033 3.461l-.012.031s-10.278 13.037 0 28.846c7.228 11.12 27.488 23.641 49.4 22.86a51.371 51.371 0 0 0 24.329-7.02 51.827 51.827 0 0 0 3.387-2.145c30.233-20.747 18.774-77.008-14.026-98.171Zm-28.048 79.366c-1.573 3.141-6.724 10.671-19.719 10.358-1.229-7.555 2.127-11.7 2.127-11.7-2.434-1.383-6.847-1.254-6.847-1.254a21.23 21.23 0 0 1 10.99-8.126c.012-.006.025-.006.037-.012.062-.018.2-.061.393-.123.08-.025.16-.049.246-.068a23.421 23.421 0 0 1 6.62-.922 2.565 2.565 0 0 1 1.574.535l.006.006a2.148 2.148 0 0 1 .473.474c.4.541.922 1.284 1.488 2.212l.031.05c.362.6.743 1.278 1.124 2.016.037.067.068.135.1.2v.006a29.433 29.433 0 0 1 1.555 3.749 3.385 3.385 0 0 1-.195 2.599Z" fill="#6fa3d2"/>
                <path d="M197.137 306.564a4.989 4.989 0 0 1-8.322 3.227 74.19 74.19 0 0 1-10.419-11.893c-12.847-17.98-18.557-39.61-18.557-39.61v-.006a51.544 51.544 0 0 0 27.716-9.165c11.033 21.609 10.77 45.117 9.582 57.447Z" fill="#6fa3d2"/>
                <path d="M178.396 297.898c-2.643 8.6-.129 10.1-2.631 24.322s-18.311 12.164-18.311 12.164c12.539-7.7 17.322-30.469 11.033-31.975a15.053 15.053 0 0 0-3.682-.461c-4.032.043-5.212 2.225-5.212 2.225h-.006a31.717 31.717 0 0 0-2.471-7.493 3.76 3.76 0 0 0-5.3-1.61 15.739 15.739 0 0 0-6.165 7.388l-.08-.03a3.317 3.317 0 0 0-2.071-1.721 4.134 4.134 0 0 0-5.016 2.932 37.892 37.892 0 0 0-1.641 10.215 22.981 22.981 0 0 0 3.78 13.437c-.541-.553-8.433-8.347-22.282-7.966-14.352.393-21.937-2.213-21.937-2.213a20.239 20.239 0 0 0 4.844-4.286 29.4 29.4 0 0 0 3.977-6.233c.234-.485.455-.971.664-1.463 3.491-8.138 3.639-16.879-.031-17.622-6.423-1.3-8.046 1.665-8.046 1.665a29.4 29.4 0 0 0-2.428-6.5 3.406 3.406 0 0 0-4.856-1.291 11.3 11.3 0 0 0-1.622 1.248.019.019 0 0 1 .006-.012 209.207 209.207 0 0 1 9.115-24.3 152.343 152.343 0 0 1 12.411-22.9c7.228 11.12 27.488 23.641 49.4 22.86v.006a143.023 143.023 0 0 0 11.126 27.519 108.855 108.855 0 0 0 7.432 12.095Z" fill="#6fa3d2"/>
                <path d="M110.438 206.576s-10.278 13.037 0 28.846a152.343 152.343 0 0 0-12.411 22.9c-10.1-27.021-13.664-46.285-14.051-59.875 10.351 7.652 18.539-8.249 19.522-18.766 2.551 5.206 5.317 12.68 7.985 23.406-.713 2.173-1.045 3.489-1.045 3.489Z" fill="#6fa3d2"/>
                <g>
                  <g>
                    <g>
                      <path d="M103.498 179.678c-.983 10.517-9.171 26.418-19.522 18.766-.4-13.978 2.557-21.975 5.2-26.284a5.6 5.6 0 0 1 1.555-1.659l.172-.111s7.844-4.549 11.8 2.661c.813 1.494 1.053 3.875.795 6.627Z" fill="#6fa3d2"/>
                    </g>
                  </g>
                </g>
              </g>
              <g>
                <g>
                  <g>
                    <g>
                      <path d="M181.725 231.926a33.894 33.894 0 0 1 2.441 19.331 51.371 51.371 0 0 1-24.329 7.02c-21.913.781-42.173-11.74-49.4-22.86-10.278-15.809 0-28.846 0-28.846s.332-1.316 1.045-3.492a87.164 87.164 0 0 1 8.273-17.985c5.108-2 12-2.895 16.1 4.088 7.032 11.98-3.565 29.971-3.817 30.4a.069.069 0 0 0 .031-.006c.062-.018.2-.061.393-.123.074-.018.154-.043.246-.068 1.592-.442 5.674-1.4 8.194-.387l.006.006a29.432 29.432 0 0 1 1.961 2.686l.031.05a17.364 17.364 0 0 1 1.124 2.016c.037.067.068.135.1.2.283-.6 16.338-34.723 33.973-24.895a8.611 8.611 0 0 1 1.641 1.224c2.924 2.787 10.964 12.714 1.987 31.641Z" fill="#fff"/>
                    </g>
                  </g>
                </g>
                <g>
                  <g>
                    <g>
                      <path d="M170.965 285.807a40.447 40.447 0 0 1-6.16 16.141c-8.1 12.736-21.409 20.518-25.263 15.164a27.262 27.262 0 0 0-2.7-3.258c-4.567-4.622-9.214-4.622-19.024-4.376a26.369 26.369 0 0 1-12.589-2.883c4.125-8.519 4.524-18.3.633-19.085-6.423-1.3-8.046 1.665-8.046 1.665a29.4 29.4 0 0 0-2.428-6.5 3.406 3.406 0 0 0-4.856-1.291 11.3 11.3 0 0 0-1.622 1.248 210.962 210.962 0 0 1 9.121-24.316 152.343 152.343 0 0 1 12.411-22.9c7.228 11.12 27.488 23.641 49.4 22.86v.006a143.023 143.023 0 0 0 11.123 27.525Z" fill="#fff"/>
                    </g>
                  </g>
                </g>
              </g>
              <g>
                <g>
                  <g>
                    <path d="M140.139 230.419c-4.149 4.708-14.378 10.253-14.378 10.253-1.229-7.555 2.127-11.7 2.127-11.7 2.437 1.379 5.993 3.617 12.251 1.447Z" fill="#371a45"/>
                  </g>
                </g>
              </g>
              <g>
                <g>
                  <g>
                    <g>
                      <path d="M96.399 317.112a16.134 16.134 0 0 1-1.758.941 4.985 4.985 0 0 1-3.99.037c-4.923-2.053-16.878-9.159-11.93-28.527a3.745 3.745 0 0 1 4.45-2.816 3.031 3.031 0 0 1 1.93 1.494l.074.031a15.451 15.451 0 0 1 3.725-5.631l.006-.006a11.3 11.3 0 0 1 1.622-1.248 3.406 3.406 0 0 1 4.856 1.291 29.4 29.4 0 0 1 2.428 6.5s1.623-2.969 8.046-1.665c5.828 1.177 2.029 22.518-9.459 29.599Z" fill="#f4c968"/>
                    </g>
                  </g>
                </g>
                <g>
                  <g>
                    <g>
                      <path d="M157.454 334.384a18.383 18.383 0 0 1-2.784 1.4 4.894 4.894 0 0 1-3.793-.08 24.275 24.275 0 0 1-10.253-8.4.006.006 0 0 0-.006-.006c-3.393-5.034-5.378-12.582-2.139-23.652a4.134 4.134 0 0 1 5.016-2.932 3.317 3.317 0 0 1 2.071 1.721l.08.03a15.739 15.739 0 0 1 6.165-7.388 3.76 3.76 0 0 1 5.3 1.61 31.717 31.717 0 0 1 2.471 7.493h.006s1.863-3.442 8.894-1.764c6.294 1.499 1.511 24.267-11.028 31.968Z" fill="#f4c968"/>
                    </g>
                  </g>
                </g>
              </g>
              <g opacity=".3">
                <g>
                  <g>
                    <path d="M106.584 287.804c-.665 7.171-4.845 17.251-12.065 21.7a16.3 16.3 0 0 1-1.758.94 4.974 4.974 0 0 1-3.989.037 21.221 21.221 0 0 1-11.156-10.426 20.6 20.6 0 0 0 13.035 18.033 4.985 4.985 0 0 0 3.99-.037 16.134 16.134 0 0 0 1.758-.941c10.968-6.758 14.92-26.503 10.185-29.306Z" fill="#371a45"/>
                  </g>
                </g>
              </g>
              <g>
                <g opacity=".3">
                  <g>
                    <g>
                      <path d="M157.588 298.316a2.359 2.359 0 0 1 .158-.227 28.937 28.937 0 0 0-.427-.971c.092.388.181.787.263 1.2Z" fill="#371a45"/>
                    </g>
                  </g>
                </g>
                <g opacity=".3">
                  <g>
                    <g>
                      <path d="M169.235 302.736c-.065 7.7-5.032 20.414-13.786 25.791a18.378 18.378 0 0 1-2.784 1.4 4.889 4.889 0 0 1-3.793-.08 24.285 24.285 0 0 1-10.253-8.4.006.006 0 0 0-.006-.006 21.6 21.6 0 0 1-1.311-2.238 21.775 21.775 0 0 0 3.316 8.095.006.006 0 0 1 .006.006 24.275 24.275 0 0 0 10.253 8.4 4.894 4.894 0 0 0 3.793.08 18.383 18.383 0 0 0 2.784-1.4c11.996-7.368 16.885-28.51 11.781-31.648Z" fill="#371a45"/>
                    </g>
                  </g>
                </g>
              </g>
              <g opacity=".7">
                <g>
                  <g>
                    <path d="M79.905 293.669a3.745 3.745 0 0 1 4.45-2.815h.022a3.5 3.5 0 0 0 3.837-1.356l1.87-2.755.006-.007a11.435 11.435 0 0 1 1.623-1.247 3.4 3.4 0 0 1 4.855 1.29 29.337 29.337 0 0 1 2.428 6.5s1.623-2.969 8.046-1.666a2.51 2.51 0 0 1 1.494.983c-.148-2.8-1.024-4.755-2.678-5.089-6.423-1.3-8.046 1.665-8.046 1.665a29.4 29.4 0 0 0-2.428-6.5 3.406 3.406 0 0 0-4.856-1.291 11.3 11.3 0 0 0-1.622 1.248l-.006.006a15.451 15.451 0 0 0-3.725 5.631l-.074-.031a3.031 3.031 0 0 0-1.93-1.494 3.745 3.745 0 0 0-4.45 2.816c-1.894 7.412-1.308 13.024.409 17.248a30.564 30.564 0 0 1 .775-13.136Z" fill="#fff"/>
                  </g>
                </g>
              </g>
              <g>
                <g>
                  <g>
                    <path d="M128.159 236.526a18.284 18.284 0 0 1 .2-7.287l-.47-.268s-3.356 4.149-2.127 11.7c0 0 10.229-5.545 14.378-10.253a16.274 16.274 0 0 1-3.472.812 97.683 97.683 0 0 1-8.509 5.296Z" fill="#ff457a"/>
                  </g>
                </g>
              </g>
              <g>
                <g>
                  <g>
                    <g>
                      <path d="M145.48 230.314c-1.567 3.123-6.669 10.591-19.516 10.364-.067 0-.135-.006-.2-.006 0 0 10.229-5.545 14.378-10.253-6.258 2.17-9.817-.068-12.251-1.451s-6.847-1.254-6.847-1.254l.006-.006a21.757 21.757 0 0 1 18.28-9.245 2.551 2.551 0 0 1 2.053 1.015 29.882 29.882 0 0 1 3.848 7c.16.4.308.811.449 1.235a3.385 3.385 0 0 1-.2 2.601Z" fill="#f4c968"/>
                    </g>
                  </g>
                </g>
              </g>
            </g>
            <g>
              <g opacity=".3">
                <g>
                  <g>
                    <path d="M199.425 183.466c5.36 21.27 1.4 43.632-15.327 55.114a52.253 52.253 0 0 1-3.387 2.145 51.371 51.371 0 0 1-24.329 7.02c-21.913.78-42.172-11.741-49.4-22.86a32.95 32.95 0 0 1-.986-1.625 26.958 26.958 0 0 0 4.447 12.162c7.228 11.12 27.488 23.641 49.4 22.86a51.371 51.371 0 0 0 24.329-7.02 51.827 51.827 0 0 0 3.387-2.145c19.53-13.405 21.652-41.639 11.866-65.651Z" fill="#371a45"/>
                  </g>
                </g>
              </g>
              <g opacity=".3">
                <g>
                  <g>
                    <path d="M145.48 230.314c-1.567 3.123-6.669 10.591-19.516 10.364-.067 0-.135-.006-.2-.006 0 0 10.229-5.545 14.378-10.253-6.258 2.17-9.817-.068-12.251-1.451s-6.847-1.254-6.847-1.254l.006-.006c.2-.129 4.143-2.661 12.4.006 6.436 2.078 8.839-1.985 11.783-1.235.16.4.308.811.449 1.235a3.385 3.385 0 0 1-.202 2.6Z" fill="#371a45"/>
                  </g>
                </g>
              </g>
              <g opacity=".3">
                <g>
                  <g>
                    <path d="M172.525 177.279c-15.4 1.957-21.368-7.508-23.587-13.5a33.614 33.614 0 0 1 6.282-.147l.166-.074a25.4 25.4 0 0 1-1.611-13.492c2.071 10.586 13.15 19.115 19.633 23.291a2.139 2.139 0 0 1-.883 3.922Z" fill="#371a45"/>
                  </g>
                </g>
              </g>
              <g opacity=".3">
                <g>
                  <g>
                    <path d="M187.555 249.117a51.544 51.544 0 0 1-27.716 9.165v.006s.562 2.128 1.729 5.6a51.134 51.134 0 0 0 12.58-2.043 11.726 11.726 0 0 1 14.746 8.69c3.359 15.309 2.442 29.906.933 39.958a4.987 4.987 0 0 0 7.31-3.932c1.188-12.327 1.451-35.835-9.582-57.444Z" fill="#371a45"/>
                  </g>
                </g>
              </g>
              <g opacity=".3">
                <g>
                  <g>
                    <path d="M102.699 173.051a8.352 8.352 0 0 0-2.259-2.7 13.479 13.479 0 0 1 .555 6.1c-.9 9.664-7.892 23.859-17.05 20.163 0 .6.013 1.206.031 1.83 10.351 7.652 18.539-8.249 19.522-18.766.258-2.752.018-5.133-.799-6.627Z" fill="#371a45"/>
                  </g>
                </g>
              </g>
              <g opacity=".3">
                <g>
                  <g>
                    <path d="M104.684 184.715a108.3 108.3 0 0 1 6.723 18.6l.076-.236c-2.668-10.726-5.434-18.2-7.985-23.406-.838 8.956-6.9 21.808-15.076 20.7a7.842 7.842 0 0 1-.959-.2 4.294 4.294 0 0 1-.331-.1 9.68 9.68 0 0 1-1.068-.406c-.1-.043-.19-.087-.286-.133a11.229 11.229 0 0 1-.761-.414c-.063-.038-.125-.078-.188-.117a12.88 12.88 0 0 1-.853-.574c.013.461.031.931.051 1.4l.022.438a94.056 94.056 0 0 0 .153 2.53q.018.256.039.516c.027.355.057.715.089 1.078l.041.466a106.332 106.332 0 0 0 .155 1.576q.264 2.506.661 5.223l.015.1q.126.854.266 1.729l.028.173q.139.868.294 1.759l.02.116a179.983 179.983 0 0 0 2.675 12.563 278.693 278.693 0 0 0 9.541 30.2 156.028 156.028 0 0 1 11.537-21.56c.292-.445.577-.9.874-1.337a31.943 31.943 0 0 1-.757-1.229l-.127-.216q-.347-.6-.657-1.2c-.024-.048-.047-.1-.072-.142a28.07 28.07 0 0 1-1.1-2.423c-.169-.421-.328-.84-.471-1.256.061.486.143.98.238 1.478q-.382.69-.757 1.38a5.773 5.773 0 0 1-10.556-1c-2.706-8.292-4.723-15.732-6.186-22.4a2.567 2.567 0 0 1 1.995-3.073c6.951-1.32 11.938-12.539 12.697-20.603Z" fill="#371a45"/>
                  </g>
                </g>
              </g>
              <g opacity=".3">
                <g>
                  <g>
                    <path d="M109.44 236.934s8.045 19.707 38.768 27.785a12.391 12.391 0 0 1 8.212 7.107c3.163 7.368 8.939 19.743 13.964 24.651a4.018 4.018 0 0 1 1.237 3.077 2.114 2.114 0 0 1-2.317 2.254s5.511 4.509 2.505 13.526c0 0-8.015 17.533-14.528 19.036 0 0 14.528-1 17.033-9.518 0 0 2.5-13.025 1.5-20.038l1.5-6.513s-16.031-25.548-17.534-40.076c.006.001-25.042 4.508-50.34-21.291Z" fill="#371a45"/>
                  </g>
                </g>
              </g>
              <g opacity=".3">
                <g>
                  <g>
                    <path d="M136.993 311.076s-8.016-4.008-19.538-1.5c0 0-7.264.25-11.271-4.258l-7.515 10.019-1 3.006 14.026 1h9.519l4.508 1 11.522 4.509s-.5 1 .5 0-.751-13.776-.751-13.776Z" fill="#371a45"/>
                  </g>
                </g>
              </g>
            </g>
            <g>
              <g>
                <g opacity=".7">
                  <g>
                    <g>
                      <path d="M162.155 307.664h.007s1.857-3.428 8.858-1.772c-.37-1.883-1.2-3.164-2.533-3.483-4.056-.968-6.385-.232-7.636.564a32.917 32.917 0 0 1 1.304 4.691Z" fill="#fff"/>
                    </g>
                  </g>
                </g>
                <g opacity=".7">
                  <g>
                    <g>
                      <path d="M141.048 307.126a4.135 4.135 0 0 1 5.015-2.932 3.448 3.448 0 0 1 .594.232 2.046 2.046 0 0 0 2.742-.768 10.535 10.535 0 0 1 4.981-5.1 3.763 3.763 0 0 1 3.485-.177c-.253-.626-.506-1.2-.749-1.7a3.76 3.76 0 0 0-5.3-1.61 15.739 15.739 0 0 0-6.165 7.388l-.08-.03a3.317 3.317 0 0 0-2.071-1.721 4.134 4.134 0 0 0-5.016 2.932c-3.239 11.07-1.254 18.618 2.139 23.652a.006.006 0 0 1 .006.006 21.792 21.792 0 0 0 1.886 2.408c-2.968-5.015-4.484-12.268-1.467-22.58Z" fill="#fff"/>
                    </g>
                  </g>
                </g>
              </g>
              <g opacity=".7">
                <g>
                  <g>
                    <path d="M158.382 167.851a10.037 10.037 0 0 1-3.165-4.216 33.614 33.614 0 0 0-6.282.147c-13.689 1.592-23.094 11.464-29.179 21.317a87.164 87.164 0 0 0-8.273 17.985c-.652 1.986-.984 3.252-1.033 3.461.34-.765 7.562-16.839 19.491-28.15a1.2 1.2 0 0 1 1.342-.2c1.686.8 4.95-.021 8.022-2.168 2.774-1.939 4.586-4.4 4.785-6.224a1.147 1.147 0 0 1 .783-.945 26.293 26.293 0 0 1 13.509-1.007Z" fill="#fff"/>
                  </g>
                </g>
              </g>
              <g opacity=".7">
                <g>
                  <g>
                    <path d="M91.91 175.116a5.6 5.6 0 0 1 1.555-1.659l.172-.111s4.969-2.876 8.991-.415c-3.975-7.031-11.725-2.541-11.725-2.541l-.172.111a5.6 5.6 0 0 0-1.555 1.659c-2.643 4.309-5.6 12.306-5.2 26.284a11 11 0 0 0 2.705 1.494c-.156-13.076 2.679-20.666 5.229-24.822Z" fill="#fff"/>
                  </g>
                </g>
              </g>
            </g>
          </g>
          <g opacity=".6">
            <g>
              <g>
                <path d="M154.157 155.579s17.119 8.563 17.746 8.8c-.486-5.477 2.01-7.924 2.01-7.924 19.2 12.388 31.078 36.8 31.573 59.075 1.549-23.64-10.661-51.167-31.457-64.585 0 0-2.5 2.446-2.01 7.923-.627-.24-17.746-8.8-17.746-8.8a24.833 24.833 0 0 0-.2 6.061c.052-.352.084-.55.084-.55Z" fill="#fff"/>
              </g>
            </g>
          </g>
          <g>
            <g>
              <g>
                <g>
                  <path d="m155.096 165.476-1.991-.046c-.331-.005-.663-.024-.995-.019l-.99.064c-.659.054-1.324.06-1.978.148l-1.957.3a31.749 31.749 0 0 0-7.519 2.419 37.082 37.082 0 0 0-6.743 4.23 44.745 44.745 0 0 0-5.8 5.59 54.81 54.81 0 0 0-4.892 6.5 75.068 75.068 0 0 0-4.076 7.106 86.183 86.183 0 0 0-3.344 7.512c-.506 1.276-.963 2.569-1.407 3.865s-.85 2.628-1.18 3.879a1.956 1.956 0 0 1-.328.677l-.013.016a14.294 14.294 0 0 0-.862 1.312c-.284.473-.55.963-.8 1.463a24.323 24.323 0 0 0-1.285 3.094 22.988 22.988 0 0 0-1.2 6.552 21.12 21.12 0 0 0 .135 3.326c.047.554.16 1.1.247 1.649.12.543.224 1.091.378 1.628a26.518 26.518 0 0 0 2.589 6.2 36.634 36.634 0 0 0 9.126 10.168 58.95 58.95 0 0 0 5.724 4.013 68.494 68.494 0 0 0 6.163 3.346 60.57 60.57 0 0 0 27.114 5.975 50.167 50.167 0 0 0 13.7-2.223 50.9 50.9 0 0 0 12.545-5.945 32.686 32.686 0 0 0 2.809-2l.686-.516c.232-.168.429-.378.645-.565l1.27-1.152c.21-.195.43-.378.631-.581l.58-.632 1.164-1.261a15.738 15.738 0 0 0 1.08-1.332l1.05-1.359a40.688 40.688 0 0 0 5.871-12.431 53.75 53.75 0 0 0 2-13.771 67.666 67.666 0 0 0-1.227-13.972 77.3 77.3 0 0 0-10.213-26.111 64.006 64.006 0 0 0-19.278-20.095l2.289-.231c.048-.038 0 .031-.008.049l-.065.116-.145.26c-.093.187-.2.374-.286.579a12.53 12.53 0 0 0-.492 1.274 14.943 14.943 0 0 0-.59 2.867c-.151 1.013-.094 2.067-.148 3.17a16.25 16.25 0 0 1-.093 1.715 10.447 10.447 0 0 1-.254 1.867 8.691 8.691 0 0 1-1.308-1.426 11.005 11.005 0 0 1-.9-1.648c-.11-.292-.219-.587-.31-.887a6.192 6.192 0 0 1-.236-.914c-.064-.311-.129-.623-.184-.938s-.073-.639-.1-.962a11.474 11.474 0 0 1 .348-3.96 9.207 9.207 0 0 1 .777-1.937 6.741 6.741 0 0 1 .575-.919 5.2 5.2 0 0 1 .355-.445l.2-.224c.087-.089.13-.132.281-.272a1.812 1.812 0 0 1 2.269-.245l.021.013a67.672 67.672 0 0 1 20.4 21.241 80.979 80.979 0 0 1 10.706 27.37 71.306 71.306 0 0 1 1.298 14.736 57.465 57.465 0 0 1-2.14 14.719 44.37 44.37 0 0 1-6.411 13.548l-1.155 1.5a18.25 18.25 0 0 1-1.192 1.469l-1.284 1.393-.643.695c-.221.224-.463.428-.694.643l-1.4 1.273c-.239.206-.458.436-.713.623l-.755.571a36.39 36.39 0 0 1-3.065 2.185 54.592 54.592 0 0 1-13.465 6.378 53.873 53.873 0 0 1-14.706 2.388 64.25 64.25 0 0 1-28.783-6.328 72.156 72.156 0 0 1-6.521-3.54 62.78 62.78 0 0 1-6.091-4.271 51.211 51.211 0 0 1-5.5-5.093c-.416-.475-.843-.938-1.25-1.422l-1.182-1.5-1.1-1.577c-.331-.543-.669-1.08-.992-1.628a30.209 30.209 0 0 1-2.952-7.085c-.176-.62-.3-1.257-.438-1.887-.1-.639-.23-1.274-.288-1.92a24.646 24.646 0 0 1-.156-3.879 26.675 26.675 0 0 1 1.394-7.6 27.815 27.815 0 0 1 1.482-3.567q.431-.867.931-1.7a19.153 19.153 0 0 1 1.131-1.698l-.34.692c.385-1.457.8-2.79 1.262-4.157s.94-2.7 1.467-4.03q1.559-3.991 3.487-7.832a78.683 78.683 0 0 1 4.28-7.461 58.659 58.659 0 0 1 5.2-6.912 48.353 48.353 0 0 1 6.283-6.051 40.782 40.782 0 0 1 7.46-4.677 35.458 35.458 0 0 1 8.429-2.712l2.2-.335c.733-.1 1.473-.11 2.209-.167l1.106-.069c.368-.006.736.012 1.1.018l2.208.055a1.842 1.842 0 0 1 1.8 1.887 1.842 1.842 0 0 1-1.888 1.8Z" fill="#371a45"/>
                </g>
              </g>
            </g>
            <g>
              <g>
                <g>
                  <path d="m170.857 160.592-.4-.18-.3-.142-.567-.275-1.118-.548-2.224-1.1-4.438-2.206-8.866-4.423 2.635-1.3-.043.931-.019 1c-.008.666.027 1.334.055 2s.1 1.328.185 1.983.179 1.309.307 1.952a21.1 21.1 0 0 0 2.785 7.175 18.762 18.762 0 0 0 5.438 5.465c.548.376 1.1.762 1.684 1.11.564.389 1.172.709 1.769 1.085.3.19.607.36.918.532s.621.36.933.554c.632.362 1.279.717 1.925 1.16a16.186 16.186 0 0 1-2.284.168 17.038 17.038 0 0 1-2.273-.206 15.172 15.172 0 0 1-2.239-.531c-.367-.12-.739-.232-1.1-.375l-1.069-.471a19.452 19.452 0 0 1-7.215-6.1 21.258 21.258 0 0 1-3.584-8.769c-.131-.774-.232-1.551-.294-2.328s-.072-1.556-.066-2.332a22.279 22.279 0 0 1 .151-2.322c.04-.387.093-.772.163-1.159s.135-.748.251-1.21a1.835 1.835 0 0 1 2.136-1.471 1.822 1.822 0 0 1 .479.158l.021.011 8.86 4.421 4.432 2.2 2.216 1.1 2.075 1.011Z" fill="#371a45"/>
                </g>
              </g>
            </g>
            <g>
              <g>
                <g>
                  <path d="M192.162 312.935a6.817 6.817 0 0 1-4.585-1.78c-20.391-18.483-29.158-51.022-29.521-52.4a1.844 1.844 0 0 1 1.312-2.254 1.844 1.844 0 0 1 2.253 1.312c.087.327 8.863 32.869 28.433 50.607a3.092 3.092 0 0 0 3.253.608 3.094 3.094 0 0 0 2-2.64c1.149-11.956 1.458-35.186-9.39-56.432a1.843 1.843 0 0 1 .8-2.48 1.845 1.845 0 0 1 2.481.8c11.273 22.08 10.964 46.106 9.776 58.462a6.8 6.8 0 0 1-4.336 5.727 6.863 6.863 0 0 1-2.476.47Z" fill="#371a45"/>
                </g>
              </g>
            </g>
            <g>
              <g>
                <g>
                  <path d="M83.596 294.159a11.458 11.458 0 0 1-.342-4.358 13.682 13.682 0 0 1 1.138-4.285 9.868 9.868 0 0 1 .507-1.02 9.79 9.79 0 0 1 .592-.989c.221-.32.415-.656.664-.961s.5-.61.754-.913a13.4 13.4 0 0 1 1.783-1.617 8.2 8.2 0 0 1 1.129-.758 5.435 5.435 0 0 1 1.582-.54 5.57 5.57 0 0 1 3.283.43 5.509 5.509 0 0 1 2.429 2.226c.062.112.145.257.186.344l.116.251.227.5c.15.337.288.676.422 1.016.261.684.488 1.376.695 2.072a24.033 24.033 0 0 1 .9 4.225 9.39 9.39 0 0 1-.565 4.338.512.512 0 0 1-.667.284.518.518 0 0 1-.237-.194 17.957 17.957 0 0 1-1.8-3.719c-.223-.612-.412-1.226-.621-1.832s-.44-1.2-.693-1.786-.517-1.16-.806-1.72a23.51 23.51 0 0 0-.432-.836l-.227-.409-.115-.2a1 1 0 0 0-.071-.1 1.3 1.3 0 0 0-1.267-.525 1.612 1.612 0 0 0-.346.1 5.192 5.192 0 0 0-.565.372 11.212 11.212 0 0 0-1.314 1.025 15.037 15.037 0 0 0-2.226 2.719c-1.367 2.031-2.511 4.345-3.912 6.875v.006a.109.109 0 0 1-.148.043.112.112 0 0 1-.053-.064Z" fill="#371a45"/>
                </g>
              </g>
            </g>
            <g>
              <g>
                <g>
                  <path d="M92.625 320.332a6.986 6.986 0 0 1-2.683-.539c-4.419-1.843-18.419-9.505-13.01-30.688a5.581 5.581 0 0 1 6.7-4.144 4.864 4.864 0 0 1 3.071 2.362l-3.2 1.832a1.181 1.181 0 0 0-.781-.62 1.915 1.915 0 0 0-2.212 1.483c-4.55 17.817 6.076 24.377 10.856 26.371a3.149 3.149 0 0 0 2.513-.011c9.175-4.192 13.477-18.19 12.763-24.416-.2-1.709-.716-2.561-1.144-2.648-4.806-.973-6.1.805-6.109.823a.474.474 0 0 0 .044-.074l-3.235-1.772c.233-.426 2.5-4.12 10.032-2.591 1.3.263 3.563 1.373 4.076 5.841.951 8.286-4.378 23.387-14.9 28.191a6.682 6.682 0 0 1-2.781.6Z" fill="#371a45"/>
                </g>
              </g>
            </g>
            <g>
              <g>
                <g>
                  <path d="M143.716 308.899a12.825 12.825 0 0 1-.058-4.759 15.4 15.4 0 0 1 1.495-4.591 17.561 17.561 0 0 1 2.875-4.115 14.288 14.288 0 0 1 1.984-1.685 7.727 7.727 0 0 1 1.229-.775 5.991 5.991 0 0 1 1.679-.51 5.8 5.8 0 0 1 3.432.565 5.759 5.759 0 0 1 2.472 2.425c.062.12.145.272.186.369l.118.278.229.559a28.482 28.482 0 0 1 1.117 3.414 18.946 18.946 0 0 1 .684 4.685 14.044 14.044 0 0 1-.665 4.706.232.232 0 0 1-.294.145.234.234 0 0 1-.134-.12c-.7-1.452-1.206-2.853-1.72-4.227l-1.465-4.047a32.96 32.96 0 0 0-.816-1.951 24.158 24.158 0 0 0-.448-.948l-.236-.466-.121-.23c-.04-.073-.054-.082-.079-.128a1.74 1.74 0 0 0-1.672-.783 1.668 1.668 0 0 0-.471.121c-.1.032-.429.257-.682.407a12.809 12.809 0 0 0-1.532 1.111 15.806 15.806 0 0 0-2.608 2.985 86.971 86.971 0 0 0-4.346 7.582.081.081 0 0 1-.11.033.082.082 0 0 1-.043-.05Z" fill="#371a45"/>
                </g>
              </g>
            </g>
            <g>
              <g>
                <g>
                  <path d="M152.872 337.963a6.815 6.815 0 0 1-2.739-.572c-4.874-2.146-20.246-10.956-13.426-34.268a5.965 5.965 0 0 1 7.306-4.186 5.178 5.178 0 0 1 3.182 2.628l-3.263 1.719a1.493 1.493 0 0 0-.953-.807 2.305 2.305 0 0 0-2.732 1.681c-5.813 19.872 6.016 27.5 11.372 29.857a3.1 3.1 0 0 0 2.373.051c10.42-4.114 15.879-19.575 15.379-26.623-.128-1.809-.644-3.081-1.314-3.241-5.38-1.286-6.816.817-6.874.907a.4.4 0 0 0 .033-.059l-3.245-1.752c.1-.191 2.629-4.669 10.942-2.683 1.395.333 3.787 1.629 4.137 6.567.656 9.251-5.914 25.659-17.7 30.314a6.742 6.742 0 0 1-2.478.467Z" fill="#371a45"/>
                </g>
              </g>
            </g>
            <g>
              <g>
                <g>
                  <path d="M88.901 284.483a1.885 1.885 0 0 1-.516-.073 1.845 1.845 0 0 1-1.26-2.284c.079-.272 8.076-27.446 21.778-47.735a1.844 1.844 0 0 1 2.56-.5 1.845 1.845 0 0 1 .5 2.561c-13.372 19.8-21.215 46.434-21.293 46.7a1.845 1.845 0 0 1-1.769 1.331Z" fill="#371a45"/>
                </g>
              </g>
            </g>
            <g>
              <g>
                <g>
                  <path d="M111.48 204.926a1.845 1.845 0 0 1-1.788-1.4 118.971 118.971 0 0 0-7.852-23.041 1.842 1.842 0 0 1 .844-2.467 1.845 1.845 0 0 1 2.467.844 122.532 122.532 0 0 1 8.12 23.773 1.845 1.845 0 0 1-1.344 2.235 1.861 1.861 0 0 1-.447.056Z" fill="#371a45"/>
                </g>
              </g>
            </g>
            <g>
              <g>
                <g>
                  <path d="M98.025 260.165a1.844 1.844 0 0 1-1.728-1.2c-10.1-27-13.73-46.417-14.153-60.278a1.866 1.866 0 0 1-.011-.381c-.375-14.2 2.64-22.5 5.471-27.113a7.411 7.411 0 0 1 2.067-2.2l.215-.142c.03-.02.061-.039.092-.057.179-.1 4.432-2.529 8.733-1.326a9.136 9.136 0 0 1 5.6 4.7c3.047 5.562-.577 20.859-7.873 27.228-3.274 2.858-6.9 3.613-10.476 2.254.952 15.26 5.582 34.079 13.789 56.025a1.845 1.845 0 0 1-1.082 2.373 1.849 1.849 0 0 1-.644.117Zm-12.232-62.707c2.846 1.777 5.542 1.5 8.22-.84 6.2-5.412 9.192-18.8 7.065-22.678a5.531 5.531 0 0 0-3.341-2.917c-2.623-.743-5.512.745-5.877.942l-.114.075a3.7 3.7 0 0 0-1 1.084c-2.392 3.902-5.184 11.287-4.95 24.334Z" fill="#371a45"/>
                </g>
              </g>
            </g>
            <g>
              <g>
                <g>
                  <path d="M140.651 329.167a1.836 1.836 0 0 1-1.339-.575c-.071-.074-7.621-7.775-20.922-7.424-14.52.4-22.27-2.2-22.592-2.309a1.844 1.844 0 0 1-1.146-2.343 1.846 1.846 0 0 1 2.34-1.146c.11.037 7.547 2.489 21.3 2.111 15-.409 23.353 8.207 23.7 8.574a1.845 1.845 0 0 1-.07 2.607 1.838 1.838 0 0 1-1.271.505Z" fill="#371a45"/>
                </g>
              </g>
            </g>
            <g>
              <g>
                <g>
                  <path d="M159.76 336.368a19.981 19.981 0 0 1-2.547-.157 1.844 1.844 0 0 1-1.59-2.067 1.838 1.838 0 0 1 2.064-1.591c.588.073 14.1 1.627 16.264-10.653a71.984 71.984 0 0 0 1.234-13.8 31.76 31.76 0 0 1 1.448-10.743 1.843 1.843 0 0 1 2.3-1.222 1.845 1.845 0 0 1 1.222 2.3 28.36 28.36 0 0 0-1.286 9.677 75.283 75.283 0 0 1-1.29 14.424c-1.938 11.037-11.408 13.832-17.819 13.832Z" fill="#371a45"/>
                </g>
              </g>
            </g>
            <g>
              <g>
                <g>
                  <path d="M126.552 241.912c-.27 0-.541 0-.817-.009h-.01a1.229 1.229 0 0 1-.8-.334 1.223 1.223 0 0 1-.071-.073 1.228 1.228 0 0 1-.3-.644 17.8 17.8 0 0 1 1.535-11.308 17.884 17.884 0 0 0-5.008-.6 1.256 1.256 0 0 1-1.1-.611 1.229 1.229 0 0 1 .011-1.256 22.818 22.818 0 0 1 19.322-9.843h.016a3.806 3.806 0 0 1 3.042 1.511 31.35 31.35 0 0 1 4.477 8.578 4.6 4.6 0 0 1-.263 3.541c-1.691 3.362-6.986 11.048-20.034 11.048Zm13.586-12.725a1.228 1.228 0 0 1 1.02.544 1.229 1.229 0 0 1-.1 1.5c-2.46 2.792-6.869 5.807-10.223 7.893 8.581-1.392 12.264-6.805 13.547-9.361a2.146 2.146 0 0 0 .129-1.658 28.844 28.844 0 0 0-4.116-7.888 1.339 1.339 0 0 0-1.072-.521h-.015a20.755 20.755 0 0 0-15.857 6.885 13.3 13.3 0 0 1 5.019 1.306l.042.024.245.139c2.307 1.317 5.467 3.12 10.975 1.207a1.233 1.233 0 0 1 .406-.07Zm-11.844 1.422a14.581 14.581 0 0 0-1.527 8.084 82.581 82.581 0 0 0 9.266-6.161 13.5 13.5 0 0 1-7.739-1.923Z" fill="#371a45"/>
                </g>
              </g>
            </g>
            <g>
              <g>
                <g>
                  <g transform="translate(345.425 406.826)">
                    <ellipse cx="8.448" cy="5.768" rx="8.448" ry="5.768" transform="rotate(-67.98 -229.382 54.325)" fill="#371a45"/>
                  </g>
                </g>
              </g>
              <g>
                <g>
                  <g transform="translate(345.425 406.826)">
                    <ellipse cx="2.883" cy="1.968" rx="2.883" ry="1.968" transform="rotate(-62.581 -246.092 62.996)" fill="#fff"/>
                  </g>
                </g>
              </g>
            </g>
            <g>
              <g>
                <g transform="translate(345.425 406.826)">
                  <ellipse cx="8.126" cy="5.548" rx="8.126" ry="5.548" transform="rotate(-65.465 -265.111 80.699)" fill="#371a45"/>
                </g>
              </g>
            </g>
            <g>
              <g>
                <g transform="translate(345.425 406.826)">
                  <ellipse cx="2.874" cy="1.963" rx="2.874" ry="1.963" transform="rotate(-70.859 -249.83 56.561)" fill="#fff"/>
                </g>
              </g>
            </g>
          </g>
        </g>
      </g>
    </g>
    <g opacity=".3" transform="translate(345.425 406.826)">
      <ellipse cx="44.532" cy="5.924" rx="44.532" ry="5.924" transform="translate(-263.064 -49.839)" fill="#371a45"/>
    </g>
  </g>
</svg>
