<svg xmlns="http://www.w3.org/2000/svg" width="355.983" height="308.257" viewBox="0 0 355.983 308.257">
  <path d="M189.058 24.53V4.23a4.077 4.077 0 0 0-4.07-3.79h-3.52v23.43c0 5.335 3.19 9.35 9.625 9.57h1.87v-6.765h-1.375a2.518 2.518 0 0 1-2.53-2.145Zm17.49-17a3.7 3.7 0 0 0 3.795-3.8 3.688 3.688 0 0 0-3.795-3.74 3.756 3.756 0 0 0-3.74 3.8 3.709 3.709 0 0 0 3.74 3.745Zm8.91 7.04a9.908 9.908 0 0 0-8.858-4.78c-7.315 0-11.22 5.5-11.22 12.21a13.109 13.109 0 0 0 .88 4.675h-4.785v6.765H217.6V22.99a15.384 15.384 0 0 0-2.142-8.415Zm-4.675 12.1h-.825c-3.41 0-7.865 0-7.865-5.39 0-3.245 1.375-5.555 4.07-5.555 4.235 0 4.675 3.9 4.675 7.865 0 .66-.055 1.375-.055 2.09Zm30.085 6.77v-6.765h-4.73v-7.59c0-3.465-1.045-4.84-4.51-4.84h-2.915v17.16c0 3.025-.275 4.565-3.025 4.565-.11 0-1.43-.165-2.805-.33v2.97c0 2.42 2.035 3.905 5.005 3.905a7.771 7.771 0 0 0 7.975-7.81V33.44Zm-6.71 0h17.435c3.41.275 6.82 1.705 8.415 4.95a31.156 31.156 0 0 0 .88-7.26c0-9.3-3.905-21.285-14.63-21.285-6.16 0-9.185 3.08-9.185 6.93v3.74c3.025-2.86 5.28-3.85 7.975-3.85 5.225 0 7.59 6.49 8.525 10.01h-19.415Zm64.46 0v-6.765h-4.73v-7.59c0-3.465-1.045-4.84-4.51-4.84h-2.916v17.16c0 3.025-.275 4.565-3.025 4.565-.11 0-1.43-.165-2.805-.33v2.97c0 2.42 2.035 3.905 5.005 3.905a7.771 7.771 0 0 0 7.975-7.81V33.44Zm12.814-14.355c0-3.245-1.65-4.84-4.84-4.84h-2.64v9.35c0 1.925-.715 2.97-2.64 3.08h-2.97v6.765h3.465a10.715 10.715 0 0 0 6.545-2.2c1.926 1.595 4.348 2.2 7.535 2.2h.935v-6.765c-3.905-.055-5.225-1.375-5.39-4.51Zm-7.92-7.645a3.828 3.828 0 0 0 3.74-3.8 3.915 3.915 0 0 0-3.74-3.85 3.925 3.925 0 0 0-3.795 3.85 3.839 3.839 0 0 0 3.795 3.8Zm8.305 0a3.886 3.886 0 0 0 3.85-3.8 3.973 3.973 0 0 0-3.85-3.85 3.915 3.915 0 0 0-3.74 3.85 3.828 3.828 0 0 0 3.74 3.8Zm4.183 22h17.432c3.41.275 6.82 1.705 8.415 4.95a31.156 31.156 0 0 0 .88-7.26c0-9.3-3.9-21.285-14.63-21.285-6.16 0-9.185 3.08-9.185 6.93v3.74c3.025-2.86 5.28-3.85 7.975-3.85 5.225 0 7.59 6.49 8.525 10.01H316Zm12.042-25.905a3.839 3.839 0 0 0 3.8-3.8 3.709 3.709 0 0 0-3.8-3.685 3.553 3.553 0 0 0-3.685 3.69 3.676 3.676 0 0 0 3.685 3.795Zm27.94 25.905V4.18c0-2.145-2.2-3.74-4.07-3.74H348.5v28.215c0 3.3 2.092 4.785 4.347 4.785Z" fill="#6fa3d2"/>
  <g fill="#6fa3d2" fill-rule="evenodd">
    <path d="m162.693 124.858-.086.005q-1.94.029-3.951 0a1.173 1.173 0 1 1 .036-2.346q1.974.034 3.877 0a1.174 1.174 0 0 1 .124 2.343Z"/>
    <path d="m171.029 124.435-.4.036a1.175 1.175 0 1 1-.207-2.34l.4-.036c2.52-.222 5-.586 7.387-.93a1.174 1.174 0 1 1 .384 2.317 99.393 99.393 0 0 1-7.564.953Zm15.24-2.588a1.174 1.174 0 0 1-.4-2.3 65.652 65.652 0 0 0 7.434-2.387 1.173 1.173 0 1 1 .839 2.191 72.207 72.207 0 0 1-7.677 2.467Zm14.775-5.72a1.174 1.174 0 0 1-.659-2.2 52.924 52.924 0 0 0 6.56-4.15 1.174 1.174 0 0 1 1.4 1.885 55.719 55.719 0 0 1-6.849 4.332 1.166 1.166 0 0 1-.453.128Zm12.68-9.455a1.172 1.172 0 0 1-.944-1.988 44.146 44.146 0 0 0 4.881-5.984 1.175 1.175 0 0 1 1.946 1.316 46.618 46.618 0 0 1-5.147 6.306 1.163 1.163 0 0 1-.736.345Zm8.831-13.1a1.163 1.163 0 0 1-.565-.092 1.176 1.176 0 0 1-.618-1.543 39.181 39.181 0 0 0 1.541-4.238 25.8 25.8 0 0 1-6.229-2.593 1.175 1.175 0 0 1 1.186-2.029 23.926 23.926 0 0 0 5.634 2.349c.063-.275.121-.55.177-.825a1.175 1.175 0 0 1 2.3.466 36.08 36.08 0 0 1-.288 1.3 1.155 1.155 0 0 1 .114.811 1.175 1.175 0 0 1-.517.738 40.476 40.476 0 0 1-1.763 4.953 1.175 1.175 0 0 1-.972.701Zm12.334-4.91c-.774.068-1.538.112-2.3.135a1.177 1.177 0 0 1-1.208-1.14 1.137 1.137 0 0 1 1.138-1.209 38.06 38.06 0 0 0 7.638-1 1.174 1.174 0 1 1 .525 2.289 43.262 43.262 0 0 1-5.793.923Zm13.2-3.315a1.172 1.172 0 0 1-.549-2.252 53.184 53.184 0 0 0 6.95-3.472 1.176 1.176 0 1 1 1.2 2.022 54.869 54.869 0 0 1-7.254 3.619 1.2 1.2 0 0 1-.354.083Zm13.657-8.022a1.176 1.176 0 0 1-.827-2.1 65.36 65.36 0 0 0 5.837-5.172 1.174 1.174 0 1 1 1.658 1.663 67.992 67.992 0 0 1-6.049 5.359 1.167 1.167 0 0 1-.622.249Zm-50.348 2.785a1.18 1.18 0 0 1-1.02-.431 15.751 15.751 0 0 1-3.641-7.654 1.164 1.164 0 0 1 1-1.324 1.191 1.191 0 0 1 1.325 1 13.55 13.55 0 0 0 3.142 6.5 1.171 1.171 0 0 1-.808 1.906Zm14.142-2.006a1.185 1.185 0 0 1-1.255-1.107 24.958 24.958 0 0 0-.061-.877 17.9 17.9 0 0 0-1.635-6.347 1.174 1.174 0 1 1 2.105-1.039 20.219 20.219 0 0 1 1.869 7.184c.026.319.051.635.067.954a1.184 1.184 0 0 1-1.093 1.231Zm-14.927-12.183a1.174 1.174 0 0 1-.829-2.093 8.29 8.29 0 0 1 4.4-1.726 9.13 9.13 0 0 1 4.291.675 1.173 1.173 0 1 1-.885 2.172 6.792 6.792 0 0 0-3.2-.507 5.953 5.953 0 0 0-3.154 1.233 1.175 1.175 0 0 1-.625.245Z"/>
    <path d="M273.07 66.029a1.174 1.174 0 0 1-1.022-1.9 74.16 74.16 0 0 0 2.322-3.074 1.175 1.175 0 1 1 1.91 1.368 68.896 68.896 0 0 1-2.4 3.171 1.177 1.177 0 0 1-.81.435Z"/>
  </g>
  <g>
    <g opacity=".2" transform="translate(-91.83 -23.015)">
      <ellipse cx="77.34" cy="11.102" rx="77.34" ry="11.102" transform="translate(98.489 309.069)" fill="#0f110c" opacity=".5"/>
    </g>
    <g>
      <g>
        <path d="M104.941 283.436s-1.306 14.536 15 15.219c10.441.437 11.25-4.779 14.662-4.737 3.5.042 12.257.735 12.263-5.452.006-5.764-8.444-10.366-14.575-11.648-3.393-.71-22.321-1.812-27.35 6.618Z" fill="#f4c968"/>
      </g>
      <g>
        <path d="M142.047 165.901c20.341 28.679 48.23 24.442 55.8 35.054 4.308 6.042-21.9 33.5-65.51 8.059Z" fill="#6fa3d2"/>
      </g>
      <g opacity=".3">
        <path d="m132.338 209.014 9.71-43.112a68.6 68.6 0 0 0 5.255 6.542c1.732 10.612 4.3 24 6.865 28.859 7.893 14.986 32.568 6.318 42.693-1.529a10.105 10.105 0 0 1 .987 1.182c4.306 6.042-21.902 33.5-65.51 8.058Z" fill="#371a45"/>
      </g>
      <g>
        <path d="M167.224 221.327c-11.246 0-23.483-3.7-35.741-10.849a1.7 1.7 0 0 1-.8-1.836l9.71-43.113a1.694 1.694 0 0 1 3.035-.608c12.328 17.381 27.2 22.258 39.154 26.175 7.519 2.464 13.457 4.411 16.642 8.876 1.7 2.386.555 6.285-2.994 10.174-5.226 5.728-14 9.791-23.464 10.871a48.966 48.966 0 0 1-5.542.31Zm-32.96-13.158c13.3 7.535 26.459 10.812 38.119 9.482 8.676-.99 16.656-4.649 21.346-9.788 2.666-2.922 3.209-5.262 2.737-5.924-2.538-3.559-8.01-5.353-14.938-7.624-11.105-3.64-26.081-8.549-38.636-24.458Z" fill="#371a45"/>
      </g>
      <g>
        <path d="M63.115 287.205c-.906 4.354-4.056 10.659-14.668 11.108-10.443.436-11.251-4.781-14.665-4.739-3.5.043-12.254.733-12.263-5.454 0-3.464 3.049-6.508 6.818-8.664a27.545 27.545 0 0 1 7.757-2.981c3.4-.711 22.325-1.812 27.352 6.619a15.33 15.33 0 0 1-.331 4.111Z" fill="#f4c968"/>
      </g>
      <g opacity=".3">
        <path d="M63.115 287.205c-19.568 4.053-30.141-3.031-34.778-7.749a27.545 27.545 0 0 1 7.757-2.981c3.4-.711 22.325-1.812 27.352 6.619a15.33 15.33 0 0 1-.331 4.111Z" fill="#371a45"/>
      </g>
      <g opacity=".3">
        <path d="M105.27 287.205c19.568 4.053 30.141-3.031 34.778-7.749a27.545 27.545 0 0 0-7.757-2.981c-3.4-.711-22.325-1.812-27.352 6.619a15.33 15.33 0 0 0 .331 4.111Z" fill="#371a45"/>
      </g>
      <g>
        <path d="M47.248 300.03c-6.4 0-9.287-2.156-11.241-3.613-1.046-.781-1.554-1.149-2.2-1.15-.252 0-.53.01-.831.017-3.165.074-8.469.2-11.314-2.58a6.159 6.159 0 0 1-1.834-4.58c-.007-6.882 9.307-11.924 15.923-13.308 2.882-.6 23.324-2.361 29.152 7.409a1.686 1.686 0 0 1 .233.716 16.95 16.95 0 0 1-3.793 11.716c-2.9 3.313-7.218 5.112-12.824 5.346-.44.019-.863.027-1.271.027Zm-13.423-8.15a6.888 6.888 0 0 1 4.208 1.822c1.895 1.413 4.259 3.176 10.342 2.917 4.629-.194 8.127-1.6 10.4-4.17a13.53 13.53 0 0 0 3-8.831c-4.72-6.978-21.922-6.2-25.331-5.486-5.41 1.132-13.234 5.339-13.229 9.989a2.823 2.823 0 0 0 .812 2.159c1.825 1.781 6.408 1.675 8.87 1.618.314-.008.605-.014.867-.018Z" fill="#371a45"/>
      </g>
      <g>
        <path d="M121.138 300.374c-.408 0-.83-.008-1.267-.027-5.606-.235-9.921-2.033-12.824-5.346a16.941 16.941 0 0 1-3.793-11.717 1.7 1.7 0 0 1 .232-.716c5.829-9.769 26.271-8.011 29.153-7.407 6.615 1.383 15.929 6.425 15.922 13.307a6.155 6.155 0 0 1-1.834 4.58c-2.844 2.777-8.148 2.655-11.314 2.58-.3-.007-.579-.014-.83-.017h-.013c-.617 0-1.148.376-2.185 1.15-1.958 1.456-4.851 3.613-11.247 3.613Zm-14.525-16.413a13.541 13.541 0 0 0 3 8.832c2.27 2.573 5.768 3.976 10.4 4.169 6.092.255 8.448-1.5 10.342-2.917 1.214-.906 2.463-1.865 4.27-1.821.261 0 .552.01.867.017 2.464.058 7.044.164 8.869-1.617a2.816 2.816 0 0 0 .812-2.16c0-4.649-7.818-8.857-13.227-9.987-3.41-.713-20.612-1.492-25.333 5.484Z" fill="#371a45"/>
      </g>
      <g>
        <path d="M144.648 269.344a27 27 0 0 1-11.06 8.965c-21.262 8.884-36.608.949-47.881.949-8.033 0-26.407 5.577-43.206 2.456a37.2 37.2 0 0 1-18.78-8.957c-9.286-8.507-15.609-22.392-18.073-36.811a74.212 74.212 0 0 1-.292-24.184 91.889 91.889 0 0 1 4.522-15.892c3.976-10.963 9.172-22.367 11.065-31.442 4.1-19.64-7.855-82.49 58.971-91.882-9.824-11.59.28-27.3 10.8-8.6 4.057-5.039 10.057-7.029 12.641-6.043a4.913 4.913 0 0 1 3.332 3.816c.987 5.085-4.256 12.682-4.256 12.682a27.219 27.219 0 0 1 4.387 1.127c4.523 1.482 12.124 4.814 20.767 12.051 19.178 16.054 21.228 43.223 17.811 78.222-2.046 20.978 8.418 40.326 9.837 63.972.667 11.191-2.213 28.456-10.585 39.571Z" fill="#6fa3d2"/>
      </g>
      <g opacity=".4">
        <path d="M146.736 143.268c-.275-22.312-5.141-39.975-19.153-51.7-11.92-9.986-21.855-12.531-24.476-13.056a.136.136 0 0 0-.034-.008l-.614-.161c-3.256-.868-11.23-2.99-23.718-1.63h-.038c-56.447 8.6-55.465 56.028-56.735 81.444a2.969 2.969 0 0 0-.233-.1c1.762-23.951-2.448-75.575 55.782-85.145 4.281-.618 6.328.6 11.008.716 9.019.234 15.295-4.1 14.226-10.659-.471-2.9-5.632-2.157-11.416 4.5-.228.493-1.357.431-1.175-1.085a7.153 7.153 0 0 1 .929-2.9c4.044-4.705 9.761-6.547 12.264-5.59a4.91 4.91 0 0 1 3.332 3.816v.008c.021.106.038.212.055.322s.026.195.034.292a1.1 1.1 0 0 1 .009.114c.008.094.012.183.017.276.008.114.008.233.008.351 0 .174 0 .347-.017.525s-.025.356-.046.538c-.013.119-.03.241-.047.364 0 .064-.017.123-.026.187-.029.177-.063.36-.1.542a29.2 29.2 0 0 1-4 8.956c-.089.135-.14.207-.14.207a24.078 24.078 0 0 1 3.206.758v.005c.136.038.271.08.415.122.246.077.5.157.766.246 4.523 1.478 12.124 4.806 20.767 12.047 14.835 12.424 19.421 31.493 19.15 55.698Z" fill="#fff"/>
      </g>
      <g opacity=".5">
        <path d="M105.635 75.154a24.078 24.078 0 0 0-3.206-.758s.051-.072.14-.207a30.679 30.679 0 0 1 3.066.965Z" fill="#fff"/>
      </g>
      <g opacity=".5">
        <path d="M105.635 75.154c.136.043.271.081.415.127-.144-.042-.279-.084-.415-.122Z" fill="#fff"/>
      </g>
      <g opacity=".5">
        <path d="M106.816 75.523Z" fill="#fff"/>
      </g>
      <g opacity=".5">
        <path d="M103.07 78.504a10.809 10.809 0 0 0-.644-.114.45.45 0 0 0 .03-.047c.232.059.435.114.614.161Z" fill="#fff"/>
      </g>
      <g opacity=".5">
        <path d="M76.082 64.525a16.6 16.6 0 0 0 3.832 8.021q-1.214.171-2.4.368a13.789 13.789 0 0 1-1.432-8.389Z" fill="#fff"/>
      </g>
      <g opacity=".5">
        <path d="M145.394 169.785q-.173 1.766-.229 3.523a58.106 58.106 0 0 1 .229-7.516c.775-7.923 1.266-15.448 1.342-22.528a244.988 244.988 0 0 1-1.342 26.521Z" fill="#fff"/>
      </g>
      <g>
        <path d="M151.544 245.955a102.646 102.646 0 0 1-6.895 23.391 26.976 26.976 0 0 1-11.062 8.962c-21.26 8.883-36.608.948-47.88.948-8.033 0-26.4 5.579-43.205 2.458-47.567-24.432-10.051-56.04-3.58-105.2 1.75-14-1.88-43.265 4.544-53.837 11.75-29.924 55.248-22.238 41.518 14.59 4.875-2.93 12.317-2.393 17.234.695-4.955-42.23 35.484-39.529 36.688-4.525.536 17.644-3.723 36.884-2.095 47.987 4.828 25.044 18.932 44.787 14.733 64.531Z" fill="#fff"/>
      </g>
      <g opacity=".35">
        <path d="M101.252 75.539h-.038l1.5-.076a8.44 8.44 0 0 1-1.462.076Z" fill="#fff"/>
      </g>
      <g>
        <path d="M53.54 284.373c-10.832 0-22.108-2.25-30.965-10.366C8.123 260.764.002 233.885 3.684 211.49c1.332-8.1 4.948-17.33 8.446-26.255 3.017-7.7 5.866-14.968 7.156-21.152.714-3.422.929-8.357 1.177-14.072.567-13.07 1.344-30.97 8.958-46.425 8.663-17.587 24.63-28.441 47.482-32.291-3.088-4.933-3.222-10.112-1.8-13.414a6.505 6.505 0 0 1 5.6-4.277c2.026-.108 5.942.789 10.28 7.513 4.339-4.266 9.927-5.962 12.968-4.8a6.654 6.654 0 0 1 4.2 4.291c1.293 4.162-1.289 9.648-3.012 12.648 4.163 1.1 13.1 4.284 23.533 13.02 21.277 17.811 21.422 48.825 18.41 79.686-1.121 11.479 1.618 22.533 4.517 34.236 2.3 9.307 4.69 18.932 5.321 29.47.988 16.5-5.4 42.986-22.679 50.206-15.631 6.53-28.089 4.253-38.1 2.423a60.85 60.85 0 0 0-10.435-1.345 77.855 77.855 0 0 0-10.187 1.219 141.325 141.325 0 0 1-21.979 2.202ZM81.039 56.985h-.153a3.315 3.315 0 0 0-2.669 2.237c-1.2 2.777-.775 7.787 2.989 12.225a1.694 1.694 0 0 1-1.057 2.773c-53.331 7.494-55.191 50.338-56.3 75.936-.254 5.862-.474 10.926-1.244 14.617-1.35 6.462-4.249 13.862-7.319 21.7-3.433 8.761-6.983 17.819-8.257 25.569-3.513 21.367 4.155 46.933 17.836 59.469 14.148 12.964 35.8 9.563 50.13 7.312a79.234 79.234 0 0 1 10.713-1.26 64.1 64.1 0 0 1 11.044 1.4c9.572 1.75 21.483 3.926 36.185-2.216 15.753-6.581 21.532-31.374 20.6-46.878-.612-10.227-2.958-19.7-5.228-28.858-2.971-11.993-5.777-23.321-4.6-35.378 2.922-29.938 2.86-59.958-17.213-76.761-13.4-11.221-24.186-12.778-24.294-12.793a1.694 1.694 0 0 1-1.168-2.641c1.448-2.1 4.969-8.332 3.88-11.828a3.259 3.259 0 0 0-2.166-2.128c-1.628-.623-6.889.764-10.717 5.524a1.694 1.694 0 0 1-2.8-.231c-2.751-4.899-5.801-7.79-8.192-7.79Z" fill="#371a45"/>
      </g>
      <g>
        <path d="M102.22 142.413a29.01 29.01 0 0 1-2.315 7.369c-1.337 2.688-3.348 5.082-6.268 5.082-3.311 0-5.549-2.39-7.037-5.252a30.948 30.948 0 0 1-2.777-9.539Z" fill="#371a45"/>
      </g>
      <g>
        <path d="M99.905 149.785c-1.337 2.688-3.348 5.082-6.268 5.082-3.311 0-5.549-2.39-7.037-5.252a12 12 0 0 1 6.531-1.822 11.852 11.852 0 0 1 6.774 1.992Z" fill="#e53c91"/>
      </g>
      <g>
        <path d="M93.636 156.557c-9.648 0-11.425-15.64-11.5-16.306a1.694 1.694 0 0 1 3.368-.36c.015.133 1.616 13.279 8.127 13.279 4.254 0 6.43-7.953 6.91-11.017a1.694 1.694 0 0 1 3.347.52c-.082.567-2.238 13.884-10.252 13.884Z" fill="#371a45"/>
      </g>
      <g>
        <path d="M83.651 140.128a.205.205 0 0 1-.089-.275c.556-1.127 2.827-7.061 9.172-7.581 7.011-.574 12.551 3.633 13.648 7.771.206.778-4.7 2.658-13.475 2.464a21.773 21.773 0 0 1-9.256-2.379Z" fill="#f4c968"/>
      </g>
      <g opacity=".3">
        <path d="M92.906 142.506a21.657 21.657 0 0 1-9.253-2.38.2.2 0 0 1-.093-.271c.2-.4 3.3-1.949 9.3-1.063 8.675 1.28 13.115-.551 13.518 1.253.177.783-4.698 2.655-13.472 2.461Z" fill="#371a45"/>
      </g>
      <g>
        <path d="M94.113 144.215q-.616 0-1.244-.014a23.1 23.1 0 0 1-9.672-2.414l-.254-.12a1.9 1.9 0 0 1-.986-1.081 1.923 1.923 0 0 1 .085-1.481c.035-.07.077-.162.127-.27 2.354-5.1 5.861-7.877 10.426-8.251 7.879-.646 14.141 4.182 15.424 9.025a1.971 1.971 0 0 1-.385 1.731c-1.345 1.708-6.926 2.875-13.521 2.875Zm-8.363-4.986a19.463 19.463 0 0 0 7.194 1.585c6.028.134 9.86-.732 11.421-1.33-1.418-2.866-5.7-6-11.493-5.524-3.826.314-5.883 2.925-7.122 5.269Zm-1.391-.64.028.013-.028-.013Zm0 0Z" fill="#371a45"/>
      </g>
      <g opacity=".35">
        <path d="M139.944 236.352q1.56-.152 3.046-.316-1.485.171-3.046.316Z" fill="#371a45"/>
      </g>
      <g opacity=".35">
        <path d="M150.533 235.008q-.833.139-1.716.274c.589-.097 1.161-.181 1.716-.274Z" fill="#371a45"/>
      </g>
      <g>
        <path d="M58.393 134.967a12.4 12.4 0 0 1 1.1-2.679 13.367 13.367 0 0 1 1.671-2.377 10.818 10.818 0 0 1 5.16-3.358 9.761 9.761 0 0 1 6.261.373 12.309 12.309 0 0 1 4.7 3.283 1.345 1.345 0 0 1-1.558 2.121l-.028-.013a23.611 23.611 0 0 0-4.33-1.592c-.346-.093-.686-.119-1.022-.185a9.478 9.478 0 0 0-.987-.052 6.974 6.974 0 0 0-1.883.235 9.57 9.57 0 0 0-3.535 1.966 18.08 18.08 0 0 0-1.63 1.575c-.267.282-.517.581-.775.88l-.727.885-.105.127a1.329 1.329 0 0 1-2.311-1.189Z" fill="#371a45"/>
      </g>
      <g>
        <path d="m127.019 137.513-.687-.916c-.245-.31-.481-.621-.736-.915a18.287 18.287 0 0 0-1.557-1.646 9.555 9.555 0 0 0-3.444-2.122 6.973 6.973 0 0 0-1.87-.319 9.355 9.355 0 0 0-.989.008c-.338.05-.679.061-1.029.138a23.606 23.606 0 0 0-4.4 1.4l-.028.011a1.345 1.345 0 0 1-1.462-2.188 12.3 12.3 0 0 1 4.843-3.069 9.757 9.757 0 0 1 6.272-.092 10.819 10.819 0 0 1 5 3.586 13.344 13.344 0 0 1 1.562 2.45 12.292 12.292 0 0 1 .977 2.725 1.329 1.329 0 0 1-2.361 1.085Z" fill="#371a45"/>
      </g>
      <g opacity=".3">
        <path d="M144.648 269.344a27 27 0 0 1-11.06 8.965c-21.262 8.884-36.608.949-47.881.949-8.033 0-26.407 5.577-43.206 2.456a37.2 37.2 0 0 1-18.78-8.957c-9.286-8.507-15.609-22.392-18.073-36.811a78.941 78.941 0 0 1-1.135-14.567q.031-1.9.165-3.764c.136-1.986.364-3.943.678-5.853.813-4.95 20.656-13.614 22.663-19.14 5.533 24.319 20.267 22.312 23.049 35.744a19.4 19.4 0 0 1-3.608 13.83c-5.225 6.657-19.293 8.652-30.459 3.557-.9 5.268 2.075 10.807 7.74 15.995a32.365 32.365 0 0 0 18.311 8.4c20.419 2.752 33.826-1.652 41.859-1.652 11.272 0 24.209 4.951 45.852-1.24a30.242 30.242 0 0 0 13.216-8.812c5.7-6.746 10.32-20.081 11.133-30.367.047.559.085 1.122.119 1.69.669 11.197-2.211 28.462-10.583 39.577Z" fill="#371a45"/>
      </g>
      <g opacity=".3">
        <path d="M4.678 217.615q-.134 1.867-.165 3.764c.021-1.266.072-2.524.165-3.764Z" fill="#6fa3d2"/>
      </g>
      <g>
        <path d="M49.061 235.654c-7.428 10.612-38.306 7.529-45.636-12.805-2.7-7.491-2.825-18.175 3.637-30.6 3.629-6.975 9.333-14.495 17.824-22.308l3.133 22.676c.225 18.9 20.191 25.509 22.884 35.029.686 2.406.267 4.993-1.842 8.008Z" fill="#6fa3d2"/>
      </g>
      <g opacity=".4">
        <path d="M27.598 193.458s-4.536 8.676 3.587 17.882c0 0 9.206 9.206 11.372 10.831 0 0 9.206 6.5 7.582 13l1.068-5.77-1.707-4.7-5.77-5.2-9.122-10.044-3.614-5.3s-4.547-7.733-3.396-10.699Z" fill="#fff"/>
      </g>
      <g opacity=".3">
        <path d="M49.061 235.654c-7.428 10.612-38.306 7.529-45.636-12.805-2.7-7.491-2.825-18.175 3.637-30.6-1.173 7.436-1.359 19.343 6.3 29.2 10.332 13.309 32.149 13.932 37.544 6.2.683 2.403.264 4.99-1.845 8.005Z" fill="#371a45"/>
      </g>
      <g>
        <path d="M25.27 170.362a35.957 35.957 0 0 1-3.1 4.235q-.421.489-.812 1c-.269.334-.535.672-.81 1-.544.662-1.112 1.3-1.668 1.948s-1.086 1.314-1.619 1.978l-1.619 1.974c-.572.634-1.03 1.349-1.557 2.015l-1.538 2.032c-.492.691-.93 1.416-1.4 2.123l-.691 1.067a11.77 11.77 0 0 0-.659 1.084c-.791 1.491-1.675 2.942-2.321 4.5a44.035 44.035 0 0 0-3.241 9.5 33.563 33.563 0 0 0-.766 9.886 27.61 27.61 0 0 0 2.337 9.478 24 24 0 0 0 5.808 7.741 30.021 30.021 0 0 0 8.329 5.218 37.635 37.635 0 0 0 4.705 1.607 36.637 36.637 0 0 0 4.888.934 30.571 30.571 0 0 0 9.823-.327 18.87 18.87 0 0 0 4.5-1.553 10.5 10.5 0 0 0 3.506-2.745c.11-.143.229-.27.336-.426l.307-.492a7.4 7.4 0 0 0 .575-.992l.242-.5a2.6 2.6 0 0 0 .214-.506l.165-.51a2.411 2.411 0 0 0 .141-.51 6.284 6.284 0 0 0-.469-4.032 15.045 15.045 0 0 0-2.669-3.817c-1.107-1.216-2.342-2.383-3.607-3.547-2.545-2.323-5.2-4.662-7.644-7.3a46.089 46.089 0 0 1-3.441-4.207 36.3 36.3 0 0 1-2.869-4.728 17.879 17.879 0 0 1-1.625-5.331 12.316 12.316 0 0 1 .43-5.522.593.593 0 0 1 1.1-.071l.027.058a12.593 12.593 0 0 1 .481 1.248c.137.411.243.819.4 1.216.284.8.487 1.588.771 2.355a44.922 44.922 0 0 0 1.7 4.534 25.252 25.252 0 0 0 2.356 4.286 41.6 41.6 0 0 0 3.159 3.864c2.285 2.471 4.854 4.738 7.445 7.1 1.293 1.191 2.591 2.413 3.826 3.769a18.234 18.234 0 0 1 3.254 4.713l.3.7c.086.242.153.5.228.746s.157.5.2.756l.113.788a9.429 9.429 0 0 1-.16 3.15 4.356 4.356 0 0 1-.2.746l-.239.73a4.368 4.368 0 0 1-.29.694l-.322.672a10.406 10.406 0 0 1-.73 1.262l-.386.612c-.139.2-.31.4-.466.6a13.879 13.879 0 0 1-4.619 3.656 22.272 22.272 0 0 1-5.331 1.849 33.9 33.9 0 0 1-10.937.377 39.814 39.814 0 0 1-5.35-1.023 40.856 40.856 0 0 1-5.16-1.762 35.447 35.447 0 0 1-4.859-2.519c-.4-.229-.777-.484-1.151-.75s-.759-.515-1.127-.79c-.719-.574-1.461-1.117-2.13-1.755a27.384 27.384 0 0 1-6.62-8.836 30.93 30.93 0 0 1-2.643-10.663 36.931 36.931 0 0 1 .832-10.842 47.472 47.472 0 0 1 3.477-10.2c.692-1.661 1.626-3.187 2.455-4.772.2-.4.436-.78.674-1.156l.707-1.135c.474-.755.935-1.521 1.42-2.267l1.535-2.184.772-1.089.39-.543.419-.517 1.7-2.047c.587-.666 1.128-1.373 1.774-1.982a50.7 50.7 0 0 1 3.852-3.653 35.674 35.674 0 0 1 4.4-3.022.58.58 0 0 1 .78.806Z" fill="#371a45"/>
      </g>
      <g opacity=".2">
        <path d="M46.228 97.415c3.561-6.719 16.2-12.2 22.557-11 8.559 1.618-25.329 16.23-22.557 11Z" fill="#fff"/>
      </g>
    </g>
  </g>
</svg>
