<svg
  xmlns="http://www.w3.org/2000/svg"
  width="341"
  height="326.083"
  viewBox="0 0 341 326.083"
>
  <g
    id="Group_3402"
    transform="translate(-96.704 -0.458)"
  >
    <g
      id="Group_3401"
    >
      <g
        id="Group_3315"
        opacity="0.3"
      >
        <g
          id="Group_3314"
        >
          <ellipse
            id="Ellipse_87"
            cx="83.465"
            cy="14.006"
            rx="83.465"
            ry="14.006"
            transform="translate(116.943 298.53)"
            fill="#0f110c"
            opacity="0.5"
          />
        </g>
      </g>
      <g
        id="Group_3400"
      >
        <g
          id="Group_3317"
        >
          <g
            id="Group_3316"
          >
            <path
              id="Path_1670"
              d="M301.672,167.264c-.043-.171-.092-.334-.149-.5a7.471,7.471,0,0,0-2.608-3.7c-5.708-4.408-18.576,1.392-39.937,7.358l-.013,0c-.755-34.866-7.13-60.419-27.239-72.129a.007.007,0,0,0-.009,0l0,0-.005,0c-8.14-4.733-18.532-7.2-31.708-7.1-45.75-.36-57.908,30.247-58.966,79.233-21.365-5.967-34.242-11.771-39.95-7.363-8.606,6.647.707,26.361,30.585,47.6l.808-3.451.013.013c-10.384,42.29-1.77,70.592,22.69,85.783a76.221,76.221,0,0,0,17.071,7.714,91.46,91.46,0,0,0,55.5,0c37.623-12,52.634-43.243,39.305-95.315l.039-.022,1.238,5.278c22.059-15.679,32.908-30.528,33.615-39.9v-.009A10.817,10.817,0,0,0,301.672,167.264Zm-42.7,3.491v-.04l.008.044Z"
              fill="#6fa3d2"
              stroke="#371a45"
              stroke-miterlimit="10"
              stroke-width="0"
            />
          </g>
        </g>
        <g
          id="Group_3319"
          opacity="0.55"
        >
          <g
            id="Group_3318"
          >
            <path
              id="Path_1671"
              d="M298.915,163.067c-5.449-4.211-20.276,1.7-39.95,7.363.048,1.418.722,2.426.752,3.88,20.68-5.774,35.615-11.779,41.587-8.139A7.456,7.456,0,0,0,298.915,163.067Zm-28.859,45.824-.04.022c.04.154.079.308.114.457a.119.119,0,0,0,.031-.022ZM134.65,214.147c.549-2.446,1.041-4.9,1.436-7.372a2.268,2.268,0,0,0-2.349-2.617l-.141.009s-2.054,7.1-2.173,7.67c-7.012,32.175-2.542,55.862,11.912,71.484C131.1,267.536,127.792,244.6,134.65,214.147Z"
              fill="#fff"
            />
          </g>
        </g>
        <g
          id="Group_3321"
          opacity="0.55"
        >
          <g
            id="Group_3320"
          >
            <path
              id="Path_1672"
              d="M244.116,109.291c-9.018-9.58-22.2-14.744-41.153-14.6-45.04-.354-57.522,29.305-58.908,76.967a23.25,23.25,0,0,1-.6,4.609l-3.193,13.656.711-16.859c-19.56-5.642-31.489-10.7-36.92-6.5-5.348,4.132-3.776,13.308,5.347,24.763-11.7-13.071-14.194-23.718-8.311-28.262,5.708-4.408,18.585,1.4,39.95,7.363C142.092,121.444,154.25,90.837,200,91.2,221.14,91.03,235.107,97.476,244.116,109.291Z"
              fill="#fff"
            />
          </g>
        </g>
        <g
          id="Group_3326"
          opacity="0.55"
        >
          <g
            id="Group_3323"
          >
            <g
              id="Group_3322"
            >
              <path
                id="Path_1673"
                d="M258.97,170.715v.04l.008,0Z"
                fill="#fff"
              />
            </g>
          </g>
          <g
            id="Group_3325"
          >
            <g
              id="Group_3324"
            >
              <path
                id="Path_1674"
                d="M258.97,170.715v.04l.008,0Z"
                fill="none"
                stroke="#371a45"
                stroke-miterlimit="10"
                stroke-width="0"
              />
            </g>
          </g>
        </g>
        <g
          id="Group_3328"
        >
          <g
            id="Group_3327"
          >
            <path
              id="Path_1675"
              d="M189.462,304.431c-.1,8.192-9.909,9.589-14.866,5.347a22.8,22.8,0,0,1-2.38,2.753,11.66,11.66,0,0,1-5.3,3.17c-4.763,1.159-9.417-2.147-13.057-9q-.33.112-.646.211c-13.523,4.219-19.055-4.681,2.591-13.51l15.661,5.133Z"
              fill="#f4c968"
            />
          </g>
        </g>
        <g
          id="Group_3330"
          opacity="0.6"
        >
          <g
            id="Group_3329"
          >
            <path
              id="Path_1676"
              d="M189.462,304.431c0,.465.062.043,0,.465l-31.617-9.466c-11.253,4.592-15.161,9.2-14.419,11.973-4.522-1.87-2.454-7.951,12.382-14.006Z"
              fill="#fff"
            />
          </g>
        </g>
        <g
          id="Group_3332"
          opacity="0.3"
        >
          <g
            id="Group_3331"
          >
            <path
              id="Path_1677"
              d="M189.462,304.431c-.1,8.192-9.909,9.589-14.866,5.347a22.8,22.8,0,0,1-2.38,2.753,11.66,11.66,0,0,1-5.3,3.17,11.727,11.727,0,0,0,2.947-16.184l1.6-.987Z"
              fill="#371a45"
            />
          </g>
        </g>
        <g
          id="Group_3334"
          opacity="0.6"
        >
          <g
            id="Group_3333"
          >
            <path
              id="Path_1678"
              d="M172.888,310.134c-.018.1-.237,1.067-.672,2.4-6.476,6.292-13.369,3.565-18.357-5.835q-.33.112-.646.211l-.254-3.851h0a2.536,2.536,0,0,1,3,1.431c1.243,2.832,4.038,7.679,8.813,8.347C171.386,313.756,172.813,310.323,172.888,310.134Z"
              fill="#fff"
            />
          </g>
        </g>
        <g
          id="Group_3336"
        >
          <g
            id="Group_3335"
          >
            <path
              id="Path_1679"
              d="M246.79,306.7c-5.6,10.564-13.615,12.7-20.732,3.082-4.957,4.242-14.766,2.845-14.871-5.347l9.949-3.263,21.088-6.91,2.621-.861C266.833,302.367,260.783,311.407,246.79,306.7Z"
              fill="#f4c968"
            />
          </g>
        </g>
        <g
          id="Group_3338"
        >
          <g
            id="Group_3337"
          >
            <path
              id="Path_1680"
              d="M260.006,280.12c-33.948,39.006-101.446,25.782-119.2,0-17.084-25.048-4.456-48.292,1.589-56.937a72.488,72.488,0,0,0,8.066-14.836c5.449-13.773,4-22.954,2.134-51.967-1.853-17.457,7.78-36.644,20.486-36.644,8.915,0,15.585,19.827,22.478,33.631,1.216,2.432,8.68,2.445,9.962.048C213.441,138.6,218,120.329,229.5,120.329c12.235,0,20.478,19.441,18.717,36.051-1.866,29.013-3.315,38.194,2.129,51.967a72.746,72.746,0,0,0,8.07,14.836C264.458,231.828,277.085,255.072,260.006,280.12Z"
              fill="#fff"
            />
          </g>
        </g>
        <g
          id="Group_3340"
          opacity="0.3"
        >
          <g
            id="Group_3339"
          >
            <path
              id="Path_1681"
              d="M246.79,306.7c-5.6,10.564-13.615,12.7-20.732,3.082-4.957,4.242-14.766,2.845-14.871-5.347l9.949-3.263c.746.18,1.493.365,2.243.536,3.68.847,5.923,4.838,9.546,5.914,3.205.953,6.836-.808,8.588-3.657a11.547,11.547,0,0,0,.7-9.686s0-.013.009-.017l2.621-.861C266.833,302.367,260.783,311.407,246.79,306.7Z"
              fill="#371a45"
            />
          </g>
        </g>
        <g
          id="Group_3342"
          opacity="0.3"
        >
          <g
            id="Group_3341"
          >
            <path
              id="Path_1682"
              d="M203.92,151.937c19.758,9.7,19.465,23.909,4.1,17.616"
              fill="#371a45"
            />
          </g>
        </g>
        <g
          id="Group_3344"
        >
          <g
            id="Group_3343"
          >
            <path
              id="Path_1683"
              d="M201.88,92.546a86.477,86.477,0,0,0-15.016.877,54.194,54.194,0,0,0-14.292,4.147,40.41,40.41,0,0,0-12.079,8.448c-.9.844-1.675,1.816-2.491,2.744-.421.455-.77.969-1.146,1.461l-1.113,1.488-1.011,1.564c-.331.525-.695,1.028-.984,1.581l-.913,1.627c-.15.273-.311.539-.451.817l-.409.841a72.93,72.93,0,0,0-5.155,14.084,115.957,115.957,0,0,0-2.747,14.866c-.149,1.255-.313,2.507-.423,3.768s-.271,2.515-.364,3.778l-.292,3.787c-.067,1.265-.163,2.529-.243,3.794-.129,2.532-.3,5.064-.382,7.6-.054,1.269-.172,2.536-.305,3.806a28,28,0,0,1-.671,3.812l0,.012a.451.451,0,0,1-.875-.013,33.389,33.389,0,0,1-.772-7.68c0-1.28.017-2.561.056-3.842s.052-2.563.122-3.844.12-2.563.2-3.843l.308-3.839c.236-2.558.49-5.116.864-7.663a128.562,128.562,0,0,1,2.972-15.171,76.2,76.2,0,0,1,5.353-14.592l.428-.878c.146-.291.315-.571.472-.857l.959-1.708c.3-.579.686-1.113,1.035-1.666l1.068-1.647,1.177-1.576c.4-.521.768-1.063,1.213-1.547.866-.987,1.686-2.015,2.647-2.917a43.053,43.053,0,0,1,12.851-8.989A56.782,56.782,0,0,1,186.46,90.82a88.966,88.966,0,0,1,15.489-.907,1.317,1.317,0,1,1-.056,2.633Z"
              fill="#371a45"
            />
          </g>
        </g>
        <g
          id="Group_3346"
        >
          <g
            id="Group_3345"
          >
            <path
              id="Path_1684"
              d="M130.907,211.741c-20.879-14.843-33.984-30.808-34.2-41.666a9.483,9.483,0,0,1,3.574-8.052c4.916-3.8,13.448-1.188,27.583,3.135,4.032,1.233,8.6,2.63,13.581,4.02l-.709,2.537c-5.01-1.4-9.6-2.8-13.642-4.038-12.866-3.935-21.364-6.533-25.2-3.569a6.864,6.864,0,0,0-2.55,5.914c.157,7.869,8.933,22.4,33.092,39.572Z"
              fill="#371a45"
            />
          </g>
        </g>
        <g
          id="Group_3348"
        >
          <g
            id="Group_3347"
          >
            <path
              id="Path_1685"
              d="M198.051,89.913a88.966,88.966,0,0,1,15.489.907,56.782,56.782,0,0,1,14.991,4.358,43.053,43.053,0,0,1,12.851,8.989c.961.9,1.781,1.93,2.647,2.917.445.484.816,1.026,1.213,1.547l1.177,1.576,1.068,1.647c.349.553.731,1.087,1.035,1.666l.959,1.708c.157.286.326.566.472.857l.428.878a76.959,76.959,0,0,1,5.36,14.59,129.271,129.271,0,0,1,2.973,15.172c.374,2.547.616,5.107.857,7.664l.308,3.839.2,3.843c.071,1.281.083,2.563.12,3.844s.056,2.562.055,3.843a34.759,34.759,0,0,1-.766,7.679.45.45,0,0,1-.876.009l0-.008a42.083,42.083,0,0,1-.969-7.618c-.087-2.538-.251-5.071-.385-7.6l-.248-3.793-.293-3.787c-.225-2.521-.476-5.039-.793-7.545a115.563,115.563,0,0,0-2.745-14.865,72.268,72.268,0,0,0-5.149-14.086l-.409-.841c-.14-.278-.3-.544-.451-.817l-.913-1.627c-.289-.553-.653-1.056-.983-1.581l-1.012-1.564-1.113-1.488c-.376-.492-.725-1.006-1.145-1.461-.817-.928-1.588-1.9-2.492-2.744a40.4,40.4,0,0,0-12.08-8.448,54.176,54.176,0,0,0-14.291-4.147,86.477,86.477,0,0,0-15.016-.877h-.013a1.317,1.317,0,1,1-.056-2.633Z"
              fill="#371a45"
            />
          </g>
        </g>
        <g
          id="Group_3350"
        >
          <g
            id="Group_3349"
          >
            <path
              id="Path_1686"
              d="M266.972,203.351a19.034,19.034,0,0,1,1.016,2.107c.306.712.576,1.435.826,2.164.5,1.458.817,2.962,1.176,4.455.669,3,1.285,6.014,1.763,9.056l.191,1.139.155,1.145.307,2.291c.108.762.182,1.53.25,2.3l.217,2.3c.084.766.112,1.539.16,2.309l.133,2.312c.056,1.544.076,3.09.09,4.635a86.636,86.636,0,0,1-2.073,18.451c-.181.756-.394,1.505-.589,2.258l-.3,1.127c-.1.376-.234.743-.35,1.114l-.719,2.223-.831,2.185-.419,1.091-.479,1.068c-.325.709-.632,1.427-.971,2.129-.731,1.38-1.412,2.787-2.252,4.106-.771,1.361-1.685,2.63-2.567,3.921-.457.633-.953,1.238-1.428,1.858l-.723.922-.774.88a53.96,53.96,0,0,1-6.706,6.524l-1.828,1.459c-.626.463-1.267.907-1.9,1.361l-.953.675-.986.625c-.659.414-1.311.84-1.976,1.243l-2.031,1.145c-.34.187-.673.389-1.02.563l-1.041.521c-.7.345-1.385.7-2.086,1.035l-2.127.941a92.3,92.3,0,0,1-72.257,0l-2.127-.941c-.7-.333-1.39-.69-2.086-1.035l-1.041-.521c-.347-.174-.68-.376-1.02-.563l-2.031-1.145c-.665-.4-1.317-.829-1.976-1.243l-.986-.625-.953-.675c-.633-.454-1.273-.9-1.9-1.361l-1.828-1.459a53.958,53.958,0,0,1-6.706-6.524l-.774-.88-.723-.922c-.475-.62-.971-1.225-1.428-1.858-.882-1.291-1.8-2.56-2.567-3.921-.84-1.319-1.521-2.726-2.252-4.106-.339-.7-.646-1.42-.97-2.129l-.48-1.068-.419-1.091c-.276-.729-.564-1.454-.829-2.186l-.713-2.224c-.114-.372-.247-.739-.346-1.115l-.3-1.128c-.2-.753-.408-1.5-.589-2.257a86.8,86.8,0,0,1-2.07-18.448c.017-1.544.024-3.091.077-4.635l.133-2.312c.048-.77.076-1.542.16-2.309.265-3.074.611-6.139,1.113-9.177.48-3.042,1.1-6.057,1.77-9.055.35-1.5.709-2.99,1.2-4.45.251-.728.527-1.449.823-2.164a21.414,21.414,0,0,1,.991-2.113.453.453,0,0,1,.849.214v.013a21.911,21.911,0,0,1-.13,2.321c-.079.763-.176,1.519-.3,2.269-.231,1.5-.5,2.992-.829,4.469q-.885,4.451-1.555,8.93c-.432,2.988-.809,5.98-1.068,8.982-.085.749-.113,1.5-.162,2.252l-.135,2.253c-.06,1.5-.092,3.006-.126,4.509a80.644,80.644,0,0,0,1.839,17.853c.17.727.37,1.447.553,2.171l.284,1.084c.1.361.222.712.332,1.068l.682,2.131c.254.7.53,1.393.794,2.09l.4,1.043.459,1.018c.31.677.6,1.363.925,2.032.7,1.314,1.344,2.656,2.145,3.91.733,1.3,1.6,2.5,2.441,3.73.435.6.907,1.176,1.359,1.766l.686.878.737.837a51.318,51.318,0,0,0,6.389,6.213l1.745,1.4c.6.442,1.213.867,1.819,1.3l.912.647.945.6c.633.4,1.257.8,1.9,1.193l1.953,1.1c.328.18.647.375.981.542l1,.5c.671.332,1.335.677,2.011,1l2.055.909,1.029.452,1.048.409,2.1.817,2.13.733c.712.239,1.417.5,2.141.7l2.16.643c.718.223,1.453.382,2.178.577,1.45.4,2.922.7,4.392,1.011.731.172,1.476.28,2.215.415s1.478.271,2.222.375c1.49.19,2.974.434,4.473.551.748.069,1.494.15,2.243.21l2.25.129,1.126.062,1.126.022,2.254.043,2.253-.043,1.127-.022,1.125-.062,2.25-.129c.748-.06,1.5-.141,2.244-.21,1.5-.117,2.982-.361,4.473-.551.744-.1,1.481-.252,2.222-.375s1.483-.243,2.214-.415c1.47-.314,2.942-.616,4.392-1.011.725-.195,1.461-.354,2.178-.577l2.16-.643c.724-.2,1.429-.461,2.141-.7l2.131-.733,2.1-.817,1.048-.409,1.029-.452,2.055-.909c.676-.321,1.34-.666,2.011-1l1-.5c.334-.167.653-.362.98-.542l1.954-1.1c.638-.388,1.262-.8,1.895-1.193l.946-.6.912-.647c.605-.434,1.219-.859,1.818-1.3l1.745-1.4a51.317,51.317,0,0,0,6.389-6.213l.737-.837.686-.878c.452-.59.924-1.164,1.359-1.766.837-1.229,1.708-2.434,2.441-3.73.8-1.254,1.447-2.6,2.145-3.91.324-.669.615-1.355.925-2.032l.459-1.018.4-1.043c.263-.7.541-1.389.792-2.09l.676-2.134c.108-.356.235-.707.329-1.069l.281-1.084c.183-.724.382-1.443.553-2.17a80.859,80.859,0,0,0,1.835-17.85c-.037-1.5-.055-3.006-.113-4.508l-.135-2.254c-.049-.751-.077-1.5-.162-2.252-.265-3-.625-5.995-1.061-8.982s-.967-5.963-1.562-8.929c-.32-1.479-.627-2.96-.851-4.463-.124-.75-.229-1.5-.3-2.27a19.224,19.224,0,0,1-.106-2.327v-.012a.454.454,0,0,1,.848-.215Z"
              fill="#371a45"
            />
          </g>
        </g>
        <g
          id="Group_3352"
        >
          <g
            id="Group_3351"
          >
            <path
              id="Path_1687"
              d="M269.093,211.741l-1.526-2.147c24.159-17.175,32.935-31.7,33.092-39.572a6.864,6.864,0,0,0-2.55-5.914c-3.838-2.965-12.338-.365-25.2,3.569-4.046,1.237-8.631,2.64-13.641,4.038l-.709-2.537c4.979-1.39,9.548-2.787,13.58-4.02,14.136-4.323,22.668-6.933,27.584-3.135a9.483,9.483,0,0,1,3.574,8.052C303.077,180.933,289.972,196.9,269.093,211.741Z"
              fill="#371a45"
            />
          </g>
        </g>
        <g
          id="Group_3357"
        >
          <g
            id="Group_3354"
          >
            <g
              id="Group_3353"
            >
              <ellipse
                id="Ellipse_88"
                cx="12.92"
                cy="9.355"
                rx="12.92"
                ry="9.355"
                transform="translate(166.335 162.164) rotate(-85.553)"
                fill="#371a45"
              />
            </g>
          </g>
          <g
            id="Group_3356"
          >
            <g
              id="Group_3355"
            >
              <ellipse
                id="Ellipse_89"
                cx="4.339"
                cy="2.826"
                rx="4.339"
                ry="2.826"
                transform="matrix(0.078, -0.997, 0.997, 0.078, 176.05, 152.27)"
                fill="#fff"
              />
            </g>
          </g>
        </g>
        <g
          id="Group_3362"
        >
          <g
            id="Group_3359"
          >
            <g
              id="Group_3358"
            >
              <ellipse
                id="Ellipse_90"
                cx="9.355"
                cy="12.92"
                rx="9.355"
                ry="12.92"
                transform="translate(213.754 137.852) rotate(-4.447)"
                fill="#371a45"
              />
            </g>
          </g>
          <g
            id="Group_3361"
          >
            <g
              id="Group_3360"
            >
              <ellipse
                id="Ellipse_91"
                cx="2.826"
                cy="4.339"
                rx="2.826"
                ry="4.339"
                transform="matrix(0.997, -0.078, 0.078, 0.997, 218.388, 144.058)"
                fill="#fff"
              />
            </g>
          </g>
        </g>
        <g
          id="Group_3377"
        >
          <g
            id="Group_3364"
          >
            <g
              id="Group_3363"
            >
              <path
                id="Path_1688"
                d="M208.713,165.062a13.865,13.865,0,0,1-2.2,8.076c-3.148,4.491-8.93,4.537-12.135.129a13.785,13.785,0,0,1-2.285-8.205"
                fill="#371a45"
              />
            </g>
          </g>
          <g
            id="Group_3366"
          >
            <g
              id="Group_3365"
            >
              <path
                id="Path_1689"
                d="M209.231,164.511l-8,1.3a3.935,3.935,0,0,1-.443.053,5.132,5.132,0,0,1-1.243-.053l-7.956-1.291a1.7,1.7,0,0,1-1.264-2.406c3.275-6.955,6.9-10.335,10.463-10.177,3.411.158,6.77,3.565,9.725,10.2A1.7,1.7,0,0,1,209.231,164.511Z"
                fill="#f4c968"
              />
            </g>
          </g>
          <g
            id="Group_3368"
            opacity="0.6"
          >
            <g
              id="Group_3367"
            >
              <path
                id="Path_1690"
                d="M204.654,153.236a5.566,5.566,0,0,0-1.4-.25c-3.565-.158-7.187,3.222-10.463,10.177a1.711,1.711,0,0,0,.014,1.48l-.835-.136a1.7,1.7,0,0,1-1.264-2.406c3.275-6.955,6.9-10.336,10.463-10.178A6.476,6.476,0,0,1,204.654,153.236Z"
                fill="#fff"
              />
            </g>
          </g>
          <g
            id="Group_3370"
          >
            <g
              id="Group_3369"
            >
              <path
                id="Path_1691"
                d="M206.515,173.138c-3.148,4.491-8.93,4.537-12.135.129,0-.061,0-.1,0-.1Q200.316,168.45,206.515,173.138Z"
                fill="#ee97c0"
              />
            </g>
          </g>
          <g
            id="Group_3372"
          >
            <g
              id="Group_3371"
            >
              <path
                id="Path_1692"
                d="M200.384,167.2a6.539,6.539,0,0,1-1.053-.085l-7.957-1.292a3.018,3.018,0,0,1-2.243-4.265c3.419-7.258,7.256-10.938,11.4-10.938h.076c4.142.044,7.877,3.741,11.1,10.988a3.018,3.018,0,0,1-2.27,4.206l-8,1.3A6.552,6.552,0,0,1,200.384,167.2Zm.155-13.945c-2.956,0-6.16,3.344-9.025,9.426a.379.379,0,0,0,.008.343.372.372,0,0,0,.274.2l7.957,1.293a3.929,3.929,0,0,0,1.262,0l8.005-1.3h0a.367.367,0,0,0,.271-.194.378.378,0,0,0,.014-.34c-2.691-6.046-5.79-9.394-8.725-9.425Z"
                fill="#371a45"
              />
            </g>
          </g>
          <g
            id="Group_3374"
          >
            <g
              id="Group_3373"
            >
              <path
                id="Path_1693"
                d="M200.4,177.679a8.607,8.607,0,0,1-6.943-3.743,14.993,14.993,0,0,1-2.5-8.874,1.139,1.139,0,1,1,2.277,0A12.76,12.76,0,0,0,195.3,172.6a6.362,6.362,0,0,0,5.1,2.8h.048a6.4,6.4,0,0,0,5.131-2.917,12.855,12.855,0,0,0,1.992-7.422,1.139,1.139,0,0,1,2.278,0,15.087,15.087,0,0,1-2.406,8.731,8.642,8.642,0,0,1-6.975,3.886Z"
                fill="#371a45"
              />
            </g>
          </g>
          <g
            id="Group_3376"
            opacity="0.3"
          >
            <g
              id="Group_3375"
            >
              <path
                id="Path_1694"
                d="M209.231,164.511l-8,1.3a3.935,3.935,0,0,1-.443.053V151.937c3.411.158,6.77,3.565,9.725,10.2A1.7,1.7,0,0,1,209.231,164.511Z"
                fill="#371a45"
              />
            </g>
          </g>
        </g>
        <g
          id="Group_3379"
        >
          <g
            id="Group_3378"
          >
            <path
              id="Path_1695"
              d="M165.034,317.248c-.227,0-.446-.009-.657-.024-4.141-.31-7.98-3.4-11.149-8.947-6.51,1.935-11.783,1.068-13.006-2.222-1.562-4.2,4.078-9.386,15.087-13.877a1.317,1.317,0,0,1,.994,2.439c-11.085,4.523-14.233,8.853-13.613,10.52.545,1.463,4.584,2.386,10.751.31a1.318,1.318,0,0,1,1.584.63c2.78,5.242,6.171,8.267,9.548,8.52,2.991.226,6.086-1.714,8.962-5.6a1.316,1.316,0,0,1,1.915-.218,9.018,9.018,0,0,0,9.164,1.32,5.87,5.87,0,0,0,3.533-5.683,1.317,1.317,0,0,1,1.317-1.3h.017a1.317,1.317,0,0,1,1.3,1.334,8.574,8.574,0,0,1-5.08,8.05,11.651,11.651,0,0,1-10.857-.895C171.122,316.152,167.58,317.248,165.034,317.248Z"
              fill="#371a45"
            />
          </g>
        </g>
        <g
          id="Group_3381"
        >
          <g
            id="Group_3380"
          >
            <path
              id="Path_1696"
              d="M153.318,302.415c.1.307.231.659.367.985s.286.659.439.984c.309.65.642,1.288.993,1.915a1.345,1.345,0,1,1-2.51.816l0-.024c-.087-.763-.152-1.528-.188-2.294-.017-.383-.028-.767-.026-1.152s.013-.758.05-1.177a.443.443,0,0,1,.862-.1Z"
              fill="#371a45"
            />
          </g>
        </g>
        <g
          id="Group_3383"
        >
          <g
            id="Group_3382"
          >
            <path
              id="Path_1697"
              d="M173.566,308.955a14.536,14.536,0,0,1,1.23-1.019,15.386,15.386,0,0,1,1.292-.873,8.032,8.032,0,0,1,2.943-1.149.442.442,0,0,1,.254.835l-.028.014a6.814,6.814,0,0,0-2.062,1.664,13.246,13.246,0,0,0-.85,1.064,11.682,11.682,0,0,0-.723,1.112,1.337,1.337,0,1,1-2.092-1.614Z"
              fill="#371a45"
            />
          </g>
        </g>
        <g
          id="Group_3385"
        >
          <g
            id="Group_3384"
          >
            <path
              id="Path_1698"
              d="M235.618,317.248c-2.546,0-6.088-1.1-9.81-5.645a11.654,11.654,0,0,1-10.857.895,8.576,8.576,0,0,1-5.08-8.05,1.317,1.317,0,1,1,2.634-.033,5.87,5.87,0,0,0,3.533,5.683,9.016,9.016,0,0,0,9.164-1.32,1.316,1.316,0,0,1,1.915.218c2.875,3.887,5.971,5.828,8.961,5.6,3.378-.253,6.769-3.278,9.549-8.52a1.318,1.318,0,0,1,1.584-.63c6.168,2.076,10.206,1.153,10.751-.31.62-1.667-2.528-6-13.613-10.52a1.317,1.317,0,1,1,.995-2.439c11.008,4.491,16.648,9.679,15.087,13.877-1.224,3.29-6.5,4.157-13.007,2.222-3.169,5.55-7.009,8.637-11.149,8.947C236.064,317.239,235.845,317.248,235.618,317.248Z"
              fill="#371a45"
            />
          </g>
        </g>
        <g
          id="Group_3387"
        >
          <g
            id="Group_3386"
          >
            <path
              id="Path_1699"
              d="M248.211,302.468c.037.419.048.787.05,1.177s-.009.769-.026,1.152c-.036.766-.1,1.531-.188,2.294l0,.017a1.345,1.345,0,1,1-2.673-.3,1.382,1.382,0,0,1,.163-.5c.351-.627.684-1.265.993-1.915.153-.325.3-.653.439-.984s.267-.678.367-.985l.015-.044a.443.443,0,0,1,.862.1Z"
              fill="#371a45"
            />
          </g>
        </g>
        <g
          id="Group_3389"
        >
          <g
            id="Group_3388"
          >
            <path
              id="Path_1700"
              d="M225.03,310.6a11.679,11.679,0,0,0-.723-1.112,13.25,13.25,0,0,0-.85-1.064,6.814,6.814,0,0,0-2.062-1.664l-.028-.014a.441.441,0,0,1,.254-.835,8.032,8.032,0,0,1,2.943,1.149,15.387,15.387,0,0,1,1.292.873,14.536,14.536,0,0,1,1.23,1.019l.032.03a1.337,1.337,0,0,1-1.832,1.947A1.359,1.359,0,0,1,225.03,310.6Z"
              fill="#371a45"
            />
          </g>
        </g>
        <g
          id="Group_3391"
        >
          <g
            id="Group_3390"
          >
            <path
              id="Path_1701"
              d="M196.017,95.352c-10.976-20.343,8.693-30.016,10.491-8.144,6.576-11.467,21.122-2.148,3.706,8.144"
              fill="#6fa3d2"
              stroke="#371a45"
              stroke-miterlimit="10"
              stroke-width="0"
            />
          </g>
        </g>
        <g
          id="Group_3393"
          opacity="0.55"
        >
          <g
            id="Group_3392"
          >
            <path
              id="Path_1702"
              d="M203.929,78.083c-5.457-4.022-11.936,4.354-7.8,16.684l-.11.584C187.1,78.829,198.4,69.345,203.929,78.083Z"
              fill="#fff"
            />
          </g>
        </g>
        <g
          id="Group_3395"
          opacity="0.55"
        >
          <g
            id="Group_3394"
          >
            <path
              id="Path_1703"
              d="M218.295,84.646c-2.09-.956-5.285-.445-7.929,2.361a2.239,2.239,0,0,1-3.8-.947l-.009-.038C210.5,81.359,217.285,81.332,218.295,84.646Z"
              fill="#fff"
            />
          </g>
        </g>
        <g
          id="Group_3397"
        >
          <g
            id="Group_3396"
          >
            <path
              id="Path_1704"
              d="M195.631,95.561a12.043,12.043,0,0,1-2.869-4.359,25.082,25.082,0,0,1-.831-2.505c-.116-.428-.2-.866-.292-1.3a12.633,12.633,0,0,1-.213-1.324,15.779,15.779,0,0,1,.193-5.446,10.737,10.737,0,0,1,2.592-5.079,7.461,7.461,0,0,1,2.556-1.717,6.028,6.028,0,0,1,3.177-.273,6.638,6.638,0,0,1,2.816,1.281,7.928,7.928,0,0,1,1.085,1c.161.18.331.356.482.542l.413.577a16.282,16.282,0,0,1,2.2,4.968l.321,1.288.23,1.294c.087.431.137.863.182,1.295l.144,1.3-2.455-.547a14.744,14.744,0,0,1,2.472-3.185,10.177,10.177,0,0,1,3.522-2.237l.509-.175c.17-.056.352-.087.528-.131a6.573,6.573,0,0,1,1.083-.172,8.446,8.446,0,0,1,1.115-.019,7.068,7.068,0,0,1,1.128.183,5.669,5.669,0,0,1,2.14,1,4.73,4.73,0,0,1,1.534,1.947,5.255,5.255,0,0,1,.361,1.2,5.911,5.911,0,0,1,.06.607,3.012,3.012,0,0,1,0,.6l-.051.589c-.026.193-.076.374-.116.561a5.911,5.911,0,0,1-.334,1.066,10.875,10.875,0,0,1-2.3,3.439,13.433,13.433,0,0,1-6.581,3.9.461.461,0,0,1-.451-.751l0,0c1.662-1.914,3.49-3.354,4.968-5.034a10.857,10.857,0,0,0,1.747-2.619,3.219,3.219,0,0,0,.218-2.5,2.074,2.074,0,0,0-.685-.908,2.729,2.729,0,0,0-1.146-.542,4.854,4.854,0,0,0-2.83.231,7.536,7.536,0,0,0-2.61,1.672,12.121,12.121,0,0,0-2,2.585,1.323,1.323,0,0,1-2.452-.521l0-.026-.134-1.195a11.894,11.894,0,0,0-.166-1.185l-.207-1.173L204.4,82.62a13.672,13.672,0,0,0-1.821-4.153l-.313-.444c-.113-.137-.237-.259-.353-.391a5.321,5.321,0,0,0-.749-.7,3.9,3.9,0,0,0-1.695-.781,3.371,3.371,0,0,0-1.748.175,4.8,4.8,0,0,0-1.548,1.09,8.064,8.064,0,0,0-1.77,3.8,15.03,15.03,0,0,0-.147,4.522c.048.771.232,1.536.358,2.308.187.765.355,1.536.61,2.292.2.77.46,1.53.655,2.326.086.4.2.8.3,1.2a11.028,11.028,0,0,1,.224,1.269l0,.038a.461.461,0,0,1-.777.379Z"
              fill="#371a45"
            />
          </g>
        </g>
        <g
          id="Group_3399"
          opacity="0.3"
        >
          <g
            id="Group_3398"
          >
            <path
              id="Path_1705"
              d="M245.016,223.758c-9.29-19.863-5.018-29.931-3.776-70.232,1.3-42.031-9.215-54.856-9.523-55.225a.007.007,0,0,1,.009,0c20.109,11.71,26.484,37.263,27.239,72.129l.013,0c.15,16.882,3.337,22.691,3.337,22.691,4.61,6.805,15.148-1.787,15.148-1.787,17.7-10.4,23.331-22.8,24.06-24.561.062-.14.088-.215.088-.215s.022.241.061.711c.058.689.15,1.866.273,3.495v.009a20.147,20.147,0,0,1-1.66,6.274c-3.679,8.685-13.387,20.012-29.593,31.92q-1.158.849-2.362,1.708l-1.238-5.278-.039.022c6.814,26.625,6.221,47.8-1.015,63.751-7.27,13.185-19.564,22.388-36.376,27.749a91.475,91.475,0,0,1-55.5,0q-2.766-.882-5.369-1.91c65.52,6.182,88.953-46.439,77.994-67.641q-.336-.653-.654-1.287"
              fill="#371a45"
            />
          </g>
        </g>
      </g>
    </g>
  </g>
  <text
    id="مرحبا"
    transform="translate(288 50)"
    fill="#6fa3d2"
    font-size="55"
    font-family="CoconNextArabic-Bold, CoconÆ Next Arabic"
    font-weight="700"
  >
    <tspan
      x="-52.443"
      y="0"
    >مرحبا
    </tspan>
  </text>
  <g
    id="Group_3408"
    transform="translate(1171.815 416.735) rotate(150)"
  >
    <path
      id="Path_1706"
      d="M634.432,986.588l-.064,0q-1.444.022-2.942,0a.873.873,0,1,1,.026-1.746q1.47.025,2.887,0a.874.874,0,0,1,.093,1.745Z"
      transform="translate(0 -191.256)"
      fill="#6fa3d2"
      fill-rule="evenodd"
    />
    <path
      id="Path_1707"
      d="M677.218,799.657l-.3.027a.874.874,0,1,1-.154-1.742l.3-.027c1.876-.165,3.721-.437,5.5-.692a.874.874,0,1,1,.286,1.725C681.033,799.251,679.139,799.488,677.218,799.657Zm11.347-1.93a.874.874,0,0,1-.3-1.716,48.893,48.893,0,0,0,5.535-1.777.873.873,0,1,1,.625,1.631,53.724,53.724,0,0,1-5.716,1.837Zm11-4.259a.874.874,0,0,1-.491-1.641,39.393,39.393,0,0,0,4.885-3.09.874.874,0,0,1,1.041,1.4,41.488,41.488,0,0,1-5.1,3.226A.869.869,0,0,1,699.566,793.468Zm9.441-7.04a.873.873,0,0,1-.7-1.48,32.871,32.871,0,0,0,3.635-4.455.875.875,0,0,1,1.449.98,34.706,34.706,0,0,1-3.832,4.7A.866.866,0,0,1,709.007,786.428Zm6.575-9.751a.866.866,0,0,1-.42-.068.876.876,0,0,1-.46-1.149,29.159,29.159,0,0,0,1.147-3.156,19.21,19.21,0,0,1-4.638-1.931.875.875,0,0,1,.883-1.51,17.813,17.813,0,0,0,4.195,1.749c.047-.2.09-.41.132-.615a.875.875,0,0,1,1.715.347c-.065.323-.136.645-.214.966a.86.86,0,0,1,.085.6.875.875,0,0,1-.385.549,30.141,30.141,0,0,1-1.313,3.688A.875.875,0,0,1,715.583,776.677Zm9.184-3.656c-.576.051-1.145.083-1.71.1a.876.876,0,0,1-.9-.849.847.847,0,0,1,.848-.9,28.343,28.343,0,0,0,5.687-.745.874.874,0,1,1,.391,1.7A32.219,32.219,0,0,1,724.767,773.021Zm9.826-2.468a.873.873,0,0,1-.408-1.677,39.6,39.6,0,0,0,5.175-2.585.875.875,0,1,1,.891,1.505,40.858,40.858,0,0,1-5.4,2.695A.9.9,0,0,1,734.593,770.552Zm10.169-5.973a.875.875,0,0,1-.616-1.561,48.664,48.664,0,0,0,4.346-3.851.874.874,0,1,1,1.235,1.238,50.6,50.6,0,0,1-4.5,3.99A.868.868,0,0,1,744.761,764.58Zm-37.487,2.073a.879.879,0,0,1-.759-.321,11.728,11.728,0,0,1-2.711-5.7.867.867,0,0,1,.746-.986.887.887,0,0,1,.986.745,10.09,10.09,0,0,0,2.34,4.841.872.872,0,0,1-.6,1.419Zm10.53-1.494a.882.882,0,0,1-.935-.824c-.011-.219-.027-.438-.045-.653a13.331,13.331,0,0,0-1.217-4.726.874.874,0,1,1,1.568-.774,15.056,15.056,0,0,1,1.392,5.349c.019.238.038.473.05.71A.882.882,0,0,1,717.8,765.16Zm-11.114-9.071a.874.874,0,0,1-.617-1.559,6.173,6.173,0,0,1,3.278-1.285,6.8,6.8,0,0,1,3.2.5.873.873,0,1,1-.659,1.617,5.058,5.058,0,0,0-2.384-.378,4.431,4.431,0,0,0-2.349.918A.875.875,0,0,1,706.689,756.089Z"
      transform="translate(-36.58 -4.64)"
      fill="#6fa3d2"
      fill-rule="evenodd"
    />
    <path
      id="Path_1708"
      d="M1069.455,751.53a.874.874,0,0,1-.761-1.416c.589-.736,1.165-1.5,1.729-2.289a.875.875,0,1,1,1.422,1.019c-.581.812-1.173,1.6-1.784,2.361A.876.876,0,0,1,1069.455,751.53Z"
      transform="translate(-352.84)"
      fill="#6fa3d2"
      fill-rule="evenodd"
    />
  </g>
</svg>
