<svg
  xmlns="http://www.w3.org/2000/svg"
  width="151.684"
  height="203.136"
  viewBox="0 0 151.684 203.136"
>
<g
  id="Group_3844"
  transform="translate(0 0)"
>
  <g
    id="Group_3843"
    transform="translate(0 0)"
  >
    <g
      id="Group_3741"
      transform="translate(0 182.956)"
      opacity="0.3"
    >
      <ellipse
        id="Ellipse_106"
        cx="75.842"
        cy="10.09"
        rx="75.842"
        ry="10.09"
        fill="#371a45"
      />
    </g>
    <g
      id="Group_3842"
      transform="translate(0.497)"
    >
      <g
        id="Group_3746"
        transform="translate(0 110.048)"
      >
        <g
          id="Group_3742"
          transform="translate(1.239 1.239)"
        >
          <path
            id="Path_1946"
            d="M283.449-185.892a4.413,4.413,0,0,1-.9,6.453c-4.855,3.308-14.014,7.333-23.9.235-7.972-5.722-12.7-14.323-15.346-20.932a5.815,5.815,0,0,1,6.944-7.778A66.319,66.319,0,0,1,283.449-185.892Z"
            transform="translate(-242.873 208.136)"
            fill="#6fa3d2"
            stroke="#371a45"
            stroke-miterlimit="10"
            stroke-width="0"
          />
        </g>
        <g
          id="Group_3743"
          transform="translate(1.239 1.239)"
          opacity="0.3"
        >
          <path
            id="Path_1947"
            d="M263.215-207.83a5.817,5.817,0,0,0-2.28,7.093c2.646,6.608,7.373,15.209,15.346,20.932a19.443,19.443,0,0,0,11.246,3.932c-4.629,1.18-10.283.916-16.2-3.33-7.972-5.722-12.7-14.323-15.346-20.932a5.815,5.815,0,0,1,6.944-7.778Z"
            transform="translate(-255.553 208.136)"
            fill="#371a45"
          />
        </g>
        <g
          id="Group_3744"
          transform="translate(2.936 1.24)"
          opacity="0.6"
        >
          <path
            id="Path_1948"
            d="M279.105-183.227a66.32,66.32,0,0,0-32.317-23.3,5.69,5.69,0,0,0-3.915.123,5.707,5.707,0,0,1,5.677-1.508,66.319,66.319,0,0,1,33.2,22.021,4.413,4.413,0,0,1-.9,6.453c-.4.273-.832.55-1.289.826A4.421,4.421,0,0,0,279.105-183.227Z"
            transform="translate(-242.873 208.136)"
            fill="#fff"
          />
        </g>
        <g id="Group_3745">
          <path
            id="Path_1949"
            d="M269.712-174.414a23.8,23.8,0,0,0,13.139-4.391,5.641,5.641,0,0,0,2.4-3.865,5.681,5.681,0,0,0-1.244-4.409l-.959.793.959-.793a67.49,67.49,0,0,0-33.825-22.426,6.992,6.992,0,0,0-7.131,2.077,7.035,7.035,0,0,0-1.3,7.361c2.6,6.5,7.453,15.507,15.775,21.479A20.587,20.587,0,0,0,269.712-174.414Zm-21.467-32.872a4.668,4.668,0,0,1,1.266.177,65,65,0,0,1,32.579,21.616,3.185,3.185,0,0,1,.7,2.474,3.108,3.108,0,0,1-1.337,2.158c-5.343,3.64-13.579,6.639-22.477.253-7.835-5.624-12.437-14.189-14.917-20.383a4.508,4.508,0,0,1,.846-4.775A4.458,4.458,0,0,1,248.245-207.286Z"
            transform="translate(-241.234 209.77)"
            fill="#371a45"
          />
        </g>
      </g>
      <g
        id="Group_3752"
        transform="translate(25.218 95.147)"
      >
        <g
          id="Group_3747"
          transform="translate(1.245 1.251)"
        >
          <path
            id="Path_1950"
            d="M135.548-178.067c0,47.3,48.882,45.448,48.882,45.448s48.882,1.851,48.882-45.448a57.64,57.64,0,0,0-1.742-14.471A44.817,44.817,0,0,0,214.533-217.8q-.549-.411-1.1-.8a50.46,50.46,0,0,0-58,0C144.9-211.181,135.548-198.761,135.548-178.067Z"
            transform="translate(-135.548 227.768)"
            fill="#6fa3d2"
            stroke="#371a45"
            stroke-miterlimit="10"
            stroke-width="0"
          />
        </g>
        <g
          id="Group_3748"
          transform="translate(11.239 3.495)"
        >
          <path
            id="Path_1951"
            d="M159.09-209.867q.247-.349.494-.691a34.69,34.69,0,0,1,56.061,0q.243.336.486.679A55.192,55.192,0,0,1,226.3-173.292c-1.306,15-9.24,32.145-38.688,32.145-30.1,0-37.725-17.915-38.766-33.141A55.217,55.217,0,0,1,159.09-209.867Z"
            transform="translate(-148.727 224.81)"
            fill="#fff"
          />
        </g>
        <g
          id="Group_3749"
          transform="translate(1.245 44.37)"
          opacity="0.3"
        >
          <path
            id="Path_1952"
            d="M184.429-132.037s44.229,1.674,48.542-38.877a63.193,63.193,0,0,1,.341,6.582c0,47.3-48.882,45.447-48.882,45.447s-48.882,1.854-48.882-45.447a63.2,63.2,0,0,1,.341-6.582C140.2-130.363,184.429-132.037,184.429-132.037Z"
            transform="translate(-135.547 170.914)"
            fill="#371a45"
          />
        </g>
        <g
          id="Group_3750"
          transform="translate(2.994 9.315)"
          opacity="0.3"
        >
          <path
            id="Path_1953"
            d="M154.882-215.235l30.1-1.9,30.1,1.9a44.817,44.817,0,0,1,17.036,25.265c-9.049,3.789-24.153,7.888-47.136,7.888s-38.087-4.1-47.136-7.888A44.822,44.822,0,0,1,154.882-215.235Z"
            transform="translate(-137.845 217.136)"
            fill="#371a45"
          />
        </g>
        <g id="Group_3751">
          <path
            id="Path_1954"
            d="M183.146-131.762c.451,0,.753-.008.887-.012,1.453.049,23.055.513,37.554-13.446,8.343-8.032,12.573-19.218,12.573-33.245,0-18.022-6.867-32-20.409-41.551L213.034-219l.717-1.016a51.668,51.668,0,0,0-59.433,0c-13.545,9.549-20.412,23.53-20.412,41.552,0,14.028,4.23,25.213,12.573,33.245C159.648-132.541,178.677-131.762,183.146-131.762Zm.887-2.5h-.046c-.218.007-21.88.647-35.8-12.763-7.828-7.545-11.8-18.122-11.8-31.44,0-17.167,6.513-30.463,19.358-39.519a49.174,49.174,0,0,1,56.564,0c12.843,9.057,19.355,22.353,19.355,39.518,0,13.318-3.969,23.9-11.8,31.44-13.914,13.41-35.577,12.771-35.8,12.763Z"
            transform="translate(-133.906 229.418)"
            fill="#371a45"
          />
        </g>
      </g>
      <g
        id="Group_3753"
        transform="translate(24.738 44.202)"
      >
        <path
          id="Path_1955"
          d="M137.48-219.8c7.77,9.37,24.134,12.91,46.4,12.91s38.63-3.54,46.4-12.91,2.4-16.756,2.4-16.756q.053-1.375.074-2.708c.366-27.751-11.463-42.345-23.577-50.012a47.277,47.277,0,0,0-25.3-7.311,47.277,47.277,0,0,0-25.3,7.311c-12.5,7.913-24.7,23.2-23.5,52.721C135.08-236.558,129.713-229.172,137.48-219.8Z"
          transform="translate(-133.274 296.59)"
          fill="#fff"
        />
      </g>
      <g
        id="Group_3754"
        transform="translate(26.463 44.202)"
      >
        <path
          id="Path_1956"
          d="M159.132-289.279a47.277,47.277,0,0,1,25.3-7.311,47.277,47.277,0,0,1,25.3,7.311c12.114,7.668,23.943,22.262,23.577,50.012h0l-.655-.352a14.272,14.272,0,0,1-7.32-10.1c-1.578-9-6.056-24.013-18.375-24.013-17.595,0-13.919,43.468-13.919,43.468l-8.6,1.738-8.6-1.738s3.675-43.468-13.919-43.468c-12.319,0-16.8,15.011-18.375,24.013a14.272,14.272,0,0,1-7.32,10.1l-.654.352h0C135.189-267.017,147.018-281.611,159.132-289.279Z"
          transform="translate(-135.547 296.59)"
          fill="#6fa3d2"
          stroke="#371a45"
          stroke-miterlimit="10"
          stroke-width="0"
        />
      </g>
      <g
        id="Group_3755"
        transform="translate(24.739 106.773)"
        opacity="0.3"
      >
        <path
          id="Path_1957"
          d="M137.48-207.692c7.77,9.37,24.134,12.91,46.4,12.91s38.63-3.54,46.4-12.91a18.589,18.589,0,0,0,3.6-6.4c.957,2.94,1.423,8.163-3.6,14.217-7.77,9.369-24.134,12.91-46.4,12.91s-38.63-3.54-46.4-12.91c-5.018-6.054-4.553-11.276-3.6-14.217A18.589,18.589,0,0,0,137.48-207.692Z"
          transform="translate(-133.274 214.088)"
          fill="#371a45"
        />
      </g>
      <g
        id="Group_3758"
        transform="translate(26.29 44.026)"
        opacity="0.7"
      >
        <g
          id="Group_3756"
          transform="translate(0.176 0.176)"
        >
          <path
            id="Path_1958"
            d="M209.723-285.724a47.277,47.277,0,0,0-25.3-7.311,47.277,47.277,0,0,0-25.3,7.311c-11.665,7.383-23.064,21.192-23.565,46.985-.524-28.092,11.376-42.824,23.565-50.54a47.277,47.277,0,0,1,25.3-7.311,47.277,47.277,0,0,1,25.3,7.311c12.114,7.668,23.943,22.262,23.577,50.012,0,.192-.008.387-.012.58C232.8-264.51,221.4-278.336,209.723-285.724Z"
            transform="translate(-135.547 296.59)"
            fill="#fff"
          />
        </g>
        <g id="Group_3757">
          <path
            id="Path_1959"
            d="M233.407-238.739l.013-.582c.168-12.709-2.231-23.685-7.13-32.624a47.681,47.681,0,0,0-16.529-17.538,47.392,47.392,0,0,0-25.391-7.339,47.392,47.392,0,0,0-25.391,7.339,47.662,47.662,0,0,0-16.61,17.692c-4.909,9.035-7.276,20.137-7.037,33h.351c.417-21.482,8.318-37.241,23.484-46.84a47.041,47.041,0,0,1,25.2-7.285,47.041,47.041,0,0,1,25.2,7.285c15.176,9.6,23.076,25.382,23.483,46.892ZM184.37-296.47a47.047,47.047,0,0,1,25.2,7.284c13.806,8.738,21.754,23.158,23.246,41.989a58.348,58.348,0,0,0-7.023-22.065,47.694,47.694,0,0,0-16.035-16.666h0a47.4,47.4,0,0,0-25.391-7.338,47.4,47.4,0,0,0-25.391,7.338,47.7,47.7,0,0,0-16.028,16.65,58.272,58.272,0,0,0-7.024,22.019c1.859-23.43,13.355-35.671,23.24-41.927A47.047,47.047,0,0,1,184.37-296.47Z"
            transform="translate(-135.315 296.822)"
            fill="#371a45"
          />
        </g>
      </g>
      <g
        id="Group_3759"
        transform="translate(23.523 42.975)"
      >
        <path
          id="Path_1960"
          d="M183.493-206.039c24.41,0,39.9-4.371,47.356-13.361,7.254-8.748,3.733-16.122,2.7-17.883.5-13.523-1.778-25.2-6.769-34.705a48.739,48.739,0,0,0-17.323-18.731,48.76,48.76,0,0,0-51.929,0,48.731,48.731,0,0,0-17.322,18.731c-4.991,9.508-7.268,21.182-6.77,34.705-1.033,1.761-4.554,9.136,2.7,17.883C143.592-210.41,159.083-206.039,183.493-206.039Zm0-89.682a46.038,46.038,0,0,1,24.633,7.1c16.185,10.245,23.9,27.611,22.922,51.616a1.244,1.244,0,0,0,.237.782c.19.268,4.667,6.769-2.35,15.231-6.953,8.385-21.817,12.461-45.441,12.461S145-212.6,138.052-220.988c-7.018-8.462-2.541-14.964-2.347-15.236a1.263,1.263,0,0,0,.233-.777c-.975-24,6.736-41.37,22.922-51.616A46.052,46.052,0,0,1,183.493-295.721Z"
          transform="translate(-131.672 298.208)"
          fill="#371a45"
        />
      </g>
      <g
        id="Group_3770"
        transform="translate(57.226 32.99)"
      >
        <g
          id="Group_3762"
          transform="translate(1.922 0.946)"
        >
          <g
            id="Group_3760"
            transform="translate(0.305 0.299)"
          >
            <path
              id="Path_1961"
              d="M178.246-295.706l2.491,1.4a.124.124,0,0,0,.029.014l17.687,9.921s15.387-1.9,11.576-25.362l-17.022,11.464a25.388,25.388,0,0,0-.224-3.778,9.809,9.809,0,0,0-1.514-4.45S184.918-301.421,178.246-295.706Z"
              transform="translate(-178.246 309.732)"
              fill="#6fa3d2"
              stroke="#371a45"
              stroke-miterlimit="10"
              stroke-width="0"
            />
          </g>
          <g
            id="Group_3761"
          >
            <path
              id="Path_1962"
              d="M198.486-284.284l.057-.007a14.071,14.071,0,0,0,8.638-5.464c3.466-4.623,4.506-11.385,3.091-20.1l-.044-.271L193.255-298.7a26.3,26.3,0,0,0-.229-3.471,9.681,9.681,0,0,0-1.549-4.534l-.109-.14-.14.111c-.064.051-6.431,5.144-13.028,10.8l-.19.164Zm11.482-25.243c1.334,8.482.3,15.06-3.063,19.556a13.774,13.774,0,0,1-8.35,5.323l-19.936-11.183c5.979-5.116,11.72-9.735,12.686-10.51a9.777,9.777,0,0,1,1.373,4.224,25.449,25.449,0,0,1,.222,3.749l-.01.342Z"
              transform="translate(-178.009 310.126)"
              fill="#371a45"
            />
          </g>
        </g>
        <g
          id="Group_3765"
          transform="translate(15.65 0.946)"
          opacity="0.7"
        >
          <g
            id="Group_3763"
            transform="translate(1.339 0.299)"
          >
            <path
              id="Path_1963"
              d="M183.692-284.37s15.387-1.9,11.577-25.362l-17.022,11.464,12.842-4.817a.777.777,0,0,1,1.048.7A21.154,21.154,0,0,1,183.692-284.37Z"
              transform="translate(-178.246 309.732)"
              fill="#fff"
            />
          </g>
          <g
            id="Group_3764"
          >
            <path
              id="Path_1964"
              d="M184.057-284.2l.758-.093a14.071,14.071,0,0,0,8.638-5.464c3.466-4.623,4.506-11.385,3.091-20.1l-.044-.271-18.49,12.452,14.242-5.342a.6.6,0,0,1,.547.064.592.592,0,0,1,.265.48,21.15,21.15,0,0,1-8.365,17.858Zm12.183-25.33c1.335,8.486.3,15.067-3.069,19.562a13.98,13.98,0,0,1-7.64,5.169,21.71,21.71,0,0,0,7.882-17.684.938.938,0,0,0-.42-.761.944.944,0,0,0-.866-.1l-11.442,4.292Z"
              transform="translate(-178.009 310.126)"
              fill="#371a45"
            />
          </g>
        </g>
        <g
          id="Group_3768"
          transform="translate(1.922 4.232)"
          opacity="0.7"
        >
          <g
            id="Group_3766"
            transform="translate(0.305 0.248)"
          >
            <path
              id="Path_1965"
              d="M201.786-294.675l2.491,1.4a.125.125,0,0,0,.029.014,30.459,30.459,0,0,1,12.017-7.756,9.809,9.809,0,0,0-1.514-4.45S208.458-300.391,201.786-294.675Z"
              transform="translate(-201.786 305.467)"
              fill="#fff"
            />
          </g>
          <g
            id="Group_3767"
          >
            <path
              id="Path_1966"
              d="M204.41-293.137l.076-.086a30.547,30.547,0,0,1,11.941-7.706l.139-.046-.02-.145A9.681,9.681,0,0,0,215-305.654l-.109-.14-.14.111c-.064.051-6.431,5.144-13.028,10.8l-.19.164,2.771,1.552Zm11.768-8.079a31.023,31.023,0,0,0-11.861,7.658l-2.177-1.226c5.979-5.116,11.72-9.736,12.686-10.511A9.584,9.584,0,0,1,216.178-301.216Z"
              transform="translate(-201.53 305.794)"
              fill="#371a45"
            />
          </g>
        </g>
        <g
          id="Group_3769"
          transform="translate(0)"
        >
          <path
            id="Path_1967"
            d="M198.8-284.766a5.541,5.541,0,0,0,2.089.117,8.2,8.2,0,0,0,2.017-.507,12.133,12.133,0,0,0,3.52-2.239,15.55,15.55,0,0,0,2.747-3.176,18.133,18.133,0,0,0,1.854-3.741c.135-.322.221-.656.33-.984s.2-.661.275-1l.236-1,.178-1.011c.061-.337.118-.675.149-1.013s.077-.676.109-1.016c.05-.676.074-1.352.1-2.028a36.655,36.655,0,0,0-.8-7.963h0l-.007-.036a1.244,1.244,0,0,0-1.457-.986,1.278,1.278,0,0,0-.459.19L192.662-299.7l1.939,1.07c.016-.786-.011-1.5-.06-2.255a22.421,22.421,0,0,0-.256-2.237,14.359,14.359,0,0,0-.541-2.263,7.761,7.761,0,0,0-1.146-2.275,1.224,1.224,0,0,0-1.576-.327l-.005,0c-1.32.743-2.575,1.5-3.835,2.291s-2.493,1.6-3.715,2.445-2.428,1.707-3.612,2.606-2.343,1.838-3.486,2.8l1.619,1.889c1.1-.925,2.214-1.84,3.37-2.706s2.323-1.72,3.518-2.538,2.4-1.618,3.63-2.388,2.478-1.525,3.712-2.219l-1.581-.325a5.447,5.447,0,0,1,.746,1.528,11.993,11.993,0,0,1,.447,1.884,20.1,20.1,0,0,1,.228,2c.044.668.068,1.374.055,2.01v.013a1.245,1.245,0,0,0,1.219,1.27,1.239,1.239,0,0,0,.721-.212L211.076-309.1l-1.923-.833h0a56.588,56.588,0,0,1,.394,7.5,26.2,26.2,0,0,1-1.142,7.209,15.434,15.434,0,0,1-1.452,3.264,14.139,14.139,0,0,1-2.151,2.819,13.57,13.57,0,0,1-1.333,1.185c-.482.35-.962.709-1.465,1.048C201-286.205,199.971-285.54,198.8-284.766Z"
            transform="translate(-176.368 311.374)"
            fill="#371a45"
          />
        </g>
      </g>
      <g
        id="Group_3771"
        transform="translate(69.323 105.569)"
      >
        <path
          id="Path_1968"
          d="M192.06-207.7a9.072,9.072,0,0,0,1.7,4.169c1.318,2.008,3.118,3.813,4.328,3.813,1.309,0,3.144-1.873,4.438-3.926A8.909,8.909,0,0,0,204.1-207.7c0-4.406-2.7-7.981-6.02-7.981S192.06-212.1,192.06-207.7Z"
          transform="translate(-192.06 215.676)"
          fill="#371a45"
        />
      </g>
      <g
        id="Group_3772"
        transform="translate(70.961 116.96)"
      >
        <path
          id="Path_1969"
          d="M194.22-199.9c1.318,2.008,3.118,3.813,4.328,3.813,1.31,0,3.144-1.873,4.439-3.926a13.186,13.186,0,0,0-4.232-.645A12.786,12.786,0,0,0,194.22-199.9Z"
          transform="translate(-194.22 200.656)"
          fill="#ed2e7a"
        />
      </g>
      <g
        id="Group_3773"
        transform="translate(68.257 104.504)"
      >
        <path
          id="Path_1970"
          d="M197.742-198.987c3.662,0,7.088-6.22,7.088-9.046,0-4.988-3.179-9.046-7.088-9.046s-7.088,4.058-7.088,9.046C190.654-205.207,194.081-198.987,197.742-198.987Zm0-15.962c2.733,0,4.957,3.1,4.957,6.915,0,2.114-2.88,6.915-4.957,6.915s-4.957-4.8-4.957-6.915C192.785-211.847,195.009-214.949,197.742-214.949Z"
          transform="translate(-190.654 217.08)"
          fill="#371a45"
        />
      </g>
      <g
        id="Group_3774"
        transform="translate(66.996 104.687)"
      >
        <path
          id="Path_1971"
          d="M188.992-210.361c0,1.667,3.737,2.147,8.349,2.147s8.349-.48,8.349-2.147c0-1.161-1.816-3.849-4.475-5.373a7.815,7.815,0,0,0-3.873-1.105,7.634,7.634,0,0,0-3.51.908C190.973-214.455,188.992-211.574,188.992-210.361Z"
          transform="translate(-188.992 216.839)"
          fill="#f4c968"
        />
      </g>
      <g
        id="Group_3776"
        transform="translate(66.996 104.687)"
        opacity="0.6"
      >
        <g
          id="Group_3775"
          transform="translate(0)"
        >
          <path
            id="Path_1972"
            d="M205.286-209.52a10.96,10.96,0,0,0-4.072-4.107,7.817,7.817,0,0,0-3.873-1.105,7.643,7.643,0,0,0-3.51.907,10.957,10.957,0,0,0-4.435,4.3,1.119,1.119,0,0,1-.4-.842c0-1.213,1.981-4.093,4.839-5.57a7.634,7.634,0,0,1,3.51-.908,7.817,7.817,0,0,1,3.873,1.105c2.66,1.524,4.475,4.211,4.475,5.373A1.118,1.118,0,0,1,205.286-209.52Z"
            transform="translate(-188.992 216.839)"
            fill="#fff"
          />
        </g>
      </g>
      <g
        id="Group_3777"
        transform="translate(66.92 110.059)"
        opacity="0.3"
      >
        <path
          id="Path_1973"
          d="M189.02-208.65c0,1.668,3.736,2.148,8.347,2.148s8.35-.48,8.35-2.148c0-.429.147.625-.3-.084-1.287.823-4.626-1.021-8.05-1.021s-6.961,1.37-8.248.55C188.675-208.5,189.02-209.078,189.02-208.65Z"
          transform="translate(-188.892 209.755)"
          fill="#371a45"
        />
      </g>
      <g
        id="Group_3778"
        transform="translate(65.93 103.626)"
      >
        <path
          id="Path_1974"
          d="M197-207.487c4.655,0,9.415-.382,9.415-3.213,0-1.621-2.058-4.606-5.012-6.3a8.389,8.389,0,0,0-8.4-.219c-3.1,1.6-5.415,4.761-5.415,6.516C187.586-207.868,192.346-207.487,197-207.487Zm0-8.625a6.7,6.7,0,0,1,3.343.965c2.585,1.48,3.94,3.885,3.94,4.447-.017.033-.592,1.082-7.283,1.082-6.493,0-7.226-.987-7.283-1.087.008-.612,1.52-3.2,4.262-4.617A6.551,6.551,0,0,1,197-216.111Z"
          transform="translate(-187.586 218.238)"
          fill="#371a45"
        />
      </g>
      <g
        id="Group_3806"
        transform="translate(103.753 162.332)"
      >
        <g
          id="Group_3800"
          transform="translate(1.197 1.2)"
        >
          <path
            id="Path_1992"
            d="M131.78-110.339a6.863,6.863,0,0,1-8.555-7.172c.642-8.473,2.221-19.934,6.076-21.34,6.2-2.262,6.993,5.862,6.993,5.862a15.52,15.52,0,0,1,6.153-4.265,3.993,3.993,0,0,1,5.417,4.541,15.525,15.525,0,0,1-3.125,6.8s8.138-.638,6.993,5.862C151.02-116.008,140.01-112.452,131.78-110.339Z"
            transform="translate(-123.205 139.249)"
            fill="#f4c968"
          />
        </g>
        <g
          id="Group_3801"
          transform="translate(1.659 1.2)"
          opacity="0.7"
        >
          <path
            id="Path_1993"
            d="M152.2-131.414a4,4,0,0,0-5.448-3,15.515,15.515,0,0,0-6.152,4.266s-.793-8.125-6.993-5.863c-2.768,1.01-4.362,7.208-5.279,13.76.837-7.5,2.467-15.447,5.635-16.6,6.2-2.262,6.993,5.862,6.993,5.862a15.52,15.52,0,0,1,6.153-4.265,3.993,3.993,0,0,1,5.417,4.541C152.439-132.288,152.327-131.853,152.2-131.414Z"
            transform="translate(-128.33 139.249)"
            fill="#fff"
          />
        </g>
        <g
          id="Group_3802"
          transform="translate(1.197 1.349)"
          opacity="0.3"
        >
          <path
            id="Path_1994"
            d="M123.225-117.814c.63-8.3,2.161-19.473,5.85-21.238-2.738,2.632-3.93,11.583-4.446,18.379a6.114,6.114,0,0,0,7.622,6.389c7.332-1.882,17.14-5.051,17.774-8.651a5.007,5.007,0,0,0-.038-2.15c1.281.837,2.177,2.273,1.744,4.733-.712,4.041-11.721,7.6-19.952,9.71A6.863,6.863,0,0,1,123.225-117.814Z"
            transform="translate(-123.205 139.052)"
            fill="#371a45"
          />
        </g>
        <g
          id="Group_3803"
          transform="translate(0 0)"
        >
          <path
            id="Path_1995"
            d="M129.652-109.3a8.223,8.223,0,0,0,2.043-.261h0a92.121,92.121,0,0,0,12.969-4.191c4.894-2.1,7.466-4.214,7.863-6.471a5.662,5.662,0,0,0-1.2-5.037,7.7,7.7,0,0,0-4.734-2.14,17.825,17.825,0,0,0,2.055-5.449,5.134,5.134,0,0,0-1.739-5.071,5.134,5.134,0,0,0-5.3-.827,17.826,17.826,0,0,0-5.006,2.975,7.709,7.709,0,0,0-2.934-4.287,5.667,5.667,0,0,0-5.169-.3c-2.152.786-3.787,3.688-5,8.873a91.95,91.95,0,0,0-1.861,13.5,7.976,7.976,0,0,0,2.858,6.792A7.971,7.971,0,0,0,129.652-109.3Zm1.448-2.58a5.606,5.606,0,0,1-5.055-1.144,5.608,5.608,0,0,1-2.009-4.777c1.33-17.535,4.387-19.976,5.292-20.306a3.369,3.369,0,0,1,3.068.073c1.61,1.009,2.223,3.8,2.324,4.783a1.2,1.2,0,0,0,.839,1.025,1.2,1.2,0,0,0,1.27-.375,14.194,14.194,0,0,1,5.682-3.924,2.776,2.776,0,0,1,2.865.441,2.774,2.774,0,0,1,.934,2.742,14.179,14.179,0,0,1-2.871,6.28,1.2,1.2,0,0,0-.146,1.317,1.184,1.184,0,0,0,1.157.645c.988-.071,3.838.043,5.113,1.452a3.37,3.37,0,0,1,.607,3.009c-.167.949-2.036,4.384-19.07,8.757Z"
            transform="translate(-121.625 140.831)"
            fill="#371a45"
          />
        </g>
        <g
          id="Group_3804"
          transform="translate(16.9 13.535)"
        >
          <path
            id="Path_1996"
            d="M136.889-122.985a13.732,13.732,0,0,0-1.388,1.055c-.447.375-.874.782-1.3,1.186-.855.812-1.692,1.651-2.488,2.554,1.147-.362,2.254-.786,3.343-1.238.544-.228,1.088-.453,1.613-.709a13.73,13.73,0,0,0,1.527-.84Z"
            transform="translate(-131.711 122.985)"
            fill="#371a45"
          />
        </g>
        <g
          id="Group_3805"
          transform="translate(11.573 6.993)"
        >
          <path
            id="Path_1997"
            d="M143.864-131.611a13.776,13.776,0,0,0-.56,1.651c-.161.562-.287,1.138-.417,1.712-.254,1.152-.479,2.315-.634,3.509.749-.942,1.429-1.913,2.08-2.9.323-.492.648-.984.94-1.49a13.662,13.662,0,0,0,.8-1.551Z"
            transform="translate(-142.252 131.611)"
            fill="#371a45"
          />
        </g>
      </g>
      <g
        id="Group_3813"
        transform="translate(15.904 162.332)"
      >
        <g
          id="Group_3807"
          transform="translate(1.198 1.2)"
        >
          <path
            id="Path_1998"
            d="M259.1-110.339a6.863,6.863,0,0,0,8.555-7.172c-.642-8.473-2.221-19.934-6.076-21.34-6.2-2.262-6.993,5.862-6.993,5.862a15.52,15.52,0,0,0-6.153-4.265,3.993,3.993,0,0,0-5.417,4.541,15.525,15.525,0,0,0,3.125,6.8s-8.138-.638-6.993,5.862C239.858-116.008,250.868-112.452,259.1-110.339Z"
            transform="translate(-239.036 139.249)"
            fill="#f4c968"
          />
        </g>
        <g
          id="Group_3808"
          transform="translate(5.085 1.2)"
          opacity="0.7"
        >
          <path
            id="Path_1999"
            d="M240.06-131.414a4,4,0,0,1,5.448-3,15.515,15.515,0,0,1,6.152,4.266s.793-8.125,6.993-5.863c2.768,1.01,4.362,7.208,5.279,13.76-.837-7.5-2.467-15.447-5.635-16.6-6.2-2.262-6.993,5.862-6.993,5.862a15.52,15.52,0,0,0-6.153-4.265,3.993,3.993,0,0,0-5.417,4.541C239.825-132.288,239.936-131.853,240.06-131.414Z"
            transform="translate(-239.644 139.249)"
            fill="#fff"
          />
        </g>
        <g
          id="Group_3809"
          transform="translate(1.198 1.349)"
          opacity="0.3"
        >
          <path
            id="Path_2000"
            d="M267.653-117.814c-.63-8.3-2.161-19.473-5.85-21.238,2.738,2.632,3.93,11.583,4.446,18.379a6.114,6.114,0,0,1-7.622,6.389c-7.332-1.882-17.14-5.051-17.774-8.651a5.008,5.008,0,0,1,.038-2.15c-1.281.837-2.177,2.273-1.744,4.733.712,4.041,11.721,7.6,19.952,9.71A6.863,6.863,0,0,0,267.653-117.814Z"
            transform="translate(-239.036 139.052)"
            fill="#371a45"
          />
        </g>
        <g
          id="Group_3810"
          transform="translate(0 0)"
        >
          <path
            id="Path_2001"
            d="M260.462-109.3a7.968,7.968,0,0,0,5.145-1.89,7.976,7.976,0,0,0,2.858-6.792,91.946,91.946,0,0,0-1.861-13.5c-1.21-5.185-2.845-8.088-5-8.873a5.667,5.667,0,0,0-5.169.3,7.709,7.709,0,0,0-2.934,4.287,17.82,17.82,0,0,0-5.007-2.975,5.133,5.133,0,0,0-5.3.827,5.136,5.136,0,0,0-1.74,5.071,17.845,17.845,0,0,0,2.055,5.449,7.7,7.7,0,0,0-4.734,2.14,5.662,5.662,0,0,0-1.2,5.037c.4,2.257,2.969,4.374,7.863,6.471a92.122,92.122,0,0,0,12.969,4.191h0A8.223,8.223,0,0,0,260.462-109.3Zm-1.3-29.135a4.778,4.778,0,0,1,1.625.327c.906.33,3.962,2.77,5.292,20.306a5.608,5.608,0,0,1-2.009,4.777,5.611,5.611,0,0,1-5.055,1.144c-17.033-4.373-18.9-7.809-19.07-8.757a3.37,3.37,0,0,1,.607-3.009c1.275-1.409,4.125-1.527,5.116-1.452a1.2,1.2,0,0,0,1.155-.648,1.2,1.2,0,0,0-.146-1.315,14.187,14.187,0,0,1-2.871-6.28,2.774,2.774,0,0,1,.934-2.742,2.777,2.777,0,0,1,2.864-.441,14.191,14.191,0,0,1,5.683,3.924,1.2,1.2,0,0,0,1.271.375,1.2,1.2,0,0,0,.838-1.027c.1-.986.713-3.772,2.323-4.781A2.655,2.655,0,0,1,259.162-138.435Z"
            transform="translate(-237.457 140.831)"
            fill="#371a45"
          />
        </g>
        <g
          id="Group_3811"
          transform="translate(7.65 13.535)"
        >
          <path
            id="Path_2002"
            d="M259.74-120.977a13.727,13.727,0,0,0,1.527.84c.525.256,1.069.482,1.613.709,1.089.451,2.2.876,3.343,1.238-.8-.9-1.633-1.741-2.488-2.554-.428-.4-.856-.811-1.3-1.186a13.732,13.732,0,0,0-1.388-1.055Z"
            transform="translate(-259.74 122.985)"
            fill="#371a45"
          />
        </g>
        <g
          id="Group_3812"
          transform="translate(15.644 6.993)"
        >
          <path
            id="Path_2003"
            d="M252.716-130.677a13.657,13.657,0,0,0,.8,1.551c.292.506.617,1,.94,1.49.651.984,1.33,1.954,2.08,2.9-.155-1.194-.38-2.357-.634-3.509-.13-.574-.256-1.15-.417-1.712a13.766,13.766,0,0,0-.56-1.651Z"
            transform="translate(-252.716 131.611)"
            fill="#371a45"
          />
        </g>
      </g>
      <g
        id="Group_3818"
        transform="translate(92.929 121.414)"
      >
        <g
          id="Group_3814"
          transform="translate(1.239 1.243)"
        >
          <path
            id="Path_2004"
            d="M154.4-192.265a4.414,4.414,0,0,1,6.4,1.217c3.062,5.013,6.627,14.361-.953,23.884-6.111,7.678-14.937,11.973-21.668,14.287a5.815,5.815,0,0,1-7.423-7.322A66.32,66.32,0,0,1,154.4-192.265Z"
            transform="translate(-130.449 193.144)"
            fill="#6fa3d2"
            stroke="#371a45"
            stroke-miterlimit="10"
            stroke-width="0"
          />
        </g>
        <g
          id="Group_3815"
          transform="translate(1.239 10.86)"
          opacity="0.3"
        >
          <path
            id="Path_2005"
            d="M130.857-157.77a5.816,5.816,0,0,0,6.971,2.629c6.732-2.314,15.557-6.608,21.668-14.286a19.441,19.441,0,0,0,4.487-11.037c.949,4.682.4,10.315-4.131,16.013-6.111,7.678-14.937,11.973-21.668,14.287a5.815,5.815,0,0,1-7.423-7.322C130.791-157.579,130.825-157.676,130.857-157.77Z"
            transform="translate(-130.45 180.464)"
            fill="#371a45"
          />
        </g>
        <g
          id="Group_3816"
          transform="translate(1.239 1.243)"
          opacity="0.6"
        >
          <path
            id="Path_2006"
            d="M160.64-189.489a66.314,66.314,0,0,0-24.877,31.119,5.681,5.681,0,0,0-.072,3.916,5.705,5.705,0,0,1-1.225-5.744,66.32,66.32,0,0,1,23.644-32.067,4.414,4.414,0,0,1,6.4,1.217c.252.413.507.859.76,1.328A4.421,4.421,0,0,0,160.64-189.489Z"
            transform="translate(-134.157 193.144)"
            fill="#fff"
          />
        </g>
        <g id="Group_3817">
          <path
            id="Path_2007"
            d="M135.862-151.706a7.127,7.127,0,0,0,2.32-.391c6.623-2.276,15.857-6.673,22.237-14.688,8.124-10.207,4.14-20.237,1.041-25.308a5.641,5.641,0,0,0-3.741-2.589,5.687,5.687,0,0,0-4.466,1.024h0a67.487,67.487,0,0,0-24.078,32.668,6.989,6.989,0,0,0,1.719,7.225A7.037,7.037,0,0,0,135.862-151.706Zm20.785-40.59a3.174,3.174,0,0,1,.6.058,3.107,3.107,0,0,1,2.088,1.443c3.37,5.517,5.957,13.891-.865,22.461-6.007,7.546-14.789,11.716-21.1,13.884a4.505,4.505,0,0,1-4.726-1.082,4.461,4.461,0,0,1-1.113-4.669,65.011,65.011,0,0,1,23.208-31.465A3.184,3.184,0,0,1,156.647-192.3Z"
            transform="translate(-128.806 194.783)"
            fill="#371a45"
          />
        </g>
      </g>
      <g
        id="Group_3821"
        transform="translate(89.24 91.205)"
      >
        <g
          id="Group_3819"
          transform="translate(0 0)"
        >
          <ellipse
            id="Ellipse_107"
            cx="8.645"
            cy="6.093"
            rx="8.645"
            ry="6.093"
            transform="matrix(-0.098, -0.995, 0.995, -0.098, 1.689, 18.397)"
            fill="#371a45"
          />
        </g>
        <g
          id="Group_3820"
          transform="translate(3.111 4.927)"
        >
          <ellipse
            id="Ellipse_108"
            cx="2.903"
            cy="1.841"
            rx="2.903"
            ry="1.841"
            transform="matrix(-0.098, -0.995, 0.995, -0.098, 0.567, 6.138)"
            fill="#fff"
          />
        </g>
      </g>
      <g
        id="Group_3822"
        transform="translate(45.82 95.729)"
      >
        <path
          id="Path_2008"
          d="M220.541-227.4a30.767,30.767,0,0,1,3.294,1.139,20.735,20.735,0,0,1,2.985,1.534c.474.279.9.611,1.347.922l.62.517c.1.089.212.166.309.259l.287.281a14.813,14.813,0,0,1,2.067,2.461l1.979-2.268c-.1-.043-.169-.066-.24-.092s-.14-.05-.207-.071c-.134-.042-.269-.085-.4-.118-.265-.076-.528-.132-.791-.19a12.682,12.682,0,0,0-1.585-.218,11.914,11.914,0,0,0-3.163.177,10.972,10.972,0,0,0-2.965,1,10.683,10.683,0,0,0-2.5,1.75.542.542,0,0,0-.038.766.543.543,0,0,0,.57.152l.061-.02c.447-.146.86-.334,1.293-.465a13.253,13.253,0,0,1,1.291-.344,11.832,11.832,0,0,1,2.572-.309,12.037,12.037,0,0,1,2.529.2c.208.034.412.086.617.127l.605.157c.2.06.4.117.585.187.1.032.187.068.277.1.047.017.091.033.129.051l.093.039.035.015a1.569,1.569,0,0,0,2.061-.825,1.583,1.583,0,0,0-.117-1.457,14.186,14.186,0,0,0-2.554-3.163,13.824,13.824,0,0,0-1.59-1.271,14.686,14.686,0,0,0-1.765-.981,13.7,13.7,0,0,0-3.785-1.156,11.767,11.767,0,0,0-3.906.03.546.546,0,0,0-.435.638.548.548,0,0,0,.385.423Z"
          transform="translate(-220.092 228.651)"
          fill="#371a45"
        />
      </g>
      <g
        id="Group_3823"
        transform="translate(32.904 11.861)"
      >
        <path
          id="Path_2009"
          d="M143.241-287.2h85.487a56.776,56.776,0,0,0-2.156-9.408c-3.584-11.645-12.794-31.2-35.527-41.529a12.222,12.222,0,0,0-10.123,0C147.2-322.812,143.241-287.2,143.241-287.2Z"
          transform="translate(-143.241 339.233)"
          fill="#ee97c0"
        />
      </g>
      <g
        id="Group_3824"
        transform="translate(32.904 20.303)"
        opacity="0.2"
      >
        <path
          id="Path_2010"
          d="M145.4-293.918a44.112,44.112,0,0,1,4.844-2.621,30.036,30.036,0,0,0,14.533-14.671,80.337,80.337,0,0,1,10.9-16.892,68.411,68.411,0,0,0-6.557,18.037,5.953,5.953,0,0,0,6.367,7.184l.137-.013a5.961,5.961,0,0,0,5.406-5.481c.736-9.88,3.185-16.079,4.344-18.529a.683.683,0,0,1,1.235,0c1.159,2.45,3.609,8.649,4.344,18.529a5.96,5.96,0,0,0,5.405,5.482l.134.012a5.953,5.953,0,0,0,6.367-7.184A68.411,68.411,0,0,0,196.3-328.1a80.336,80.336,0,0,1,10.9,16.892,30.033,30.033,0,0,0,14.533,14.671,44.114,44.114,0,0,1,4.844,2.621,56.776,56.776,0,0,1,2.156,9.408H143.241A56.774,56.774,0,0,1,145.4-293.918Z"
          transform="translate(-143.241 328.102)"
          fill="#371a45"
        />
      </g>
      <g
        id="Group_3825"
        transform="translate(32.904 11.861)"
        opacity="0.6"
      >
        <path
          id="Path_2011"
          d="M226.572-293.123c-3.584-11.645-12.794-31.2-35.527-41.529a12.222,12.222,0,0,0-10.123,0c-27.3,12.408-35.1,38.12-37.074,47.453h-.608s3.964-35.614,37.682-50.937a12.222,12.222,0,0,1,10.123,0c22.733,10.332,31.942,29.884,35.527,41.529a56.776,56.776,0,0,1,2.156,9.408h-.609C227.788-288.761,227.294-290.781,226.572-293.123Z"
          transform="translate(-143.241 339.233)"
          fill="#fff"
        />
      </g>
      <g
        id="Group_3826"
        transform="translate(31.658 10.617)"
      >
        <path
          id="Path_2012"
          d="M142.843-286.352h85.491a1.247,1.247,0,0,0,.928-.414,1.243,1.243,0,0,0,.309-.967,68.411,68.411,0,0,0-6.312-20.125,65.738,65.738,0,0,0-32.093-31.808,13.477,13.477,0,0,0-11.152,0,65.735,65.735,0,0,0-32.093,31.808,68.428,68.428,0,0,0-6.313,20.125,1.244,1.244,0,0,0,.309.967A1.246,1.246,0,0,0,142.843-286.352Zm84.046-2.488h-82.6a70.528,70.528,0,0,1,5.911-18.022A63.269,63.269,0,0,1,181.042-337.4a10.988,10.988,0,0,1,9.093,0,63.281,63.281,0,0,1,30.881,30.622A70.3,70.3,0,0,1,226.888-288.839Z"
          transform="translate(-141.599 340.873)"
          fill="#371a45"
        />
      </g>
      <g
        id="Group_3827"
        transform="translate(85.961 20.303)"
      >
        <path
          id="Path_2013"
          d="M168.139-328.1c1.21,2.018,2.434,3.979,3.637,5.951s2.382,3.945,3.531,5.935,2.247,4.007,3.3,6.053c.263.512.521,1.027.8,1.537l.755,1.56.392.778c.119.264.236.529.363.792.246.527.5,1.055.768,1.58-.093-.579-.207-1.154-.327-1.73-.056-.289-.12-.576-.187-.863l-.234-.849c-.159-.566-.331-1.128-.5-1.692-.189-.557-.4-1.107-.6-1.66a45.927,45.927,0,0,0-3.015-6.373,48.314,48.314,0,0,0-3.887-5.87c-.363-.463-.734-.917-1.106-1.37-.389-.441-.77-.887-1.164-1.322A27.633,27.633,0,0,0,168.139-328.1Z"
          transform="translate(-168.139 328.102)"
          fill="#371a45"
        />
      </g>
      <g
        id="Group_3828"
        transform="translate(51.788 20.303)"
      >
        <path
          id="Path_2014"
          d="M226.746-328.1a27.736,27.736,0,0,0-2.532,2.455c-.394.435-.774.88-1.163,1.322-.372.454-.744.908-1.106,1.37a48.408,48.408,0,0,0-3.888,5.87,45.845,45.845,0,0,0-3.014,6.373c-.2.554-.407,1.1-.6,1.66-.171.564-.344,1.126-.5,1.692l-.234.849c-.067.287-.13.574-.187.863-.12.576-.234,1.151-.327,1.73.271-.525.523-1.053.768-1.58.127-.262.243-.528.362-.792l.393-.778.755-1.56c.276-.51.534-1.025.8-1.537,1.057-2.045,2.145-4.068,3.3-6.053s2.331-3.963,3.532-5.935S225.535-326.084,226.746-328.1Z"
          transform="translate(-213.198 328.102)"
          fill="#371a45"
        />
      </g>
      <g
        id="Group_3829"
        transform="translate(74.587 21.049)"
      >
        <path
          id="Path_2015"
          d="M199.275-327.118a40.118,40.118,0,0,0-.889,6.245c-.146,2.081-.188,4.162-.154,6.244s.11,4.163.27,6.244c.078,1.041.175,2.082.3,3.122s.265,2.081.469,3.122c.2-1.041.343-2.082.469-3.122s.226-2.081.3-3.122c.161-2.081.243-4.162.271-6.244s-.008-4.163-.155-6.244A40.2,40.2,0,0,0,199.275-327.118Z"
          transform="translate(-198.221 327.118)"
          fill="#371a45"
        />
      </g>
      <g
        id="Group_3832"
        transform="translate(28.343 48.641)"
      >
        <g
          id="Group_3830"
          transform="translate(0.173 0.175)"
        >
          <path
            id="Path_2016"
            d="M184.587-290.506c-17.111,0-29.126,4.006-36.172,7.348a19.167,19.167,0,0,0-10,23.285c.089.271.144.419.144.419,16.571-9.555,46.03-9.405,46.03-9.405s29.459-.149,46.03,9.405c0,0,.055-.148.144-.419a19.168,19.168,0,0,0-10-23.285C213.712-286.5,201.7-290.506,184.587-290.506Z"
            transform="translate(-137.454 290.506)"
            fill="#ee97c0"
          />
        </g>
        <g id="Group_3831">
          <path
            id="Path_2017"
            d="M230.653-259.254l.073-.195s.055-.149.146-.425a19.361,19.361,0,0,0-10.093-23.5c-7.084-3.36-19.124-7.365-36.248-7.365s-29.163,4.005-36.248,7.365a19.361,19.361,0,0,0-10.093,23.5c.091.275.146.425.146.425l.073.195.18-.1c16.339-9.42,45.649-9.379,45.941-9.381s29.6-.04,45.943,9.381Zm-46.163-9.837c-1.243,0-29.717.121-45.893,9.324-.02-.06-.045-.132-.073-.217a19.009,19.009,0,0,1,9.91-23.071c7.051-3.344,19.038-7.331,36.1-7.331s29.046,3.987,36.1,7.331a19.009,19.009,0,0,1,9.91,23.071c-.028.085-.052.157-.073.217-16.458-9.364-45.643-9.321-45.935-9.324Z"
            transform="translate(-137.226 290.737)"
            fill="#371a45"
          />
        </g>
      </g>
      <g
        id="Group_3833"
        transform="translate(28.519 64.541)"
        opacity="0.3"
      >
        <path
          id="Path_2018"
          d="M138.414-260.786c.089.271.144.419.144.419,16.571-9.555,46.03-9.405,46.03-9.405s29.459-.149,46.03,9.405c0,0,.055-.148.144-.419a19.2,19.2,0,0,0,.722-3.006,19.029,19.029,0,0,1-.722,8.928c-.089.271-.144.419-.144.419-16.571-9.555-46.03-9.405-46.03-9.405s-29.459-.149-46.03,9.405c0,0-.055-.148-.144-.419a19.029,19.029,0,0,1-.722-8.928A19.117,19.117,0,0,0,138.414-260.786Z"
          transform="translate(-137.458 269.772)"
          fill="#371a45"
        />
      </g>
      <g
        id="Group_3834"
        transform="translate(28.518 48.816)"
        opacity="0.6"
      >
        <path
          id="Path_2019"
          d="M148.415-283.158c7.046-3.342,19.061-7.348,36.172-7.348s29.126,4.006,36.172,7.348A19.183,19.183,0,0,1,231.638-264.1a19.187,19.187,0,0,0-10.879-15.575,78.163,78.163,0,0,0-24.957-6.744,1.778,1.778,0,0,0-1.369.4c-1.305,1.143-5.219,1.973-9.847,1.973s-8.541-.83-9.847-1.973a1.778,1.778,0,0,0-1.369-.4,78.163,78.163,0,0,0-24.957,6.744A19.184,19.184,0,0,0,137.537-264.1,19.183,19.183,0,0,1,148.415-283.158Z"
          transform="translate(-137.457 290.506)"
          fill="#fff"
        />
      </g>
      <g
        id="Group_3835"
        transform="translate(27.274 47.573)"
      >
        <path
          id="Path_2020"
          d="M138.163-258.607a1.231,1.231,0,0,0,.62-.166c16.085-9.274,45.105-9.234,45.4-9.238.312-.006,29.33-.036,45.414,9.238a1.241,1.241,0,0,0,1.042.092,1.245,1.245,0,0,0,.746-.736s.061-.163.16-.464a20.431,20.431,0,0,0-10.65-24.8c-7.183-3.407-19.382-7.468-36.705-7.468s-29.522,4.061-36.705,7.468a20.431,20.431,0,0,0-10.65,24.8c.1.3.16.464.16.464a1.246,1.246,0,0,0,.746.736A1.24,1.24,0,0,0,138.163-258.607Zm46.028-31.05c16.86,0,28.687,3.93,35.639,7.228a17.945,17.945,0,0,1,9.655,20.753c-16.826-8.862-44.113-8.83-45.3-8.823-1.17,0-28.461-.039-45.287,8.823a17.945,17.945,0,0,1,9.655-20.753C155.5-285.728,167.331-289.658,184.191-289.658Z"
          transform="translate(-135.818 292.146)"
          fill="#371a45"
        />
      </g>
      <g
        id="Group_3838"
        transform="translate(65.62 1.069)"
      >
        <g
          id="Group_3836"
          transform="translate(0.176 0.176)"
        >
          <ellipse
            id="Ellipse_109"
            cx="9.853"
            cy="7.128"
            rx="9.853"
            ry="7.128"
            fill="#ee97c0"
          />
        </g>
        <g
          id="Group_3837"
          transform="translate(0)"
        >
          <path
            id="Path_2021"
            d="M196.406-338.855c5.53,0,10.029-3.276,10.029-7.3s-4.5-7.3-10.029-7.3-10.029,3.276-10.029,7.3S190.876-338.855,196.406-338.855Zm0-14.257c5.336,0,9.677,3.119,9.677,6.952s-4.341,6.953-9.677,6.953-9.677-3.119-9.677-6.953S191.069-353.112,196.406-353.112Z"
            transform="translate(-186.377 353.463)"
            fill="#371a45"
          />
        </g>
      </g>
      <g
        id="Group_3839"
        transform="translate(65.796 6.805)"
        opacity="0.2"
      >
        <path
          id="Path_2022"
          d="M196.462-340.338c4.7,0,8.623-2.378,9.611-5.561a5.255,5.255,0,0,1,.242,1.567c0,3.937-4.411,7.128-9.853,7.128s-9.853-3.191-9.853-7.128a5.254,5.254,0,0,1,.242-1.567C187.838-342.717,191.765-340.338,196.462-340.338Z"
          transform="translate(-186.609 345.899)"
          fill="#371a45"
        />
      </g>
      <g
        id="Group_3840"
        transform="translate(65.796 1.244)"
        opacity="0.6"
      >
        <path
          id="Path_2023"
          d="M196.462-350.794c-4.867,0-8.907,2.554-9.706,5.91a5.231,5.231,0,0,1-.146-1.22c0-3.936,4.411-7.128,9.853-7.128s9.853,3.192,9.853,7.128a5.229,5.229,0,0,1-.146,1.22C205.368-348.24,201.328-350.794,196.462-350.794Z"
          transform="translate(-186.609 353.232)"
          fill="#fff"
        />
      </g>
      <g
        id="Group_3841"
        transform="translate(64.551)"
      >
        <path
          id="Path_2024"
          d="M196.065-338.127c6.119,0,11.1-3.756,11.1-8.373s-4.978-8.372-11.1-8.372-11.1,3.756-11.1,8.372S189.946-338.127,196.065-338.127Zm0-14.257c4.747,0,8.609,2.639,8.609,5.884s-3.862,5.885-8.609,5.885-8.609-2.64-8.609-5.885S191.318-352.384,196.065-352.384Z"
          transform="translate(-184.968 354.872)"
          fill="#371a45"
        />
      </g>
    </g>
  </g>
</g>
</svg>
