<svg
  xmlns="http://www.w3.org/2000/svg"
  width="457.058"
  height="299.944"
  viewBox="0 0 457.058 299.944"
>
  <ellipse
    cx="100"
    cy="13.304"
    rx="100"
    ry="13.304"
    transform="translate(0 273.337)"
    fill="#371a45"
    opacity=".3"
  />
  <path
    d="M144.211 208.169a5.819 5.819 0 0 0 1.189 8.506c6.4 4.362 18.478 9.669 31.516.31 10.512-7.545 16.745-18.886 20.234-27.6a7.667 7.667 0 0 0-9.156-10.255c-11.517 3.227-28.754 10.883-43.783 29.039Z"
    fill="#6fa3d2"
  />
  <path
    d="M187.609 179.242a7.67 7.67 0 0 1 3.006 9.352c-3.489 8.713-9.722 20.054-20.234 27.6a25.636 25.636 0 0 1-14.828 5.185c6.1 1.556 13.558 1.208 21.358-4.391 10.512-7.545 16.745-18.886 20.234-27.6a7.667 7.667 0 0 0-9.156-10.255Z"
    fill="#371a45"
    opacity=".3"
  />
  <path
    d="M147.7 211.682c14.308-18.728 31.234-27.051 42.611-30.722a7.5 7.5 0 0 1 5.162.162 7.524 7.524 0 0 0-7.485-1.989c-11.512 3.224-28.749 10.88-43.778 29.036a5.819 5.819 0 0 0 1.19 8.506c.527.36 1.1.725 1.7 1.089a5.829 5.829 0 0 1 .6-6.082Z"
    fill="#fff"
    opacity=".6"
  />
  <path
    d="M161.8 223.823c-7.306 0-13.464-3.16-17.324-5.79a7.439 7.439 0 0 1-3.164-5.1 7.49 7.49 0 0 1 1.64-5.814l1.264 1.046-1.264-1.046c15.211-18.376 32.649-26.223 44.6-29.57a9.219 9.219 0 0 1 9.4 2.739 9.276 9.276 0 0 1 1.719 9.706c-3.432 8.573-9.827 20.446-20.8 28.321a27.144 27.144 0 0 1-16.071 5.508Zm28.3-43.343a6.154 6.154 0 0 0-1.669.233c-11.5 3.22-28.286 10.779-42.956 28.5a4.2 4.2 0 0 0-.92 3.262 4.1 4.1 0 0 0 1.763 2.845c7.045 4.8 17.9 8.754 29.636.333 10.331-7.415 16.4-18.709 19.668-26.876a5.944 5.944 0 0 0-1.115-6.3 5.878 5.878 0 0 0-4.407-1.997Z"
    fill="#371a45"
  />
  <path
    d="M164.452 224.739c0 62.366-64.452 59.925-64.452 59.925s-64.452 2.441-64.452-59.925a76 76 0 0 1 2.3-19.08 59.093 59.093 0 0 1 22.463-33.313q.725-.542 1.453-1.054a66.533 66.533 0 0 1 76.473 0c13.879 9.783 26.215 26.161 26.215 53.447Z"
    fill="#6fa3d2"
  />
  <path
    d="M137.611 181.868q-.325-.461-.652-.911c-18.163-25.056-55.755-25.056-73.918 0q-.321.442-.641.9a72.773 72.773 0 0 0-13.412 48.241c1.722 19.777 12.183 42.377 51.012 42.377 39.692 0 49.741-23.621 51.114-43.7a72.805 72.805 0 0 0-13.503-46.907Z"
    fill="#fff"
  />
  <path
    d="M100 267.322s-58.318 2.207-64-51.261a83.325 83.325 0 0 0-.449 8.679c0 62.367 64.453 59.923 64.453 59.923s64.453 2.444 64.453-59.923a83.325 83.325 0 0 0-.449-8.679C158.318 269.529 100 267.322 100 267.322ZM139.682 172.346l-39.687-2.507-39.687 2.507a59.093 59.093 0 0 0-22.463 33.313c11.932 5 31.846 10.4 62.15 10.4s50.219-5.4 62.151-10.4a59.1 59.1 0 0 0-22.464-33.313Z"
    fill="#371a45"
    opacity=".3"
  />
  <path
    d="M101.169 286.32c-.6 0-.993-.01-1.169-.016-1.916.064-30.4.676-49.516-17.729-11-10.591-16.578-25.339-16.578-43.835 0-23.762 9.054-42.195 26.91-54.787l.945 1.34-.945-1.34a68.126 68.126 0 0 1 78.364 0c17.859 12.591 26.914 31.025 26.914 54.788 0 18.5-5.578 33.244-16.578 43.835-17.364 16.717-42.454 17.744-48.347 17.744Zm-1.169-3.3h.061c.288.009 28.85.853 47.2-16.829 10.322-9.948 15.555-23.9 15.555-41.455 0-22.635-8.587-40.166-25.524-52.107a64.837 64.837 0 0 0-74.582 0c-16.934 11.942-25.52 29.473-25.52 52.106 0 17.56 5.233 31.507 15.555 41.455 18.346 17.681 46.91 16.839 47.2 16.829Z"
    fill="#371a45"
  />
  <path
    d="M161.18 191.632c-10.245 12.354-31.822 17.022-61.18 17.022s-50.935-4.668-61.18-17.022-3.164-22.093-3.164-22.093q-.071-1.813-.1-3.571c-.483-36.59 15.114-55.833 31.087-65.943A62.336 62.336 0 0 1 100 90.385a62.336 62.336 0 0 1 33.355 9.64c16.484 10.433 32.568 30.6 30.989 69.514 0 0 7.077 9.736-3.164 22.093Z"
    fill="#fff"
  />
  <path
    d="M133.355 100.025A62.336 62.336 0 0 0 100 90.385a62.336 62.336 0 0 0-33.355 9.64c-15.973 10.11-31.57 29.353-31.087 65.943l.863-.464a18.819 18.819 0 0 0 9.652-13.317c2.081-11.87 7.985-31.662 24.228-31.662 23.2 0 18.353 57.314 18.353 57.314L100 180.131l11.342-2.292s-4.842-57.314 18.358-57.314c16.243 0 22.147 19.792 24.228 31.662a18.819 18.819 0 0 0 9.652 13.317l.863.464c.482-36.593-15.115-55.833-31.088-65.943Z"
    fill="#6fa3d2"
  />
  <path
    d="M161.18 181.321c-10.245 12.354-31.822 17.022-61.18 17.022s-50.935-4.667-61.18-17.022a24.511 24.511 0 0 1-4.741-8.434c-1.262 3.877-1.876 10.763 4.741 18.745 10.245 12.354 31.822 17.022 61.18 17.022s50.935-4.668 61.18-17.022c6.617-7.982 6-14.868 4.741-18.745a24.51 24.51 0 0 1-4.741 8.434Z"
    fill="#371a45"
    opacity=".3"
  />
  <g opacity=".7">
    <path
      d="M66.645 104.712A62.336 62.336 0 0 1 100 95.075a62.336 62.336 0 0 1 33.355 9.64c15.38 9.735 30.411 27.942 31.071 61.951.691-37.04-15-56.465-31.071-66.638A62.336 62.336 0 0 0 100 90.385a62.336 62.336 0 0 0-33.355 9.64c-15.973 10.11-31.57 29.353-31.087 65.943 0 .253.011.51.016.765.644-34.05 15.68-52.28 31.071-62.021Z"
      fill="#fff"
    />
    <path
      d="m35.343 166.738-.017-.767c-.221-16.757 2.942-31.229 9.4-43.016A62.869 62.869 0 0 1 66.52 99.83 62.488 62.488 0 0 1 100 90.153a62.488 62.488 0 0 1 33.479 9.677 62.844 62.844 0 0 1 21.9 23.328c6.473 11.913 9.594 26.551 9.278 43.51h-.457c-.55-28.325-10.968-49.1-30.964-61.76A62.025 62.025 0 0 0 100 95.303a62.025 62.025 0 0 0-33.231 9.605c-20.01 12.664-30.427 33.467-30.963 61.829ZM100 90.617a62.033 62.033 0 0 0-33.231 9.6c-18.2 11.521-28.684 30.534-30.651 55.364a76.935 76.935 0 0 1 9.26-29.094 62.886 62.886 0 0 1 21.143-21.975A62.5 62.5 0 0 1 100 94.84a62.5 62.5 0 0 1 33.479 9.676 62.892 62.892 0 0 1 21.133 21.954 76.834 76.834 0 0 1 9.262 29.033c-2.451-30.893-17.609-47.033-30.643-55.282A62.033 62.033 0 0 0 100 90.617Z"
      fill="#371a45"
    />
  </g>
  <path
    d="M100 210.295c-32.186 0-52.611-5.763-62.441-17.617-9.565-11.534-4.922-21.258-3.56-23.58-.657-17.831 2.345-33.223 8.925-45.76a64.265 64.265 0 0 1 22.841-24.7 64.292 64.292 0 0 1 68.47 0 64.255 64.255 0 0 1 22.84 24.7c6.581 12.537 9.583 27.929 8.926 45.76 1.362 2.322 6.005 12.046-3.56 23.58-9.83 11.854-30.255 17.617-62.441 17.617Zm0-118.249a60.7 60.7 0 0 0-32.48 9.367c-21.341 13.509-31.509 36.406-30.223 68.057a1.64 1.64 0 0 1-.312 1.031c-.251.353-6.154 8.925 3.1 20.083 9.168 11.056 28.767 16.43 59.916 16.43s50.748-5.374 59.916-16.43c9.253-11.158 3.35-19.73 3.094-20.089a1.665 1.665 0 0 1-.307-1.025c1.286-31.651-8.882-54.548-30.223-68.057A60.72 60.72 0 0 0 100 92.046Z"
    fill="#371a45"
  />
  <path
    d="m120.954 95.737-3.285 1.847a.165.165 0 0 1-.038.018L94.31 110.683s-20.288-2.507-15.264-33.44l22.444 15.115a33.476 33.476 0 0 1 .3-4.982 12.933 12.933 0 0 1 2-5.868s8.367 6.693 17.164 14.229Z"
    fill="#6fa3d2"
  />
  <path
    d="m94.357 110.922-.075-.009a18.553 18.553 0 0 1-11.39-7.2c-4.57-6.1-5.941-15.012-4.075-26.5l.058-.357 22.379 15.071a34.675 34.675 0 0 1 .3-4.576 12.765 12.765 0 0 1 2.043-5.978l.144-.185.184.146c.084.067 8.479 6.782 17.178 14.234l.251.216Zm-15.14-33.284c-1.759 11.184-.4 19.857 4.039 25.785a18.161 18.161 0 0 0 11.01 7.019l26.286-14.745a749.9 749.9 0 0 0-16.727-13.858 12.892 12.892 0 0 0-1.81 5.569 33.552 33.552 0 0 0-.293 4.943l.013.451Z"
    fill="#371a45"
  />
  <g opacity=".7">
    <path
      d="M94.31 110.683s-20.288-2.507-15.264-33.44l22.444 15.115-16.933-6.351a1.024 1.024 0 0 0-1.382.929c-.444 16.252 11.135 23.747 11.135 23.747Z"
      fill="#fff"
    />
    <path
      d="m95.281 111.036-1-.123a18.553 18.553 0 0 1-11.39-7.2c-4.57-6.1-5.941-15.012-4.075-26.5l.058-.357 24.38 16.418-18.779-7.043a.787.787 0 0 0-.721.085.78.78 0 0 0-.349.633 27.887 27.887 0 0 0 11.03 23.546Zm-16.064-33.4c-1.76 11.189-.4 19.866 4.046 25.793a18.434 18.434 0 0 0 10.073 6.815 28.626 28.626 0 0 1-10.393-23.317 1.237 1.237 0 0 1 .554-1 1.244 1.244 0 0 1 1.142-.135l15.087 5.659Z"
      fill="#371a45"
    />
  </g>
  <g opacity=".7">
    <path
      d="m120.954 95.737-3.285 1.847a.165.165 0 0 1-.038.018 40.161 40.161 0 0 0-15.845-10.227 12.933 12.933 0 0 1 2-5.868s8.371 6.694 17.168 14.23Z"
      fill="#fff"
    />
    <path
      d="m117.558 97.869-.1-.113a40.278 40.278 0 0 0-15.745-10.16l-.183-.061.026-.191a12.765 12.765 0 0 1 2.043-5.978l.144-.185.184.146c.084.067 8.479 6.782 17.178 14.234l.251.216-3.654 2.046Zm-15.516-10.652a40.905 40.905 0 0 1 15.639 10.1l2.871-1.616a751.17 751.17 0 0 0-16.727-13.859 12.637 12.637 0 0 0-1.783 5.375Z"
      fill="#371a45"
    />
  </g>
  <path
    d="M94.309 110.685a7.306 7.306 0 0 1-2.755.154 10.815 10.815 0 0 1-2.66-.669 16 16 0 0 1-4.641-2.952 20.5 20.5 0 0 1-3.622-4.187 23.908 23.908 0 0 1-2.445-4.933c-.178-.425-.292-.865-.435-1.3s-.27-.872-.363-1.315l-.311-1.324-.235-1.333c-.08-.445-.155-.89-.2-1.336s-.1-.892-.144-1.339c-.066-.891-.1-1.783-.13-2.674a48.331 48.331 0 0 1 1.052-10.5l.009-.048a1.641 1.641 0 0 1 1.921-1.3 1.685 1.685 0 0 1 .605.25l22.446 15.115-2.556 1.411a34.208 34.208 0 0 1 .079-2.973 29.567 29.567 0 0 1 .337-2.95 18.931 18.931 0 0 1 .713-2.984 10.233 10.233 0 0 1 1.511-3 1.614 1.614 0 0 1 2.078-.431h.007c1.74.979 3.4 1.979 5.057 3.021s3.287 2.116 4.9 3.224 3.2 2.251 4.763 3.436 3.089 2.423 4.6 3.69l-2.135 2.491c-1.451-1.22-2.919-2.426-4.444-3.568s-3.063-2.268-4.639-3.346-3.168-2.134-4.786-3.149-3.267-2.011-4.9-2.926l2.085-.428a7.18 7.18 0 0 0-.984 2.015 15.813 15.813 0 0 0-.589 2.484 26.5 26.5 0 0 0-.3 2.638c-.058.881-.09 1.812-.073 2.65v.017a1.642 1.642 0 0 1-1.607 1.674 1.634 1.634 0 0 1-.95-.28L78.122 78.596l2.536-1.1a74.616 74.616 0 0 0-.519 9.891 34.539 34.539 0 0 0 1.506 9.505 20.347 20.347 0 0 0 1.914 4.3 18.641 18.641 0 0 0 2.836 3.717 17.891 17.891 0 0 0 1.757 1.563c.636.461 1.268.935 1.931 1.382 1.326.933 2.686 1.81 4.226 2.831ZM107.94 181.822c0 1.4-.942 3.522-2.235 5.5-1.738 2.647-4.111 5.027-5.707 5.027-1.726 0-4.145-2.469-5.852-5.177a11.747 11.747 0 0 1-2.086-5.347c0-5.809 3.554-10.523 7.938-10.523s7.942 4.711 7.942 10.52Z"
    fill="#371a45"
  />
  <path
    d="M105.78 187.319c-1.738 2.647-4.111 5.027-5.707 5.027-1.727 0-4.145-2.469-5.853-5.177a17.386 17.386 0 0 1 5.58-.85 16.858 16.858 0 0 1 5.98 1Z"
    fill="#ed2e7a"
  />
  <path
    d="M100 193.751c-4.828 0-9.346-8.2-9.346-11.928 0-6.577 4.192-11.928 9.346-11.928s9.346 5.351 9.346 11.928c0 3.727-4.518 11.928-9.346 11.928Zm0-21.046c-3.6 0-6.536 4.09-6.536 9.118 0 2.788 3.8 9.118 6.536 9.118s6.536-6.33 6.536-9.118c0-5.028-2.936-9.118-6.536-9.118Z"
    fill="#371a45"
  />
  <path
    d="M111.008 178.675c0 2.2-4.927 2.831-11.008 2.831s-11.008-.633-11.008-2.831c0-1.531 2.394-5.075 5.9-7.084a10.3 10.3 0 0 1 5.108-1.455 10.066 10.066 0 0 1 4.628 1.2c3.772 1.939 6.38 5.739 6.38 7.339Z"
    fill="#f4c968"
  />
  <path
    d="M89.524 179.787a14.45 14.45 0 0 1 5.369-5.415 10.307 10.307 0 0 1 5.107-1.457 10.078 10.078 0 0 1 4.628 1.2 14.447 14.447 0 0 1 5.848 5.676 1.476 1.476 0 0 0 .532-1.11c0-1.6-2.612-5.4-6.38-7.344a10.066 10.066 0 0 0-4.628-1.2 10.307 10.307 0 0 0-5.107 1.457c-3.507 2.009-5.9 5.553-5.9 7.084a1.474 1.474 0 0 0 .531 1.109Z"
    fill="#fff"
    opacity=".6"
  />
  <path
    d="M110.939 178.675c0 2.2-4.926 2.832-11.006 2.832s-11.01-.633-11.01-2.832c0-.565-.194.824.4-.111 1.7 1.085 6.1-1.346 10.614-1.346s9.178 1.806 10.875.725c.588.932.127.169.127.732Z"
    fill="#371a45"
    opacity=".3"
  />
  <path
    d="M100 182.913c-6.138 0-12.414-.5-12.414-4.236 0-2.137 2.714-6.073 6.609-8.3a11.061 11.061 0 0 1 11.079-.289c4.086 2.111 7.14 6.278 7.14 8.592 0 3.73-6.276 4.233-12.414 4.233Zm0-11.372a8.84 8.84 0 0 0-4.408 1.272c-3.409 1.952-5.195 5.122-5.195 5.864.023.044.78 1.426 9.6 1.426 8.561 0 9.528-1.3 9.6-1.433-.011-.807-2-4.22-5.62-6.088a8.638 8.638 0 0 0-3.977-1.041Z"
    fill="#371a45"
  />
  <path
    d="M49.657 285.845a9.049 9.049 0 0 0 11.28-9.456c-.847-11.172-2.929-26.284-8.011-28.138-8.175-2.983-9.22 7.729-9.22 7.729a20.464 20.464 0 0 0-8.113-5.624 5.265 5.265 0 0 0-7.143 5.988 20.47 20.47 0 0 0 4.121 8.969s-10.73-.841-9.221 7.729c.939 5.328 15.45 10.017 26.307 12.803Z"
    fill="#f4c968"
  />
  <path
    d="M28.879 258.057a5.267 5.267 0 0 1 7.183-3.952 20.457 20.457 0 0 1 8.112 5.625s1.046-10.713 9.221-7.73c3.65 1.332 5.752 9.5 6.961 18.143-1.1-9.888-3.253-20.368-7.43-21.892-8.175-2.983-9.22 7.729-9.22 7.729a20.464 20.464 0 0 0-8.113-5.624 5.265 5.265 0 0 0-7.143 5.988c.118.56.265 1.131.429 1.713Z"
    fill="#fff"
    opacity=".7"
  />
  <path
    d="M60.937 275.926c-.831-10.95-2.849-25.676-7.713-28 3.61 3.47 5.182 15.272 5.862 24.233a8.062 8.062 0 0 1-10.05 8.424c-9.668-2.482-22.6-6.66-23.436-11.406a6.6 6.6 0 0 1 .05-2.835c-1.689 1.1-2.871 3-2.3 6.24.939 5.328 15.455 10.017 26.307 12.8a9.049 9.049 0 0 0 11.28-9.456Z"
    fill="#371a45"
    opacity=".3"
  />
  <path
    d="M51.958 287.718a10.842 10.842 0 0 1-2.694-.344 121.465 121.465 0 0 1-17.1-5.526c-6.453-2.765-9.844-5.556-10.368-8.532a7.466 7.466 0 0 1 1.577-6.641 10.158 10.158 0 0 1 6.242-2.821 23.5 23.5 0 0 1-2.709-7.185 6.769 6.769 0 0 1 2.293-6.686 6.769 6.769 0 0 1 6.985-1.091 23.505 23.505 0 0 1 6.6 3.922 10.165 10.165 0 0 1 3.868-5.653 7.473 7.473 0 0 1 6.815-.393c2.838 1.036 4.993 4.863 6.589 11.7a121.237 121.237 0 0 1 2.454 17.8 10.517 10.517 0 0 1-3.769 8.956 10.51 10.51 0 0 1-6.783 2.494Zm-1.909-3.4a7.392 7.392 0 0 0 6.665-1.509 7.4 7.4 0 0 0 2.649-6.3c-1.754-23.121-5.784-26.339-6.978-26.774a4.442 4.442 0 0 0-4.045.1c-2.123 1.33-2.931 5-3.064 6.307a1.582 1.582 0 0 1-1.106 1.351 1.578 1.578 0 0 1-1.674-.494A18.715 18.715 0 0 0 35 251.82a3.66 3.66 0 0 0-3.777.582 3.658 3.658 0 0 0-1.232 3.616 18.7 18.7 0 0 0 3.786 8.281 1.578 1.578 0 0 1 .193 1.737 1.562 1.562 0 0 1-1.526.851c-1.3-.094-5.061.057-6.742 1.915a4.443 4.443 0 0 0-.8 3.967c.22 1.251 2.684 5.781 25.144 11.547Z"
    fill="#371a45"
  />
  <path
    d="M33.432 263.99a18.109 18.109 0 0 1 1.83 1.391c.589.5 1.153 1.031 1.718 1.564 1.127 1.071 2.231 2.177 3.28 3.367a53.627 53.627 0 0 1-4.408-1.632c-.717-.3-1.435-.6-2.127-.935a18.1 18.1 0 0 1-2.014-1.108ZM45.159 255.364a18.157 18.157 0 0 1 .739 2.177c.212.741.379 1.5.55 2.257.335 1.519.631 3.053.836 4.627a53.54 53.54 0 0 1-2.742-3.819c-.426-.649-.855-1.3-1.24-1.965a18.016 18.016 0 0 1-1.05-2.045Z"
    fill="#371a45"
  />
  <path
    d="M150.343 285.845a9.049 9.049 0 0 1-11.28-9.456c.847-11.172 2.929-26.284 8.011-28.138 8.175-2.983 9.22 7.729 9.22 7.729a20.464 20.464 0 0 1 8.113-5.624 5.265 5.265 0 0 1 7.143 5.988 20.47 20.47 0 0 1-4.121 8.969s10.73-.841 9.221 7.729c-.939 5.328-15.45 10.017-26.307 12.803Z"
    fill="#f4c968"
  />
  <path
    d="M171.121 258.057a5.267 5.267 0 0 0-7.183-3.952 20.457 20.457 0 0 0-8.112 5.625s-1.046-10.713-9.221-7.73c-3.65 1.332-5.752 9.5-6.961 18.143 1.1-9.888 3.253-20.368 7.43-21.892 8.175-2.983 9.22 7.729 9.22 7.729a20.464 20.464 0 0 1 8.113-5.624 5.265 5.265 0 0 1 7.143 5.988c-.118.56-.265 1.131-.429 1.713Z"
    fill="#fff"
    opacity=".7"
  />
  <path
    d="M139.063 275.926c.831-10.95 2.849-25.676 7.713-28-3.61 3.47-5.182 15.272-5.862 24.233a8.062 8.062 0 0 0 10.05 8.424c9.668-2.482 22.6-6.66 23.436-11.406a6.6 6.6 0 0 0-.05-2.835c1.689 1.1 2.871 3 2.3 6.24-.939 5.328-15.455 10.017-26.307 12.8a9.049 9.049 0 0 1-11.28-9.456Z"
    fill="#371a45"
    opacity=".3"
  />
  <path
    d="M148.042 287.718a10.506 10.506 0 0 1-6.784-2.492 10.517 10.517 0 0 1-3.769-8.956 121.237 121.237 0 0 1 2.454-17.8c1.6-6.837 3.751-10.664 6.589-11.7a7.473 7.473 0 0 1 6.815.393 10.165 10.165 0 0 1 3.868 5.653 23.5 23.5 0 0 1 6.6-3.922 6.768 6.768 0 0 1 6.984 1.091 6.771 6.771 0 0 1 2.294 6.686 23.529 23.529 0 0 1-2.71 7.185 10.158 10.158 0 0 1 6.242 2.821 7.466 7.466 0 0 1 1.577 6.641c-.524 2.976-3.915 5.767-10.368 8.532a121.466 121.466 0 0 1-17.1 5.526 10.842 10.842 0 0 1-2.692.342Zm1.715-38.415a6.3 6.3 0 0 0-2.142.431c-1.194.435-5.224 3.653-6.978 26.774a7.4 7.4 0 0 0 2.649 6.3 7.4 7.4 0 0 0 6.665 1.509c22.459-5.766 24.924-10.3 25.144-11.547a4.443 4.443 0 0 0-.8-3.967c-1.681-1.858-5.439-2.014-6.745-1.915a1.586 1.586 0 0 1-1.523-.854 1.577 1.577 0 0 1 .193-1.734 18.706 18.706 0 0 0 3.786-8.281 3.658 3.658 0 0 0-1.232-3.616 3.661 3.661 0 0 0-3.776-.582 18.711 18.711 0 0 0-7.493 5.174 1.578 1.578 0 0 1-1.676.494 1.58 1.58 0 0 1-1.1-1.354c-.132-1.3-.94-4.974-3.063-6.3a3.5 3.5 0 0 0-1.909-.532Z"
    fill="#371a45"
  />
  <path
    d="M168.289 266.637a18.1 18.1 0 0 1-2.014 1.108c-.692.338-1.41.635-2.127.935a52.5 52.5 0 0 1-4.408 1.632 52.001 52.001 0 0 1 3.28-3.367c.565-.533 1.129-1.069 1.718-1.564a18.109 18.109 0 0 1 1.83-1.391ZM157.748 256.596a18.011 18.011 0 0 1-1.05 2.045c-.385.667-.814 1.316-1.24 1.965a52.868 52.868 0 0 1-2.742 3.819c.205-1.574.5-3.108.836-4.627.171-.757.338-1.516.55-2.257a18.157 18.157 0 0 1 .739-2.177Z"
    fill="#371a45"
  />
  <g>
    <path
      d="M43.6 194.99a5.82 5.82 0 0 0-8.44 1.6c-4.038 6.61-8.738 18.935 1.257 31.492 8.058 10.124 19.695 15.787 28.57 18.838a7.667 7.667 0 0 0 9.788-9.654c-3.793-11.332-12.296-28.168-31.175-42.276Z"
      fill="#6fa3d2"
    />
    <path
      d="M74.646 236.434a7.668 7.668 0 0 1-9.191 3.466c-8.876-3.051-20.512-8.713-28.57-18.837a25.633 25.633 0 0 1-5.916-14.552c-1.251 6.173-.533 13.6 5.447 21.113 8.058 10.124 19.695 15.787 28.57 18.838a7.667 7.667 0 0 0 9.788-9.654c-.041-.123-.086-.25-.128-.374Z"
      fill="#371a45"
      opacity=".3"
    />
    <path
      d="M40.263 198.65c19.416 13.36 28.57 29.851 32.8 41.032a7.49 7.49 0 0 1 .1 5.163 7.523 7.523 0 0 0 1.615-7.574c-3.792-11.337-12.295-28.173-31.175-42.281a5.82 5.82 0 0 0-8.44 1.6 36.065 36.065 0 0 0-1 1.751 5.83 5.83 0 0 1 6.1.309Z"
      fill="#fff"
      opacity=".6"
    />
    <path
      d="M67.512 248.991a9.4 9.4 0 0 1-3.059-.515c-8.733-3-20.908-8.8-29.32-19.367-10.712-13.458-5.459-26.683-1.373-33.369a7.438 7.438 0 0 1 4.932-3.414 7.5 7.5 0 0 1 5.889 1.35c19.108 14.279 27.812 31.3 31.748 43.074a9.215 9.215 0 0 1-2.267 9.526 9.279 9.279 0 0 1-6.55 2.715Zm-27.406-53.516a4.187 4.187 0 0 0-.794.076 4.1 4.1 0 0 0-2.753 1.9c-4.444 7.274-7.854 18.316 1.14 29.616 7.921 9.95 19.5 15.448 27.82 18.307a5.941 5.941 0 0 0 6.232-1.426 5.882 5.882 0 0 0 1.467-6.156c-3.788-11.325-12.172-27.716-30.6-41.487a4.2 4.2 0 0 0-2.512-.83Z"
      fill="#371a45"
    />
  </g>
  <g>
    <ellipse
      cx="11.398"
      cy="8.034"
      rx="11.398"
      ry="8.034"
      transform="rotate(-84.38 128.296 52.487)"
      fill="#371a45"
    />
    <ellipse
      cx="3.827"
      cy="2.427"
      rx="3.827"
      ry="2.427"
      transform="rotate(-84.393 127.808 43.53)"
      fill="#fff"
    />
  </g>
  <g>
    <path
      d="M138.337 159.975a40.566 40.566 0 0 0-4.343 1.5 27.343 27.343 0 0 0-3.936 2.022c-.625.368-1.192.806-1.776 1.216l-.818.682c-.133.117-.28.219-.407.342l-.378.371a19.53 19.53 0 0 0-2.725 3.245l-2.609-2.99c.138-.057.223-.087.316-.121s.185-.066.273-.093a9.74 9.74 0 0 1 .528-.156c.349-.1.7-.174 1.043-.251a16.714 16.714 0 0 1 2.09-.287 15.706 15.706 0 0 1 4.171.233 14.466 14.466 0 0 1 3.91 1.32 14.084 14.084 0 0 1 3.3 2.307.715.715 0 0 1 .05 1.01.716.716 0 0 1-.752.2l-.081-.027c-.59-.193-1.134-.44-1.7-.613a17.47 17.47 0 0 0-1.7-.453 15.6 15.6 0 0 0-3.391-.407 15.871 15.871 0 0 0-3.335.266c-.274.045-.543.113-.814.167l-.8.207c-.261.079-.523.154-.771.246-.129.042-.247.09-.365.137-.062.023-.12.044-.17.067l-.122.052-.046.02a2.069 2.069 0 0 1-2.717-1.088 2.087 2.087 0 0 1 .154-1.921 18.7 18.7 0 0 1 3.368-4.171 18.224 18.224 0 0 1 2.1-1.676 19.363 19.363 0 0 1 2.327-1.294 18.064 18.064 0 0 1 4.99-1.524 15.516 15.516 0 0 1 5.15.039.72.72 0 0 1 .574.841.722.722 0 0 1-.507.558Z"
      fill="#371a45"
    />
  </g>
  <g>
    <path
      d="M155.959 116.351H43.241a74.862 74.862 0 0 1 2.843-12.4c4.726-15.354 16.869-41.134 46.843-54.757a16.115 16.115 0 0 1 13.347 0c44.459 20.199 49.685 67.157 49.685 67.157Z"
      fill="#ee97c0"
    />
  </g>
  <g opacity=".2">
    <path
      d="M153.116 103.946a58.164 58.164 0 0 0-6.387-3.456 39.6 39.6 0 0 1-19.162-19.344A105.926 105.926 0 0 0 113.2 58.875a90.2 90.2 0 0 1 8.646 23.782 7.849 7.849 0 0 1-8.395 9.472l-.181-.017a7.859 7.859 0 0 1-7.128-7.227c-.97-13.027-4.2-21.2-5.728-24.431a.9.9 0 0 0-1.629 0c-1.528 3.23-4.758 11.4-5.728 24.431a7.859 7.859 0 0 1-7.127 7.228l-.177.016a7.849 7.849 0 0 1-8.4-9.472A90.2 90.2 0 0 1 86 58.875a105.926 105.926 0 0 0-14.369 22.273 39.6 39.6 0 0 1-19.162 19.344 58.164 58.164 0 0 0-6.387 3.456 74.862 74.862 0 0 0-2.843 12.4h112.72a74.86 74.86 0 0 0-2.843-12.402Z"
      fill="#371a45"
    />
  </g>
  <g opacity=".6">
    <path
      d="M46.084 108.539c4.726-15.354 16.869-41.134 46.843-54.757a16.115 16.115 0 0 1 13.347 0c36 16.361 46.277 50.263 48.883 62.569h.8s-5.226-46.958-49.685-67.162a16.115 16.115 0 0 0-13.347 0c-29.974 13.623-42.117 39.4-46.843 54.757a74.862 74.862 0 0 0-2.843 12.4h.8a92.755 92.755 0 0 1 2.045-7.807Z"
      fill="#fff"
    />
  </g>
  <g>
    <path
      d="M155.962 117.99H43.239a1.645 1.645 0 0 1-1.223-.546 1.639 1.639 0 0 1-.407-1.275 90.2 90.2 0 0 1 8.323-26.535c6.381-13.26 18.9-31.3 42.316-41.94a17.77 17.77 0 0 1 14.7 0c23.415 10.64 35.936 28.68 42.316 41.94a90.225 90.225 0 0 1 8.324 26.535 1.64 1.64 0 0 1-.408 1.275 1.642 1.642 0 0 1-1.218.546Zm-110.817-3.28h108.909a92.994 92.994 0 0 0-7.794-23.762 83.421 83.421 0 0 0-40.66-40.267 14.487 14.487 0 0 0-11.99 0 83.437 83.437 0 0 0-40.717 40.376 92.7 92.7 0 0 0-7.748 23.653Z"
      fill="#371a45"
    />
  </g>
  <g>
    <path
      d="M86 58.875c-1.6 2.661-3.209 5.246-4.8 7.846s-3.141 5.2-4.656 7.825-2.963 5.284-4.357 7.981c-.347.675-.687 1.354-1.05 2.026l-1 2.057-.517 1.026c-.157.348-.311.7-.478 1.044a52.49 52.49 0 0 1-1.013 2.083c.123-.763.273-1.522.431-2.281.074-.381.158-.76.246-1.138l.308-1.119c.21-.746.437-1.488.663-2.231.249-.734.521-1.459.785-2.189a60.563 60.563 0 0 1 3.975-8.4 63.7 63.7 0 0 1 5.125-7.74c.478-.61.968-1.209 1.458-1.807.513-.582 1.015-1.169 1.535-1.743A36.438 36.438 0 0 1 86 58.875Z"
      fill="#371a45"
    />
  </g>
  <g>
    <path
      d="M113.2 58.875a36.577 36.577 0 0 1 3.338 3.237c.519.574 1.021 1.161 1.534 1.743.49.6.981 1.2 1.458 1.807a63.83 63.83 0 0 1 5.126 7.74 60.444 60.444 0 0 1 3.974 8.4c.265.73.537 1.455.785 2.189.226.743.453 1.485.663 2.231l.308 1.119c.088.378.172.757.246 1.138.158.759.308 1.518.431 2.281a56.087 56.087 0 0 1-1.013-2.083c-.167-.346-.321-.7-.477-1.044l-.518-1.026-.995-2.057c-.364-.672-.7-1.351-1.051-2.026-1.394-2.7-2.828-5.364-4.356-7.981s-3.073-5.225-4.657-7.825-3.202-5.184-4.796-7.843Z"
      fill="#371a45"
    />
  </g>
  <g>
    <path
      d="M99.61 59.857a52.893 52.893 0 0 1 1.172 8.234c.193 2.744.248 5.488.2 8.233s-.145 5.489-.356 8.233c-.1 1.373-.231 2.745-.4 4.117s-.35 2.744-.619 4.117c-.268-1.373-.452-2.745-.618-4.117s-.3-2.744-.4-4.117c-.212-2.744-.321-5.488-.357-8.233s.011-5.489.2-8.233a53.009 53.009 0 0 1 1.178-8.234Z"
      fill="#371a45"
    />
  </g>
  <g>
    <path
      d="M99.6 96.469c22.561 0 38.4 5.282 47.694 9.689a25.273 25.273 0 0 1 13.188 30.7c-.118.357-.19.552-.19.552-21.849-12.6-60.692-12.4-60.692-12.4s-38.843-.2-60.692 12.4c0 0-.072-.195-.19-.552a25.274 25.274 0 0 1 13.188-30.7c9.294-4.407 25.133-9.689 47.694-9.689Z"
      fill="#ee97c0"
    />
    <path
      d="m38.787 137.749-.1-.257s-.073-.2-.193-.56a25.528 25.528 0 0 1 13.308-30.983c9.341-4.43 25.215-9.711 47.794-9.711s38.453 5.281 47.794 9.711a25.528 25.528 0 0 1 13.31 30.983c-.12.363-.193.56-.193.56l-.1.257-.237-.137c-21.543-12.421-60.19-12.367-60.575-12.369-.38.015-39.032-.053-60.577 12.369Zm60.867-12.97c1.639 0 39.183.159 60.512 12.294.027-.079.059-.174.1-.286a25.064 25.064 0 0 0-13.067-30.42c-9.3-4.409-25.1-9.666-47.6-9.666s-38.3 5.257-47.6 9.666a25.064 25.064 0 0 0-13.067 30.42c.037.112.069.207.1.286 21.7-12.347 60.182-12.29 60.567-12.294Z"
      fill="#371a45"
    />
  </g>
  <g opacity=".3">
    <path
      d="M160.482 129.052c-.118.357-.19.552-.19.552-21.849-12.6-60.692-12.4-60.692-12.4s-38.843-.2-60.692 12.4c0 0-.072-.2-.19-.552a25.321 25.321 0 0 1-.952-3.964 25.091 25.091 0 0 0 .952 11.772c.118.357.19.552.19.552 21.849-12.6 60.692-12.4 60.692-12.4s38.843-.2 60.692 12.4c0 0 .072-.195.19-.552a25.09 25.09 0 0 0 .952-11.772 25.207 25.207 0 0 1-.952 3.964Z"
      fill="#371a45"
    />
  </g>
  <g opacity=".6">
    <path
      d="M147.294 106.158c-9.291-4.407-25.133-9.689-47.694-9.689s-38.4 5.282-47.694 9.689a25.294 25.294 0 0 0-14.344 25.129 25.3 25.3 0 0 1 14.344-20.536 103.062 103.062 0 0 1 32.906-8.892 2.344 2.344 0 0 1 1.805.534c1.721 1.507 6.881 2.6 12.983 2.6s11.262-1.1 12.983-2.6a2.344 2.344 0 0 1 1.805-.534 103.062 103.062 0 0 1 32.906 8.892 25.3 25.3 0 0 1 14.344 20.536 25.294 25.294 0 0 0-14.344-25.129Z"
      fill="#fff"
    />
  </g>
  <g>
    <path
      d="M160.29 139.051a1.622 1.622 0 0 1-.817-.219c-21.209-12.228-59.473-12.175-59.865-12.181-.412-.008-38.673-.047-59.88 12.181a1.636 1.636 0 0 1-1.374.122 1.642 1.642 0 0 1-.983-.97s-.08-.215-.211-.612a26.938 26.938 0 0 1 14.04-32.697c9.471-4.492 25.556-9.847 48.4-9.847s38.926 5.355 48.4 9.847a26.938 26.938 0 0 1 14.043 32.7c-.131.4-.211.612-.211.612a1.642 1.642 0 0 1-.983.97 1.636 1.636 0 0 1-.559.094ZM99.6 98.11c-22.231 0-37.825 5.182-46.991 9.53a23.661 23.661 0 0 0-12.731 27.364c22.185-11.685 58.165-11.643 59.731-11.633 1.543-.005 37.527-.052 59.713 11.633a23.661 23.661 0 0 0-12.731-27.364c-9.166-4.348-24.76-9.53-46.991-9.53Z"
      fill="#371a45"
    />
  </g>
  <g>
    <ellipse
      cx="12.991"
      cy="9.399"
      rx="12.991"
      ry="9.399"
      transform="translate(86.609 33.743)"
      fill="#ee97c0"
    />
    <path
      d="M99.6 52.775c-7.291 0-13.223-4.32-13.223-9.631s5.932-9.63 13.223-9.63 13.223 4.32 13.223 9.63-5.932 9.631-13.223 9.631Zm0-18.8c-7.036 0-12.76 4.113-12.76 9.167s5.724 9.168 12.76 9.168 12.76-4.113 12.76-9.168-5.724-9.167-12.76-9.167Z"
      fill="#371a45"
    />
  </g>
  <g opacity=".2">
    <path
      d="M99.6 48.408c-6.193 0-11.37-3.136-12.672-7.332a6.929 6.929 0 0 0-.319 2.066c0 5.191 5.816 9.4 12.991 9.4s12.991-4.208 12.991-9.4a6.929 6.929 0 0 0-.319-2.066c-1.302 4.199-6.479 7.332-12.672 7.332Z"
      fill="#371a45"
    />
  </g>
  <g opacity=".6">
    <path
      d="M99.6 36.958c6.417 0 11.744 3.367 12.8 7.792a6.9 6.9 0 0 0 .193-1.608c0-5.19-5.816-9.4-12.991-9.4s-12.991 4.209-12.991 9.4a6.9 6.9 0 0 0 .193 1.608c1.053-4.425 6.379-7.792 12.796-7.792Z"
      fill="#fff"
    />
  </g>
  <g>
    <path
      d="M99.6 54.182c-8.068 0-14.632-4.953-14.632-11.04S91.532 32.103 99.6 32.103s14.632 4.952 14.632 11.039-6.564 11.04-14.632 11.04Zm0-18.8c-6.259 0-11.351 3.48-11.351 7.758s5.092 7.759 11.351 7.759 11.351-3.481 11.351-7.759-5.092-7.756-11.351-7.756Z"
      fill="#371a45"
    />
  </g>
  <text
    transform="translate(360.058 50)"
    fill="#6fa3d2"
    font-size="55"
    font-family="CoconNextArabic-Bold, CoconÆ Next Arabic"
    font-weight="700"
  ><tspan
    x="-96.91"
    y="0"
  >هيا نتعلم</tspan></text>
  <g
    fill="#6fa3d2"
    fill-rule="evenodd"
  >
    <path d="m185.75 135.591-.086.005q-1.94.029-3.951 0a1.173 1.173 0 1 1 .036-2.346q1.974.034 3.877 0a1.174 1.174 0 0 1 .124 2.343ZM194.086 135.168l-.4.036a1.175 1.175 0 1 1-.207-2.34l.4-.036c2.52-.222 5-.586 7.387-.93a1.174 1.174 0 1 1 .384 2.317 99.393 99.393 0 0 1-7.564.953Zm15.24-2.588a1.174 1.174 0 0 1-.4-2.3 65.652 65.652 0 0 0 7.434-2.387 1.173 1.173 0 1 1 .839 2.191 72.207 72.207 0 0 1-7.677 2.467Zm14.775-5.72a1.174 1.174 0 0 1-.659-2.2 52.924 52.924 0 0 0 6.56-4.15 1.174 1.174 0 0 1 1.4 1.885 55.719 55.719 0 0 1-6.849 4.332 1.166 1.166 0 0 1-.453.128Zm12.68-9.455a1.172 1.172 0 0 1-.944-1.988 44.146 44.146 0 0 0 4.881-5.984 1.175 1.175 0 0 1 1.946 1.316 46.618 46.618 0 0 1-5.147 6.306 1.163 1.163 0 0 1-.736.345Zm8.831-13.1a1.163 1.163 0 0 1-.565-.092 1.176 1.176 0 0 1-.618-1.543 39.181 39.181 0 0 0 1.541-4.238 25.8 25.8 0 0 1-6.229-2.593 1.175 1.175 0 0 1 1.186-2.029 23.926 23.926 0 0 0 5.634 2.349c.063-.275.121-.55.177-.825a1.175 1.175 0 0 1 2.3.466 36.08 36.08 0 0 1-.288 1.3 1.155 1.155 0 0 1 .114.811 1.175 1.175 0 0 1-.517.738 40.476 40.476 0 0 1-1.763 4.953 1.175 1.175 0 0 1-.972.701Zm12.334-4.91c-.774.068-1.538.112-2.3.135a1.177 1.177 0 0 1-1.208-1.14 1.137 1.137 0 0 1 1.138-1.209 38.06 38.06 0 0 0 7.638-1 1.174 1.174 0 1 1 .525 2.289 43.262 43.262 0 0 1-5.793.923Zm13.2-3.315a1.172 1.172 0 0 1-.549-2.252 53.184 53.184 0 0 0 6.95-3.472 1.176 1.176 0 1 1 1.2 2.022 54.869 54.869 0 0 1-7.254 3.619 1.2 1.2 0 0 1-.354.083Zm13.657-8.022a1.176 1.176 0 0 1-.827-2.1 65.36 65.36 0 0 0 5.837-5.172 1.174 1.174 0 1 1 1.658 1.663 67.992 67.992 0 0 1-6.049 5.359 1.167 1.167 0 0 1-.622.249Zm-50.348 2.785a1.18 1.18 0 0 1-1.02-.431 15.751 15.751 0 0 1-3.641-7.654 1.164 1.164 0 0 1 1-1.324 1.191 1.191 0 0 1 1.325 1 13.55 13.55 0 0 0 3.142 6.5 1.171 1.171 0 0 1-.808 1.906Zm14.142-2.006a1.185 1.185 0 0 1-1.255-1.107 24.958 24.958 0 0 0-.061-.877 17.9 17.9 0 0 0-1.635-6.347 1.174 1.174 0 1 1 2.105-1.039 20.219 20.219 0 0 1 1.869 7.184c.026.319.051.635.067.954a1.184 1.184 0 0 1-1.093 1.231ZM233.67 76.654a1.174 1.174 0 0 1-.829-2.093 8.29 8.29 0 0 1 4.4-1.726 9.13 9.13 0 0 1 4.291.675 1.173 1.173 0 1 1-.885 2.172 6.792 6.792 0 0 0-3.2-.507 5.953 5.953 0 0 0-3.154 1.233 1.175 1.175 0 0 1-.625.245ZM296.127 76.762a1.174 1.174 0 0 1-1.022-1.9 74.16 74.16 0 0 0 2.322-3.074 1.175 1.175 0 1 1 1.91 1.368 68.896 68.896 0 0 1-2.4 3.171 1.177 1.177 0 0 1-.81.435Z" />
  </g>
</svg>
