<svg xmlns="http://www.w3.org/2000/svg" width="205.414" height="236.26">
  <g>
    <g>
      <g>
        <g>
          <path d="M26.944 219.244a16.6 16.6 0 0 0 16.54 15.276h95.75c29.308 0 54.239-18.209 63.456-43.625q.444-1.209.829-2.441a.24.24 0 0 0 .013-.049c.735-3 .121-5.321-2.239-6.749a17.197 17.197 0 0 1-.73-.394c-18.169-10.113-27.883-43.388-22.218-67.429v-.009a49.82 49.82 0 0 1 .914-3.363 74.545 74.545 0 0 0 2.163-17.878 74.646 74.646 0 0 0-11.559-39.949A78.943 78.943 0 0 0 116 17.109c3.672-3.641 5.047-13.167-2.069-15.348-5.057-.9-8.94 1.716-10.431 8.81-3.914-7.081-13.274-2.329-6.565 5.629-40.889 2.822-73.157 35.94-73.157 76.386A74.472 74.472 0 0 0 29 120.052c6.179 21.396-5.271 59.75-2.056 99.192Z" fill="#6fa3d2"/>
        </g>
        <g opacity=".55">
          <path d="M118.06 17.478a9.758 9.758 0 0 1-2.06 3.211c36.553 6.082 64.517 36.621 65.4 73.667.014-.586.023-1.178.023-1.773-.001-37.154-27.235-68.127-63.363-75.105Z" fill="#fff"/>
        </g>
        <g opacity=".3">
          <path d="M133.9 234.52h5.334c29.308 0 54.239-18.209 63.456-43.625q.444-1.209.829-2.441a.24.24 0 0 0 .013-.049c.735-3 .121-5.321-2.239-6.749a17.197 17.197 0 0 1-.73-.394c-18.169-10.113-27.883-43.388-22.218-67.429v-.009a49.82 49.82 0 0 1 .914-3.363 74.545 74.545 0 0 0 2.163-17.878 74.646 74.646 0 0 0-11.559-39.949s9.863 31.377-9.375 60.809c-3.984 6.1-6.7 12.932-6.575 20.213.455 26.341 14.874 41.614 35.069 52.308q-8.733 21.618-36.28 26l-18.08 21.959s-.278.217-.722.597Z" fill="#371a45"/>
        </g>
        <g opacity=".55">
          <path d="M103.5 14.15c1.491-7.093 5.374-9.7 10.431-8.809a6.872 6.872 0 0 1 4.935 5.679c.6-3.816-.564-7.923-4.935-9.262-5.057-.9-8.94 1.716-10.431 8.81-3.327-6.015-10.583-3.489-8.576 2.288 1.312-2.92 6.064-3.247 8.576 1.294Z" fill="#fff"/>
        </g>
        <g opacity=".55">
          <path d="M23.779 92.583c0 .586.009 1.169.022 1.751.959-39.608 32.864-71.777 73.135-74.554a10.75 10.75 0 0 1-2.038-3.417c-39.919 3.762-71.119 36.446-71.119 76.22Z" fill="#fff"/>
        </g>
        <g opacity=".55">
          <path d="M30.85 138.143c.1-6.861-.368-12.966-1.85-18.094a74.382 74.382 0 0 1-5.2-25.657 80.332 80.332 0 0 0-.022 1.774A74.472 74.472 0 0 0 29 123.632a56.784 56.784 0 0 1 1.85 14.511Z" fill="#fff"/>
        </g>
        <g>
          <path d="M28.61 177.23c-5.6 21.209 16.579 45.691 54.272 43.179 68.372-11.645 53.45-62.844 20-65.275-32.133-3.807-37.619-23.7-20.6-25.863 27.474 0 39.931-12.552 44.114-32.022 3.134-44.337-43.442-57.772-60.46-38.739-8.062-10.972-25.765-12.688-35.292 2.769 0 0-12.383 22.892-3.609 53.154 5.29 17.55 4.612 39.336 1.575 62.797Z" fill="#f2e9f2"/>
          <path d="M77.762 220.8c-17.9 0-33.62-6.338-42.756-17.418-6.511-7.9-8.921-17.443-6.614-26.2 3.55-27.437 3.053-47.358-1.567-62.69-8.7-30.005 3.5-53.094 3.627-53.324 4.352-7.06 10.73-11.1 17.967-11.4a20.923 20.923 0 0 1 17.536 8.388c7.915-8.634 22.623-10.755 35.891-5.145a39.8 39.8 0 0 1 18.386 15.646c5.012 8.036 7.161 17.66 6.388 28.6-4.658 21.695-19.161 32.227-44.333 32.227-5.778.737-9.235 3.6-9.217 7.644.03 7.082 10.291 15.462 29.845 17.778 15.48 1.125 27.68 12.769 28.369 27.084.28 5.826-1.294 14.5-10.388 22.765-8.446 7.674-21.223 13.011-37.974 15.864q-2.606.182-5.16.181ZM49.257 50.2c-.273 0-.546.005-.82.017-7.085.288-13.336 4.257-17.6 11.177-.117.217-12.232 23.155-3.585 52.976 4.638 15.4 5.14 35.378 1.579 62.887l-.006.029c-2.276 8.616.1 18.024 6.524 25.813 9.913 12.023 27.681 18.412 47.519 17.087 16.645-2.836 29.346-8.137 37.729-15.752 8.966-8.146 10.519-16.685 10.243-22.415-.678-14.092-12.7-25.555-27.969-26.664-19.818-2.348-30.214-10.942-30.246-18.217-.018-4.295 3.583-7.319 9.633-8.088 24.963 0 39.321-10.419 43.925-31.848 1.433-20.3-7.727-36.681-24.509-43.778-13.2-5.581-27.824-3.429-35.569 5.233l-.182.2-.162-.22a20.5 20.5 0 0 0-16.504-8.436Z" fill="#371a45"/>
        </g>
        <g opacity=".55">
          <path d="M73.333 139.8c1.863 3.314 5.791 6.7 11.881 9.342-11.111-7.273-10.1-17.238 1.662-18.738 27.471 0 39.93-12.549 44.113-32.022 1.626-22.974-10.1-37.655-24.143-43.813a39.61 39.61 0 0 1 15.307 18.049c3.243 6.722 4.931 14.94 4.246 24.631-4.183 19.468-16.642 32.022-44.114 32.022-7.618.967-10.726 5.486-8.952 10.529Z" fill="#fff"/>
        </g>
        <g opacity=".55">
          <path d="M50.394 213.483c9.338 5.732 21.958 9.064 37.077 8.057 61.074-10.4 55.691-52.359 30.006-62.937 20.74 13.785 21.148 50.45-35.38 60.079-12.387.827-23.1-1.263-31.703-5.199Z" fill="#fff"/>
        </g>
        <g>
          <path d="M139.234 236.109H43.479a18.3 18.3 0 0 1-18.124-16.738c-1.557-19.1.3-37.99 1.944-54.652 1.762-17.89 3.285-33.344.19-44.159a75.892 75.892 0 0 1-5.306-27.979 76.719 76.719 0 0 1 21.69-53.4A80.95 80.95 0 0 1 94.08 14.849a7.017 7.017 0 0 1-.634-6.174 5.332 5.332 0 0 1 4.708-3.146 6.667 6.667 0 0 1 4.657 1.683c2.045-5.423 6.08-7.956 11.393-7.016a1.557 1.557 0 0 1 .188.045 8.407 8.407 0 0 1 5.891 6.232 13.6 13.6 0 0 1-1.482 9.533 81.013 81.013 0 0 1 45.032 25.915 76.9 76.9 0 0 1 19.175 50.665 76.317 76.317 0 0 1-2.21 18.259c-.007.03-.015.06-.025.09-.318 1.025-.61 2.1-.869 3.191 0 .025-.01.05-.015.075-5.755 24.42 4.666 56.336 21.443 65.674.237.136.455.253.677.366.035.018.069.037.1.057 2 1.211 4.135 3.663 2.965 8.472a1.945 1.945 0 0 1-.057.2 55.178 55.178 0 0 1-.841 2.473c-9.681 26.715-35.783 44.666-64.942 44.666ZM98.443 8.7h-.136a2.15 2.15 0 0 0-1.943 1.242c-.56 1.282.108 3.236 1.786 5.227a1.593 1.593 0 0 1 .249 1.646 1.592 1.592 0 0 1-1.355.966c-40.192 2.773-71.676 35.629-71.676 74.8a72.747 72.747 0 0 0 5.11 26.881c.019.048.035.1.05.145 3.291 11.4 1.738 27.169-.06 45.424-1.628 16.529-3.473 35.263-1.939 54.082a15.1 15.1 0 0 0 14.95 13.817h95.751c27.826 0 52.726-17.11 61.961-42.577.29-.791.557-1.577.8-2.343.755-3.1-.378-4.288-1.475-4.965-.251-.129-.5-.262-.745-.4-8.961-4.987-16.344-15.429-20.771-29.39-4.213-13.286-5.021-27.757-2.219-39.715l.016-.076c.276-1.171.588-2.323.929-3.425a73.145 73.145 0 0 0 2.1-17.452c0-36.647-26.955-67.729-64.092-73.908a1.59 1.59 0 0 1-1.255-1.086 1.591 1.591 0 0 1 .4-1.612 10.182 10.182 0 0 0 2.319-8.745 5.19 5.19 0 0 0-3.643-3.924c-4.426-.74-7.286 1.812-8.5 7.587a1.592 1.592 0 0 1-1.32 1.246 1.593 1.593 0 0 1-1.628-.8A4.461 4.461 0 0 0 98.443 8.7Z" fill="#371a45"/>
        </g>
        <g>
          <path d="M19.241 202.087c6.163 2.5 12.365 2.665 18.6 4.066a112.266 112.266 0 0 0 13.588 2.2 124.674 124.674 0 0 0 47.378-4.716c8.818 1.9 18.635 4.814 9.562-11.25 4.209-11.649 7.116-23.217 5.428-34.521a32.37 32.37 0 0 0-10.914-2.732c-14.806-1.755-23.956-6.924-27.852-12.2v-.005c-4.559-6.176-1.926-12.495 7.25-13.659 10.932 0 19.486-1.989 26.088-5.612-.014-15.652-6.74-14.076-16.58-4.514-13.225-4.04-28.479-4.6-44.933-3.09-4.639.421-9.373 1.012-14.183 1.733-2.011-1.277-3.9-2.41-5.639-3.355-4.071-2.212-7.3-3.385-9.234-2.978l-.359.1h-.009c-2.319.815-2.351 4.434.91 12.1-9.893 14.587-9.611 38.833-7.39 64.925-8.281 12.24-4.246 19.187 8.289 13.508Z" fill="#fff"/>
        </g>
        <g>
          <path d="M77.705 222.172c-16.565 0-31.291-5.3-40.979-14.889a1.59 1.59 0 0 1-.011-2.249 1.589 1.589 0 0 1 2.248-.011c10.044 9.938 25.98 14.967 43.731 13.8 39.175-6.7 45.65-25.043 46.616-32.624 1.415-11.1-5.08-21.9-16.161-26.882l-.1-.048a30.754 30.754 0 0 0-10.281-2.553l-.072-.007c-20.6-2.44-31.409-11.692-31.443-19.57-.021-4.977 4.128-8.6 10.829-9.45a1.666 1.666 0 0 1 .2-.013c10.256 0 18.775-1.821 25.323-5.415 8.966-4.913 14.6-13.169 17.212-25.24 1.354-19.672-7.493-35.494-23.68-42.339-12.667-5.357-26.655-3.349-34.016 4.884a1.585 1.585 0 0 1-1.262.529 1.592 1.592 0 0 1-1.205-.647 19.113 19.113 0 0 0-16.164-7.867c-6.616.269-12.473 4.008-16.491 10.527a1.591 1.591 0 0 1-2.188.52 1.592 1.592 0 0 1-.52-2.189c4.591-7.448 11.363-11.723 19.07-12.036a22.245 22.245 0 0 1 17.687 7.7 27.937 27.937 0 0 1 15.764-7.263 39.723 39.723 0 0 1 20.563 2.913 41.168 41.168 0 0 1 19.015 16.182c5.169 8.287 7.387 18.187 6.592 29.423a1.5 1.5 0 0 1-.032.222c-2.81 13.087-8.965 22.073-18.816 27.471-7 3.841-16 5.795-26.749 5.807-4.995.66-7.966 3-7.952 6.269.022 5.038 7.806 13.948 28.6 16.421a33.881 33.881 0 0 1 11.413 2.864c.035.016.069.033.1.051 12.3 5.575 19.5 17.673 17.91 30.139-1.056 8.289-7.976 28.33-49.317 35.371a1.765 1.765 0 0 1-.161.019q-2.658.182-5.273.18Z" fill="#371a45"/>
        </g>
        <g>
          <path d="M63.279 210.591a112.726 112.726 0 0 1-42.35-8.4c-8.442 5.675-12.409 3.9-14.039 2.3-3.075-3.025-2.112-9.4 2.433-16.325-2.077-24.645-2.571-49.431 7.227-64.672-2.837-6.9-3.1-10.847-.865-12.74 2.664-2.257 7.7-.7 17.341 5.375 24.475-3.622 43.061-3.233 58.332 1.229 6.232-5.907 10.687-8.012 13.983-6.621 3.146 1.328 4.614 5.435 4.62 12.924a1.592 1.592 0 0 1-1.589 1.592 1.591 1.591 0 0 1-1.59-1.589c-.006-7.718-1.679-9.576-2.676-10-1.144-.482-4.12-.265-11.205 6.62a1.589 1.589 0 0 1-1.572.381c-15.09-4.607-33.653-5.022-58.416-1.306a1.594 1.594 0 0 1-1.09-.231c-11.471-7.3-13.741-6.237-14.08-5.951-.16.136-1.462 1.565 2.066 9.86a1.592 1.592 0 0 1-.147 1.515c-9.811 14.464-9.221 39.257-7.121 63.895a1.6 1.6 0 0 1-.268 1.027c-4.183 6.178-4.745 11.179-3.15 12.747 1.2 1.179 4.718 1.066 10.7-3.127a1.592 1.592 0 0 1 1.512-.171c24.965 10.142 49.444 11.156 77.035 3.189a1.585 1.585 0 0 1 .777-.027c.446.1.894.2 1.343.294 3.658.806 8.667 1.91 9.663.564.313-.424 1.012-2.382-3.163-9.772a1.589 1.589 0 0 1-.111-1.323c3.636-10.06 7.116-21.936 5.351-33.748a1.59 1.59 0 0 1 1.338-1.808 1.588 1.588 0 0 1 1.808 1.338c1.837 12.3-1.781 24.882-5.26 34.616 3.512 6.37 4.31 10.267 2.594 12.588-2.222 3.005-7.411 1.862-12.9.651l-.939-.206a128.785 128.785 0 0 1-35.592 5.312Z" fill="#371a45"/>
        </g>
        <g>
          <path d="M89.259 93.715a7.3 7.3 0 0 1-2.165 4.875 7.982 7.982 0 0 1-1.112.94 3.756 3.756 0 0 1-.636.389l-.669.352a11.5 11.5 0 0 1-1.465.478c-.258.04-.517.082-.777.113a4.114 4.114 0 0 1-.784.053 18.815 18.815 0 0 1-.79-.038c-.131-.012-.264-.013-.393-.036l-.385-.083a6.072 6.072 0 0 1-1.487-.473l-.7-.324c-.218-.128-.421-.28-.628-.42s-.413-.282-.6-.441l-.516-.514a7.566 7.566 0 0 1-2.126-4.87.735.735 0 0 1 .7-.766.732.732 0 0 1 .458.136l.041.029a21.968 21.968 0 0 0 3.468 2.217 6.574 6.574 0 0 0 2.9.66 7.26 7.26 0 0 0 2.961-.725 22.264 22.264 0 0 0 3.5-2.151l.037-.026a.742.742 0 0 1 1.032.182.74.74 0 0 1 .136.443Z" fill="#371a45"/>
        </g>
        <g>
          <path d="M36.317 93.533a18.9 18.9 0 0 0 2.985 1.833 6.192 6.192 0 0 0 2.523.619 5.616 5.616 0 0 0 2.471-.563 18.685 18.685 0 0 0 2.955-1.889l.035-.025a.627.627 0 0 1 .874.146.624.624 0 0 1 .115.391 6.452 6.452 0 0 1-1.811 4.15l-.44.438c-.161.135-.34.251-.513.376s-.35.249-.536.358l-.6.276a5.339 5.339 0 0 1-1.266.4 2.815 2.815 0 0 1-.663.1l-.673.033a3.178 3.178 0 0 1-.668-.047l-.662-.093a11.322 11.322 0 0 1-1.249-.407l-.571-.3a3.232 3.232 0 0 1-.542-.331 7.006 7.006 0 0 1-.947-.8 6.225 6.225 0 0 1-1.845-4.154.631.631 0 0 1 .615-.648.64.64 0 0 1 .378.114Z" fill="#371a45"/>
        </g>
        <g>
          <path d="M10.135 151.473c-6.121-9.839-2.6-25 6.374-24.781 2.8 4.509 7.356 7.358 13.009 9.176a5.193 5.193 0 0 1 1.482 9.16c-5.37 3.814-12.488 5.792-20.865 6.445Z" fill="#6fa3d2"/>
        </g>
        <g opacity=".55">
          <path d="M7.172 142.375c.6-6.378 4.008-11.667 9.337-11.541 2.795 4.51 7.354 7.358 13.011 9.176a5.144 5.144 0 0 1 3.206 2.92 5.235 5.235 0 0 0-3.206-7.062c-5.657-1.819-10.216-4.667-13.011-9.177-6.453-.157-10.085 7.636-9.337 15.684Z" fill="#fff"/>
        </g>
        <g>
          <path d="M10.135 153.063a1.588 1.588 0 0 1-1.35-.75c-4.047-6.5-4.44-15.676-.935-21.808 2.041-3.57 5.125-5.483 8.7-5.4a1.591 1.591 0 0 1 1.313.751c2.4 3.863 6.369 6.643 12.145 8.5a6.8 6.8 0 0 1 4.66 5.463 6.683 6.683 0 0 1-2.744 6.507c-5.369 3.814-12.455 6.017-21.663 6.734-.044.001-.082.003-.126.003Zm5.535-24.748a6.882 6.882 0 0 0-5.059 3.769c-2.367 4.142-2.96 11.613.389 17.72 8.133-.746 14.382-2.736 19.08-6.073a3.476 3.476 0 0 0 1.442-3.429 3.588 3.588 0 0 0-2.491-2.92c-6.141-1.973-10.523-4.946-13.361-9.067Z" fill="#371a45"/>
        </g>
        <g>
          <path d="M55.852 103.309a17.209 17.209 0 0 1 11.507 6.781 4.339 4.339 0 0 1-1.083 6.439 19.2 19.2 0 0 1-10.662 2.6c-4.684-.541-8.46-2.135-10.94-5.229a3.09 3.09 0 0 1-.286-3.462 15.06 15.06 0 0 1 9.182-6.941 5.486 5.486 0 0 1 2.282-.188Z" fill="#f4c968"/>
          <path d="M56.311 119.367q-.35 0-.7-.01c-5.085-.586-8.712-2.324-11.107-5.313a3.327 3.327 0 0 1-.305-3.711 15.368 15.368 0 0 1 9.31-7.042 5.753 5.753 0 0 1 2.374-.2 17.308 17.308 0 0 1 11.652 6.863 4.648 4.648 0 0 1 .95 3.725 4.466 4.466 0 0 1-2.092 3.042 19.281 19.281 0 0 1-10.082 2.646Zm-1.148-15.876a5.323 5.323 0 0 0-1.529.224 14.944 14.944 0 0 0-9.054 6.839 2.88 2.88 0 0 0 .267 3.213c2.319 2.893 5.849 4.577 10.793 5.148a19.02 19.02 0 0 0 10.522-2.572 3.971 3.971 0 0 0 1.884-2.74 4.211 4.211 0 0 0-.86-3.37 16.882 16.882 0 0 0-11.363-6.7 5 5 0 0 0-.66-.042Z" fill="#371a45"/>
        </g>
        <g opacity=".55">
          <path d="M44.679 113.909c.13.161.26.313.4.466a2.652 2.652 0 0 1 .211-.457 15.062 15.062 0 0 1 9.181-6.942 5.562 5.562 0 0 1 2.284-.188 17.191 17.191 0 0 1 11.505 6.781c.005.008.014.013.018.022a4.411 4.411 0 0 0-.914-3.493 17.2 17.2 0 0 0-11.505-6.781 5.563 5.563 0 0 0-2.284.188 15.068 15.068 0 0 0-9.181 6.942 3.084 3.084 0 0 0 .285 3.462Z" fill="#fff"/>
        </g>
        <g>
          <path d="M56.313 120.736q-.37 0-.744-.011a1.243 1.243 0 0 1-.137-.01c-5.366-.62-9.4-2.576-12-5.815a4.706 4.706 0 0 1-.424-5.249 16.7 16.7 0 0 1 10.1-7.671 7.1 7.1 0 0 1 2.943-.244 18.859 18.859 0 0 1 12.545 7.365 6.019 6.019 0 0 1 1.228 4.822 5.836 5.836 0 0 1-2.735 3.974 20.629 20.629 0 0 1-10.776 2.839Zm-.584-3.188a17.679 17.679 0 0 0 9.729-2.378 2.62 2.62 0 0 0 1.241-1.81 2.838 2.838 0 0 0-.582-2.273 15.579 15.579 0 0 0-10.469-6.2 3.917 3.917 0 0 0-1.619.136 13.439 13.439 0 0 0-8.262 6.21 1.5 1.5 0 0 0 .148 1.675c2.071 2.588 5.282 4.101 9.814 4.64Z" fill="#371a45"/>
        </g>
        <g>
          <g>
            <path d="M18.972 234.67c-26.083-4.365-19.448-36.463-2.111-28.846-5.176-21.573 23.29-19.431 18.555-1.164 17.4-17.655 25.574 24.88 3.237 30.01Z" fill="#f4c968"/>
            <path d="M38.679 234.891H18.936C10.165 233.423 3.992 228.534 2 221.477c-1.576-5.586-.148-11.5 3.554-14.722 2.929-2.548 6.82-3 10.994-1.3-1.377-6.2-.03-11.193 3.722-13.738a10.4 10.4 0 0 1 11.619.294c3.605 2.542 5.012 6.87 3.921 11.956 4.653-4.438 8.169-4.2 10.329-3.168 4.424 2.1 7.017 9.285 6.164 17.08-.975 8.92-6.059 15.28-13.6 17.012Zm-19.688-.443h19.638c7.334-1.7 12.281-7.908 13.234-16.623.818-7.491-1.724-14.64-5.915-16.631-3.031-1.442-6.618-.188-10.373 3.622l-.58.588.207-.8c1.354-5.222.053-9.682-3.568-12.236a9.958 9.958 0 0 0-11.115-.29c-3.677 2.495-4.931 7.486-3.441 13.694l.1.435-.409-.18c-4.161-1.827-8.042-1.452-10.929 1.059-3.574 3.11-4.948 8.843-3.417 14.267 1.944 6.88 7.982 11.656 16.567 13.095Z" fill="#371a45"/>
          </g>
          <g opacity=".3">
            <path d="M1.924 220.23c1.3 6.377 6.5 12.673 17.047 14.44h19.683c15.873-3.65 16.338-26.187 9.03-32.585 1.908 9.176-1.453 21.981-13.079 24.654H14.922c-5.943-.997-10.194-3.43-12.998-6.509Z" fill="#371a45"/>
          </g>
          <g opacity=".6">
            <path d="M38.589 208.709c4.727-4.8 8.776-5.152 11.716-3.016-2.247-4.677-6.326-7.041-11.524-3.8a13.661 13.661 0 0 1-.192 6.816Z" fill="#fff"/>
          </g>
          <g opacity=".6">
            <path d="M6.9 229.102c-5.881-10.451 1.007-24.557 13.134-19.228-3.518-14.667 8.508-18.372 15.083-13.5-4.171-9.976-22.5-8.215-18.257 9.454-13.797-6.066-20.817 13.025-9.96 23.274Z" fill="#fff"/>
          </g>
          <g>
            <path d="M38.653 236.26H18.972a1.526 1.526 0 0 1-.262-.022c-9.316-1.559-15.887-6.8-18.028-14.393-1.717-6.085-.121-12.565 3.972-16.126a10.934 10.934 0 0 1 10.157-2.273c-.709-5.718.938-10.322 4.69-12.867a11.8 11.8 0 0 1 13.176.309 11.542 11.542 0 0 1 4.866 9.906c3.946-2.646 7.086-2.233 9.182-1.237 4.933 2.344 7.851 10.11 6.938 18.465-1.042 9.527-6.52 16.329-14.654 18.2a1.639 1.639 0 0 1-.356.038Zm-19.547-3.181h19.362c6.66-1.609 11.153-7.353 12.033-15.4.746-6.825-1.512-13.522-5.141-15.246-3.1-1.475-6.5 1.006-8.811 3.347a1.591 1.591 0 0 1-1.917.266 1.589 1.589 0 0 1-.755-1.782c1.2-4.64.1-8.567-3.033-10.774a8.559 8.559 0 0 0-9.557-.276c-3.226 2.188-4.249 6.536-2.88 12.242a1.592 1.592 0 0 1-.526 1.592 1.592 1.592 0 0 1-1.66.235c-3.7-1.626-6.979-1.336-9.479.839-3.134 2.726-4.367 8.015-3 12.863 1.785 6.318 7.38 10.724 15.364 12.094Z" fill="#371a45"/>
          </g>
        </g>
        <g opacity=".15">
          <path d="M132.617 58.795c8.571 10.135 10.882 23.7 17.513 18.1s5.059-18.369-3.512-28.5-20.893-13.805-27.524-8.2 4.953 8.466 13.523 18.6Z" fill="#fff"/>
        </g>
        <g opacity=".15">
          <path d="M142.458 91.209c-1.177 3.734-.739 7.2 2.32 8.167s6.493-1.281 7.671-5.016-.348-7.543-3.407-8.507-5.407 1.618-6.584 5.356Z" fill="#fff"/>
        </g>
        <g>
          <path d="m33.712 116.581 3.881 4.54a.68.68 0 0 1-.075.958.682.682 0 0 1-.8.061l-5.077-3.145a1.61 1.61 0 0 1-.52-2.216 1.61 1.61 0 0 1 2.216-.52 1.645 1.645 0 0 1 .375.322Z" fill="#371a45"/>
        </g>
        <g>
          <path d="m93.06 120.109-3.867 3.571a.683.683 0 0 1-.964-.038.686.686 0 0 1-.106-.775l2.4-4.682a1.615 1.615 0 0 1 2.174-.7 1.615 1.615 0 0 1 .7 2.175 1.673 1.673 0 0 1-.337.449Z" fill="#371a45"/>
        </g>
        <g opacity=".3">
          <path d="M113.647 157.232c1.087 13.8-.848 23.941-5.283 33.068l2.256 4.664 6.4-8.843s-8.649 6.27.6 0 8.2-19.2 8.2-19.2-5.696-7.005-12.173-9.689Z" fill="#371a45"/>
        </g>
        <g opacity=".3">
          <path d="M16.225 112.164s10.327 5.474 16.7 13.1a6.228 6.228 0 0 0 9.639-.019c2.29-2.843 4.157-6.1 7.827-6.1l-3.534-3.09c-4.639.421-9.373 1.012-14.183 1.733-2.011-1.277-3.9-2.41-5.639-3.355-4.071-2.212-7.3-3.385-9.234-2.978l-.359.1Z" fill="#371a45"/>
        </g>
        <g opacity=".3">
          <path d="M53.054 118.056s7.564 10.6 24.439 4.009a34.373 34.373 0 0 1 9.674 4.626l4.2-6.982s-14.5-5.889-23.83-4.335a8.547 8.547 0 0 1-3.435 2.472Z" fill="#371a45"/>
        </g>
        <g opacity=".3">
          <path d="M100.027 112.788s6.4 4.065-3.979 15.336c6.228-1.176 11.254-2.906 13.062-6.12-.971-7.359-3.187-12.125-9.083-9.216Z" fill="#371a45"/>
        </g>
        <g opacity=".3">
          <path d="m47.679 202.087 3.753 6.27a124.674 124.674 0 0 0 47.378-4.716c8.818 1.9 18.635 4.814 9.562-11.25 4.209-11.649 7.116-23.217 5.428-34.521a32.37 32.37 0 0 0-10.914-2.732c-14.806-1.755-23.956-6.924-27.852-12.2-.023.336-1.156 17.475 21.461 21.465 0 0 4.7 14.555 0 23.96 0 0 7.788 5.71.761 9.351s-49.577 4.373-49.577 4.373Z" fill="#371a45"/>
        </g>
        <g>
          <g>
            <path d="M131.462 234.52c32.307-4.811 24.089-40.211 2.617-31.811 6.411-23.788-28.85-21.426-22.985-1.283-21.555-19.468-31.677 27.434-4.009 33.09" fill="#f4c968"/>
            <path d="m131.494 234.74-.065-.439c10.724-1.6 18.237-6.906 20.612-14.564 1.715-5.53.356-11.4-3.464-14.954-3.662-3.406-8.783-4.069-14.42-1.863l-.409.16.115-.424c2.408-8.935-1.3-13.08-3.727-14.756-4.218-2.915-10.683-2.746-15.037.394-3.992 2.879-5.375 7.644-3.794 13.074l.219.75-.58-.524c-6.294-5.685-10.876-5.137-13.611-3.677-5 2.666-7.767 10.481-6.59 18.581 1.355 9.329 7.48 15.985 16.384 17.8l-.088.435c-9.1-1.86-15.352-8.654-16.735-18.176-1.2-8.279 1.665-16.285 6.82-19.036 2.779-1.484 7.36-2.083 13.563 3.251-1.316-5.323.176-9.975 4.153-12.842 4.5-3.244 11.183-3.416 15.548-.4 2.483 1.716 6.264 5.908 4.012 14.819 5.57-2.05 10.829-1.292 14.479 2.1 3.943 3.669 5.351 9.718 3.586 15.411-2.428 7.836-10.071 13.256-20.971 14.88Z" fill="#371a45"/>
          </g>
          <g opacity=".3">
            <path d="M91.214 219.762a20.139 20.139 0 0 0 15.865 14.758h24.381c24.471-3.644 25.691-24.841 15.507-31.248 1.038 8.513-4.884 18.975-21.414 21.44h-24.374a20.511 20.511 0 0 1-9.965-4.95Z" fill="#371a45"/>
          </g>
          <g opacity=".6">
            <path d="M137.679 207.27c5.76-2.252 10.568-1.356 13.893 1.266a12.188 12.188 0 0 0-13.119-6.975 20.389 20.389 0 0 1-.774 5.709Z" fill="#fff"/>
          </g>
          <g opacity=".6">
            <path d="M96.969 229.434c-8.468-14.627 1.316-38.269 17.719-23.449-4.018-13.823 11.312-19.269 19.264-13.646-4.854-11.98-27.665-7.419-22.857 9.091-18.271-16.495-28.323 14.672-14.126 28.004Z" fill="#fff"/>
          </g>
          <g>
            <path d="M131.461 236.109h-24.382a1.629 1.629 0 0 1-.319-.032c-9.685-1.98-16.344-9.2-17.814-19.32-1.284-8.83 1.884-17.427 7.53-20.441 2.249-1.2 6.585-2.37 12.377 1.373a12.3 12.3 0 0 1 5.182-10.866c4.946-3.567 12.309-3.745 17.127-.416 4.18 2.888 5.948 7.888 5.028 13.966 5.226-1.28 10.081-.209 13.617 3.081 4.326 4.025 5.881 10.627 3.961 16.818-2.59 8.349-10.636 14.115-22.076 15.819a1.541 1.541 0 0 1-.231.018Zm-24.215-3.181h24.1c10.122-1.537 17.186-6.489 19.391-13.6 1.56-5.032.348-10.349-3.09-13.547-3.255-3.029-7.867-3.594-12.988-1.59a1.592 1.592 0 0 1-1.641-.3 1.591 1.591 0 0 1-.474-1.6c1.623-6.021.492-10.735-3.183-13.274a12.175 12.175 0 0 0-13.459.379c-3.545 2.556-4.71 6.669-3.28 11.58a1.59 1.59 0 0 1-.682 1.792 1.592 1.592 0 0 1-1.911-.167c-4.515-4.078-8.682-5.283-12.048-3.486-4.432 2.366-6.96 9.75-5.881 17.178.604 4.184 3.294 14.133 15.146 16.637Z" fill="#371a45"/>
          </g>
        </g>
        <g opacity=".3">
          <path d="M28.422 134.809c10.919 1.741 14.622 6.636 5.524 17.126 0 0-8.733 8.957-23.736 6.27l.3-6.121c20.138-1.269 28.643-8.852 17.912-17.275Z" fill="#371a45"/>
        </g>
      </g>
    </g>
    <path d="M38.215 118.983a59.241 59.241 0 0 0 8.165 2.046V97.764l-8.165.231Z" fill="#72beff"/>
    <path d="M77.215 120.115a60.139 60.139 0 0 0 8.165 2.009V99.281l-8.165.227Z" fill="#72beff"/>
  </g>
</svg>
