<svg xmlns="http://www.w3.org/2000/svg" width="200" height="287.06">
  <g>
    <g>
      <g opacity=".2" transform="translate(322.744 -490.662)">
        <ellipse cx="97.399" cy="13.981" rx="97.399" ry="13.981" transform="translate(-319.175 749.76)" fill="#371a45"/>
      </g>
      <g>
        <path d="m62.497 238.071 10.3 3.762s2.388 11.508 8.468 17.588 9.228 8.685 7.817 11.291c-2.061 3.8-22.582 0-22.582 0s-17.154 7.6-20.194 5.428 0-6.731 0-6.731-10.668 2.235-10.733-1.52c-.083-4.831 15.89-9.716 21.59-16.068 3.981-4.437 5.334-13.75 5.334-13.75Z" fill="#f4c968"/>
      </g>
      <g opacity=".2">
        <path d="M89.083 270.711c-2.058 3.8-22.584 0-22.584 0s-17.151 7.6-20.193 5.426 0-6.728 0-6.728-10.663 2.234-10.729-1.518c-.032-1.87 2.332-3.746 5.576-5.713 1.935 1.876 6.156 3.752 14.084-1.883-.222.333-5.954 9.114 1.928 9.114 8.032 0 9.986-4.56 9.986-4.56s11.862 5 21.542 2.514a3.1 3.1 0 0 1 .39 3.348Z" fill="#371a45"/>
      </g>
      <g opacity=".2">
        <path d="M72.798 241.838s2.17 10.448 7.641 16.7a76.292 76.292 0 0 1-21.62-8.924c2.371-3.876 3.678-10.992 3.678-10.992Z" fill="#371a45"/>
      </g>
      <g>
        <path d="M48.006 279.138a5.151 5.151 0 0 1-3.211-.878 5.864 5.864 0 0 1-2.4-5.651c-2.807.221-5.983.057-7.8-1.391a4.237 4.237 0 0 1-1.628-3.285c-.073-4.236 5.022-7.054 11.471-10.621 4-2.211 8.528-4.717 10.785-7.232 2.822-3.145 4.344-10.007 4.692-12.385a2.606 2.606 0 0 1 1.244-1.862 2.607 2.607 0 0 1 2.228-.21l10.3 3.762a2.608 2.608 0 0 1 1.658 1.918c.022.106 2.315 10.83 7.759 16.275q1.024 1.023 1.935 1.921c5.309 5.252 8.514 8.423 6.331 12.453-1.494 2.758-5.72 3.565-14.584 2.781-4.258-.376-8.3-1.032-9.971-1.319a136.534 136.534 0 0 1-8.417 3.286c-5.204 1.818-8.354 2.438-10.392 2.438Zm-.288-5.22c2.026.339 10-2.168 17.73-5.589a2.6 2.6 0 0 1 1.529-.18c8.726 1.615 17.724 2.127 19.823 1.163-.245-.989-2.989-3.7-5.42-6.109q-.92-.908-1.955-1.94c-5.29-5.291-7.951-14.026-8.835-17.464l-6.126-2.237c-.789 3.383-2.422 8.726-5.359 12-2.844 3.168-7.57 5.783-12.141 8.311-2.768 1.531-7.174 3.968-8.451 5.475a23.917 23.917 0 0 0 7.264-.489 2.6 2.6 0 0 1 2.691 1.092 2.606 2.606 0 0 1 .01 2.9c-.334.512-1.272 2.417-.76 3.068Z" fill="#371a45"/>
      </g>
      <g>
        <path d="M44.967 268.393a16.828 16.828 0 0 1 1.571-2.1 23 23 0 0 1 1.786-1.87 25.505 25.505 0 0 1 4.122-3.17 19.511 19.511 0 0 1 4.778-2.212 10.287 10.287 0 0 1 5.224-.281.245.245 0 0 1 .182.294.246.246 0 0 1-.2.185h-.008a12.131 12.131 0 0 0-4.416 1.649 23.821 23.821 0 0 0-3.749 2.8c-1.174 1.043-2.259 2.192-3.359 3.325l-1.629 1.724c-.534.57-1.1 1.171-1.617 1.691l-.058.058a1.691 1.691 0 0 1-2.39 0 1.691 1.691 0 0 1-.237-2.093Z" fill="#371a45"/>
      </g>
      <g>
        <path d="m145.344 236.117-10.3 5.716s-2.388 11.508-8.468 17.588-9.228 8.685-7.817 11.291c2.061 3.8 22.582 0 22.582 0s17.154 7.6 20.194 5.428 0-6.731 0-6.731 10.668 2.235 10.733-1.52c.083-4.831-15.89-9.716-21.59-16.068-3.98-4.437-5.334-15.704-5.334-15.704Z" fill="#f4c968"/>
      </g>
      <g opacity=".2">
        <path d="M118.763 271.2c2.058 3.8 22.584 0 22.584 0s17.151 7.6 20.193 5.426 0-6.729 0-6.729 10.664 2.234 10.729-1.518c.032-1.869-2.332-3.745-5.576-5.712-1.935 1.876-6.156 3.752-14.084-1.883.222.332 5.954 9.113-1.928 9.113-8.031 0-9.986-4.56-9.986-4.56s-11.862 5-21.541 2.515a3.1 3.1 0 0 0-.391 3.348Z" fill="#371a45"/>
      </g>
      <g opacity=".2">
        <path d="M135.044 242.323s-2.169 10.449-7.641 16.7a76.25 76.25 0 0 0 21.62-8.925c-2.371-3.875-3.678-13.977-3.678-13.977Z" fill="#371a45"/>
      </g>
      <g>
        <path d="M159.844 279.138c-2.038 0-5.188-.621-10.4-2.438a136.796 136.796 0 0 1-8.417-3.286c-1.667.287-5.713.943-9.971 1.319-8.865.782-13.09-.023-14.584-2.781-2.183-4.03 1.022-7.2 6.331-12.453q.909-.9 1.935-1.921c5.466-5.466 7.737-16.168 7.759-16.275a2.6 2.6 0 0 1 1.287-1.749l10.3-5.716a2.606 2.606 0 0 1 2.45-.042 2.607 2.607 0 0 1 1.4 2.01c.351 2.911 1.877 11.147 4.683 14.274 2.257 2.515 6.788 5.021 10.785 7.232 6.449 3.567 11.544 6.385 11.471 10.621a4.234 4.234 0 0 1-1.628 3.285c-1.814 1.448-4.99 1.612-7.8 1.391a5.867 5.867 0 0 1-2.4 5.651 5.151 5.151 0 0 1-3.201.878Zm-18.5-11.033a2.6 2.6 0 0 1 1.055.224c7.727 3.421 15.7 5.929 17.73 5.589.513-.651-.428-2.557-.766-3.075a2.614 2.614 0 0 1 .028-2.9 2.6 2.6 0 0 1 2.681-1.085 23.867 23.867 0 0 0 7.262.489c-1.277-1.507-5.683-3.944-8.451-5.475-4.571-2.528-9.3-5.143-12.141-8.311-2.97-3.31-4.586-9.383-5.369-13.368l-6.053 3.358c-.816 3.246-3.476 12.289-8.9 17.712q-1.035 1.033-1.955 1.94c-2.411 2.385-5.128 5.074-5.41 6.113 2.118.958 11.1.446 19.813-1.167a2.614 2.614 0 0 1 .476-.043Zm18.926 5.782Zm-39.439-4.7" fill="#371a45"/>
      </g>
      <g>
        <path d="M160.436 270.343c-1.077-1-2.2-2.1-3.317-3.121s-2.258-2.06-3.468-2.982a23.426 23.426 0 0 0-3.828-2.451 13.39 13.39 0 0 0-4.374-1.385h-.005a.209.209 0 0 1-.18-.234.209.209 0 0 1 .163-.177 11.043 11.043 0 0 1 4.982.181 19.41 19.41 0 0 1 4.66 1.884 25.477 25.477 0 0 1 4.116 2.811 23.053 23.053 0 0 1 1.819 1.689 16.835 16.835 0 0 1 1.633 1.918 1.448 1.448 0 0 1-.326 2.021 1.45 1.45 0 0 1-1.831-.111Z" fill="#371a45"/>
      </g>
      <g>
        <path d="M195.057 198.879c-7.816 7.165-23.776-7.491-23.776-7.491-.013.091-.019.182-.032.267-.007.065-.013.137-.026.2-.7 4.748-7.478 44.269-43.136 56.248a.111.111 0 0 0-.033.007 69.493 69.493 0 0 1-22.239 3.419c-71.328 0-75.888-59.818-75.888-59.818s-15.633 14.657-22.8 9.771a8.435 8.435 0 0 1-2.708-3.144c-2.013-3.817-2.313-9.836-1.075-17.2a102.089 102.089 0 0 1 6.716-22c8.377-19.972 33.325-46.321 33.866-46.894l.006-.007c-.058-.6-.11-1.2-.162-1.791a210.06 210.06 0 0 1-.8-23.841 144.267 144.267 0 0 1 1.609-18.337.2.2 0 0 1 .006-.039q.244-1.5.508-2.951c.248-1.322.509-2.606.789-3.843C48.8 48.4 53.412 40.069 57.561 34.858c4.912-6.176 9.165-7.954 9.165-7.954s-.462-.462-1.179-1.231c-2.078-2.234-6.305-7.042-7.439-10.462a3.737 3.737 0 0 1-.175-2.312 2.759 2.759 0 0 1 .69-1.088c2.742-2.755 11.36-2.495 11.36-2.495s-.071-.2-.149-.527a5.889 5.889 0 0 1 .078-3.127 3.929 3.929 0 0 1 1.374-1.883c2.606-1.954 15.764-1.674 26.382 2.28a89.792 89.792 0 0 1 25.711 14.963l.019.019c24.734 12.234 33.593 27.861 37.169 42.166v.006a79.866 79.866 0 0 1 1.59 8.312 39.9 39.9 0 0 1 .358 7.094 38.239 38.239 0 0 1-6.547 20.265 36.7 36.7 0 0 1 3.466 6.911c2.592 6.4 4.677 13.934 4.677 13.934 14.22 17.516 24.284 36.784 29.4 52.053 4.51 13.417 5.201 23.749 1.546 27.097Z" fill="#6fa3d2"/>
      </g>
      <g opacity=".6">
        <path d="m191.468 201.484 2.71-3.146c2.013-3.817 2.312-9.836 1.075-17.2a83.658 83.658 0 0 0-6.716-22c-14.324-30.29-33.326-46.321-33.866-46.894.631.884 55.206 72.467 36.797 89.24Z" fill="#fff"/>
      </g>
      <g opacity=".6">
        <path d="m7.128 201.484-2.709-3.146c-2.013-3.817-2.313-9.836-1.075-17.2a102.089 102.089 0 0 1 6.716-22c8.377-19.972 33.325-46.321 33.866-46.894-.632.884-44.237 61.758-36.798 89.24Z" fill="#fff"/>
      </g>
      <g opacity=".6">
        <path d="m123.384 21.027-10.4-1.075a67.714 67.714 0 0 0-16.611-9.979C86.602 5.739 74.831 5.556 69.92 5.667a3.929 3.929 0 0 1 1.374-1.883C73.9 1.83 87.058 2.11 97.676 6.064a89.792 89.792 0 0 1 25.708 14.963Z" fill="#fff"/>
      </g>
      <g opacity=".6">
        <path d="M79.838 11.575a55.166 55.166 0 0 0-21.725 3.641 3.737 3.737 0 0 1-.175-2.312 2.759 2.759 0 0 1 .69-1.088c2.742-2.755 11.36-2.495 11.36-2.495s-.071-.2-.149-.527a71.173 71.173 0 0 1 9.999 2.781Z" fill="#fff"/>
      </g>
      <g opacity=".6">
        <path d="M110.064 18.943s32.862 12.735 47.04 34.181c0 0-14.022-31.398-47.04-34.181Z" fill="#fff"/>
      </g>
      <g opacity=".6">
        <path d="M95.067 19.952c-39.214 7.087-50.112 46.92-50.477 48.282q.244-1.5.508-2.951c.248-1.322.509-2.606.789-3.843 6.39-28.492 12.224-29.3 20.844-34.531 16.774-10.178 28.336-6.957 28.336-6.957Z" fill="#fff"/>
      </g>
      <g>
        <path d="M171.281 191.388c-.013.091-.019.182-.032.267-.007.065-.013.137-.026.2-.7 4.748-7.478 44.269-43.136 56.248a.111.111 0 0 0-.033.007c-1.459.267-51.174 9.145-69.465-29.366-16.684-35.124-3.907-74.72 17.293-99.64a9.778 9.778 0 0 0-.634-13.461c-5.58-5.265-13.017-14.778-10.8-29.881 7.073-48.108 48.069-34.443 48.1 1.212.006 6.075 15.248 4.332 14.873-1.732-2.154-34.834 23.123-36.712 33.143-12.032v.006a79.866 79.866 0 0 1 1.59 8.312 39.9 39.9 0 0 1-3.836 23.413 9.689 9.689 0 0 0-.27 8.006c2.394 5.916 4.149 14.5 4.627 16.966a9.77 9.77 0 0 0 .349 1.313c1.674 4.854 12.16 37.139 8.257 70.162Z" fill="#fff"/>
      </g>
      <g>
        <path d="M105.816 254.138c-16.705 0-31.233-3.248-43.181-9.656a65.572 65.572 0 0 1-23.674-21.405 73.271 73.271 0 0 1-10.917-26.339 64.421 64.421 0 0 1-5.435 3.9c-7.336 4.662-13.04 5.674-16.952 3.007-9.795-6.679-5.391-27.884 2-45.5 7.8-18.589 29.063-41.979 33.574-46.823-5.333-59.759 13.636-79.5 21.385-84.983a67.783 67.783 0 0 1-2.821-3.351c-3.863-4.929-5.2-8.291-4.329-10.9 1.364-4.093 7.483-5.116 11.6-5.329a6.65 6.65 0 0 1 2.662-5.051c3.894-2.92 18.456-1.95 28.854 1.923a92.283 92.283 0 0 1 26.28 15.239c20.991 10.459 33.5 24.761 38.238 43.718l.021.089a82.158 82.158 0 0 1 1.621 8.5 42.105 42.105 0 0 1-5.661 27.77c3.409 5.941 6.662 16.994 7.4 19.574 12.137 15.046 22.511 33.077 28.5 49.554 2.822 7.761 8.651 26.487 1.836 32.735a10.191 10.191 0 0 1-7.123 2.688c-6.027 0-12.638-4.2-16.639-7.247-2.551 11.772-12.279 43.63-44.139 54.334-.048.016-.1.031-.146.044a72.5 72.5 0 0 1-22.954 3.509Zm-75.888-65.029a2.6 2.6 0 0 1 .943.177 2.6 2.6 0 0 1 1.654 2.23 66.822 66.822 0 0 0 10.887 28.841c12.847 18.958 33.842 28.57 62.4 28.57a67.272 67.272 0 0 0 21.41-3.285c.044-.015.089-.028.136-.041 34.093-11.528 40.647-49.792 41.283-54.122l.008-.051v-.038c0-.042.009-.084.016-.126v-.029c.007-.07.015-.141.025-.211a2.608 2.608 0 0 1 1.7-2.089 2.608 2.608 0 0 1 2.641.535c3.687 3.377 15.326 12.007 20.253 7.489 2.4-2.2 2.42-11.624-3.213-27.112-5.856-16.107-16.059-33.773-27.991-48.47a2.6 2.6 0 0 1-.488-.948c-1.145-4.137-4.772-15.8-7.76-20.036a2.607 2.607 0 0 1 .059-3.086 36.789 36.789 0 0 0 5.677-25.415 76.9 76.9 0 0 0-1.536-8.04 1.281 1.281 0 0 1-.021-.089c-4.444-17.675-15.814-30.507-35.776-40.38a2.62 2.62 0 0 1-.578-.39A87.9 87.9 0 0 0 96.751 8.507c-10.137-3.775-22.03-3.786-23.936-2.619-.985.74-.388 2.552-.381 2.57a2.582 2.582 0 0 1-.343 2.4 2.616 2.616 0 0 1-2.194 1.064c-4.614-.135-8.914.857-9.486 1.78-.07 1.613 3.776 6.982 8.15 11.361a2.6 2.6 0 0 1 .713 2.347 2.6 2.6 0 0 1-1.552 1.9c-.048.022-6.927 3.133-12.956 14.673-5.658 10.829-11.683 31.419-8.252 68.013a2.609 2.609 0 0 1-.706 2.039c-.251.264-25.175 26.6-33.359 46.113-9.369 22.343-8.572 35.972-3.866 39.18 3.71 2.531 13.859-4.184 19.549-9.518a2.6 2.6 0 0 1 1.796-.702Zm165.129 9.771Zm-26.392-7.52Zm0-.008v.007ZM60.426 13.652Z" fill="#371a45"/>
      </g>
      <g>
        <path d="M157.816 100.731c-.7.62-1.35 1.151-2.035 1.7s-1.362 1.065-2.053 1.582q-2.076 1.545-4.251 2.947a62.25 62.25 0 0 1-4.474 2.619 45.945 45.945 0 0 1-4.747 2.158 1.4 1.4 0 0 1-1.818-.8 1.4 1.4 0 0 1 .644-1.746l.039-.021a42.491 42.491 0 0 0 4.125-2.512c1.326-.929 2.625-1.9 3.873-2.941s2.467-2.118 3.646-3.237c.588-.561 1.169-1.128 1.735-1.705s1.14-1.178 1.631-1.728l.011-.012a2.61 2.61 0 0 1 3.686-.211 2.61 2.61 0 0 1 .212 3.686 2.93 2.93 0 0 1-.224.221Z" fill="#371a45"/>
      </g>
      <g>
        <path d="m28.422 189.586.389-.291.422-.33.85-.692a63.073 63.073 0 0 0 1.676-1.458c1.1-1 2.174-2.047 3.223-3.116a83.961 83.961 0 0 0 5.906-6.8 88.617 88.617 0 0 0 5.171-7.4c.809-1.271 1.554-2.581 2.306-3.886.713-1.327 1.438-2.648 2.091-4.007l.5-1.012.472-1.027c.309-.687.634-1.368.931-2.06.573-1.394 1.171-2.778 1.65-4.209.531-1.411.949-2.861 1.4-4.3.224-.719.412-1.449.622-2.172s.445-1.439.618-2.172c.391-1.455.831-2.9 1.2-4.362.184-.732.417-1.454.6-2.188s.38-1.467.586-2.2c.437-1.463.776-2.948 1.228-4.427.417-1.484.817-2.979 1.356-4.477l.012-.034a.89.89 0 0 1 1.139-.537.9.9 0 0 1 .58.711c.114.793.2 1.588.259 2.384s.134 1.6.124 2.388c.019.8-.012 1.59-.02 2.388s-.055 1.592-.128 2.384-.148 1.584-.23 2.377c-.1.79-.228 1.576-.364 2.36s-.245 1.577-.438 2.35-.355 1.554-.549 2.327-.422 1.537-.655 2.3-.453 1.529-.73 2.277c-.54 1.5-1.067 3.005-1.672 4.48-.3.738-.569 1.488-.889 2.218l-.927 2.2c-.315.731-.657 1.451-.984 2.177l-.5 1.086-.531 1.07c-.691 1.437-1.457 2.835-2.213 4.238-.794 1.382-1.584 2.766-2.439 4.112a94.037 94.037 0 0 1-5.477 7.841 89.068 89.068 0 0 1-6.282 7.235 81.754 81.754 0 0 1-3.463 3.348c-.6.538-1.207 1.072-1.832 1.594-.316.26-.628.52-.954.776l-.494.385-.543.405a2.6 2.6 0 0 1-3.645-.53 2.6 2.6 0 0 1 .531-3.645Z" fill="#371a45"/>
      </g>
      <g>
        <path d="M135.806 86.61c-.788 1.518-2.482 3.055-5.452 4.462a7.122 7.122 0 0 1-2.756 2.065c-2.091.99-5.524 1.759-10.819.756a19.339 19.339 0 0 1-10.853-5.922c-2.905-3.315-3.641-7.25-.97-9.94l.1-.1c1.108-1.068 5 1.629 10.319-.755s14.76-.977 18.128 1.954c2.179 1.908 3.775 4.672 2.303 7.48Z" fill="#f4c968"/>
      </g>
      <g opacity=".6">
        <path d="M135.806 86.608a6.048 6.048 0 0 1-.4.664c.052-2.045-1.251-3.947-2.879-5.367-3.368-2.932-12.813-4.345-18.129-1.954s-9.21-.313-10.318.755l-.1.1a6.115 6.115 0 0 0-.665.788 5.467 5.467 0 0 1 1.642-3.563l.1-.1c1.108-1.068 5 1.629 10.319-.755s14.76-.977 18.128 1.954c2.178 1.902 3.774 4.67 2.302 7.478Z" fill="#fff"/>
      </g>
      <g opacity=".2">
        <path d="M135.806 86.61c-.788 1.518-2.482 3.055-5.452 4.462a7.122 7.122 0 0 1-2.756 2.065 45.753 45.753 0 0 0-7.126-3.6c-3.231-1.2-9.647-.131-14.546-1.564-2.905-3.315-3.641-7.25-.97-9.94.762 1.518 2.527 3.381 6.585 3.811 7.088.762 11.582-1.753 15.986 3.322 3.035 3.489 6.162 3.072 8.279 1.444Z" fill="#371a45"/>
      </g>
      <g>
        <path d="M121.421 96.046a26.668 26.668 0 0 1-4.954-.5c-6.962-1.32-12.913-5.879-14.472-11.087a7.358 7.358 0 0 1 1.89-7.738c1.034-1 2.407-.767 3.859-.519a11.085 11.085 0 0 0 6.936-.567c6.067-2.723 16.2-1.027 19.926 2.221 2.538 2.21 3.744 4.827 3.394 7.367-.388 2.818-2.6 5.24-6.586 7.2-.923 1.036-3.851 3.623-9.993 3.623Zm-15.4-16.687a4.045 4.045 0 0 0-.8 4.138c1.024 3.421 5.431 7.523 11.873 8.743 8.934 1.694 11.767-1.984 11.884-2.142a1.57 1.57 0 0 1 .652-.547c3.062-1.453 4.8-3.107 5.033-4.783.266-1.928-1.5-3.7-2.269-4.368-2.858-2.49-11.621-3.8-16.335-1.688a14.389 14.389 0 0 1-8.88.814c-.381-.065-.874-.149-1.16-.167Zm-.963-1.424Z" fill="#371a45"/>
      </g>
      <g>
        <path d="M130.352 92.516h-.037c-2.529-.064-4.319-1.656-6.05-3.2a15.829 15.829 0 0 0-2.851-2.188c-1.081-.585-3.4-.507-5.644-.432-2.945.1-6.283.209-8.792-1-4.16-2.013-4.071-6.791-4.065-6.994a1.451 1.451 0 0 1 1.485-1.4 1.443 1.443 0 0 1 1.4 1.478c0 .147-.016 3.131 2.436 4.318 1.868.9 4.7.808 7.439.717s5.344-.178 7.113.778a18.222 18.222 0 0 1 3.4 2.571c1.466 1.3 2.731 2.43 4.2 2.467a1.444 1.444 0 0 1 1.407 1.48 1.444 1.444 0 0 1-1.441 1.405Z" fill="#371a45"/>
      </g>
      <g>
        <path d="M65.266 24.754c.2-.12.352-.206.514-.3s.323-.18.482-.263c.318-.171.636-.341.954-.5.634-.325 1.275-.618 1.914-.914s1.289-.56 1.935-.831c.654-.251 1.3-.515 1.957-.754a56.347 56.347 0 0 1 8.024-2.29c1.351-.316 2.733-.49 4.1-.714l2.067-.211c.344-.031.686-.079 1.031-.1l1.037-.044a48.654 48.654 0 0 1 8.243.3.842.842 0 0 1 .752.925.843.843 0 0 1-.828.756h-.052a46.452 46.452 0 0 0-7.855.574l-.97.147c-.322.05-.641.132-.962.2l-1.915.409c-1.261.355-2.527.654-3.759 1.089a52.412 52.412 0 0 0-7.209 2.94c-.58.287-1.149.595-1.722.89-.564.313-1.127.627-1.681.951s-1.1.659-1.627 1.009c-.27.17-.527.347-.784.523-.131.088-.258.176-.377.263s-.252.18-.334.247a2.614 2.614 0 0 1-3.675-.4 2.613 2.613 0 0 1 .4-3.674 2.633 2.633 0 0 1 .255-.182Z" fill="#371a45"/>
      </g>
      <g>
        <path d="M122.784 23.577a95.406 95.406 0 0 0-7.562-2.3 56.389 56.389 0 0 0-7.776-1.5h-.015a.923.923 0 0 1-.817-1.02.923.923 0 0 1 .828-.818 58.924 58.924 0 0 1 8.294-.149q2.067.1 4.13.274c1.384.123 2.731.258 4.157.453a2.62 2.62 0 0 1 2.242 2.95 2.62 2.62 0 0 1-2.95 2.241 2.716 2.716 0 0 1-.531-.131Z" fill="#371a45"/>
      </g>
      <g>
        <path d="M70.177 6.722c.577.129 1.029.265 1.526.411s.963.3 1.437.462a41.59 41.59 0 0 1 5.477 2.321c.875.455 1.726.95 2.553 1.465a.69.69 0 0 1 .22.951.691.691 0 0 1-.734.31l-.027-.006c-.911-.2-1.813-.388-2.73-.506s-1.826-.22-2.74-.273-1.826-.082-2.732-.073q-.68.007-1.351.038c-.434.022-.917.048-1.276.1a2.662 2.662 0 0 1-3.006-2.267 2.663 2.663 0 0 1 2.267-3.006 2.668 2.668 0 0 1 .937.035Z" fill="#371a45"/>
      </g>
      <g>
        <path d="M168.632 191.574c.278-3.517.529-7.144.746-10.725.062-.9.09-1.8.142-2.7s.094-1.8.134-2.7.081-1.8.1-2.7.077-1.8.094-2.7l.053-2.7.017-2.7.013-1.35-.02-1.348c-.018-.9-.019-1.8-.05-2.7a74.473 74.473 0 0 1 .185-10.936v-.005a.226.226 0 0 1 .249-.2.227.227 0 0 1 .177.124 26.3 26.3 0 0 1 1.955 5.267 41.147 41.147 0 0 1 1.044 5.457c.456 3.665.819 7.347.977 11.033.086 1.842.156 3.687.157 5.53.031 1.844.011 3.686-.039 5.529s-.13 3.683-.247 5.524-.279 3.663-.506 5.547a2.606 2.606 0 0 1-2.9 2.275 2.607 2.607 0 0 1-2.286-2.787Z" fill="#371a45"/>
      </g>
      <g opacity=".3">
        <path d="M195.057 198.879c-7.816 7.165-23.776-7.491-23.776-7.491-.013.091-.019.182-.032.267-.007.065-.013.137-.026.2-.7 4.748-7.478 44.269-43.136 56.248a.111.111 0 0 0-.033.007 69.493 69.493 0 0 1-22.239 3.419c-71.328 0-75.888-59.818-75.888-59.818s-15.633 14.657-22.8 9.771c-4.332-2.951-5.452-10.429-3.784-20.343 1.355 2.156 4.872 5.7 12.689 3.518 10.852-3.042 35.28-25.1 46.034-53.33 0 0 6.078 34.869-15.855 60.384 0 0 15.693 49.832 71.14 49.832s53.858-86.981 53.858-86.981 9.406 34.433 19.828 34.869c4.065.17 4.032-7.829 2.482-17.646 4.502 13.414 5.193 23.746 1.538 27.094Z" fill="#371a45"/>
      </g>
      <g opacity=".2">
        <path d="M43.77 100.576c-.43-4.931-.684-9.582-.8-13.966a138.009 138.009 0 0 1 2.123-21.327c.248-1.322.509-2.606.789-3.843 1.407 9.588 4.266 22.838 11.073 30.883 20.194 23.841 32.785 17.477 33.763 21.763 1.457 6.352-37.015 5.439-46.948-13.51Z" fill="#371a45"/>
      </g>
      <g opacity=".2">
        <path d="M155.973 98.889a36.7 36.7 0 0 1 3.466 6.911c-11.224 9.491-24.636 10.514-24.636 7.094 0-2.931 7.817-7.817 16.611-14.005 5.061-3.563 8.826-12.937 11.106-20.265a38.239 38.239 0 0 1-6.547 20.265Z" fill="#371a45"/>
      </g>
      <g opacity=".2">
        <path d="M88.436 19.262c-7.556.859-21.3 3.993-29.632 15.353-9.673 13.191-3.817 4.156-1.238.248 4.912-6.176 9.165-7.954 9.165-7.954s-.462-.462-1.179-1.231c-2.618-2.808-8.637-9.7-7.614-12.774a2.759 2.759 0 0 1 .69-1.088c2.293 3.205 9.185 8.247 29.808 7.446Z" fill="#371a45"/>
      </g>
      <g>
        <g>
          <g>
            <g>
              <path d="M95.221 58.724c-5.159-1.029-10.367 3.74-11.632 10.65s1.89 13.348 7.049 14.377 10.367-3.739 11.632-10.65-1.89-13.348-7.049-14.377Z" fill="#371a45"/>
            </g>
          </g>
        </g>
        <g>
          <g>
            <g>
              <path d="M94.628 61.613c-1.706.468-2.6 2.772-2.005 5.145s2.466 3.919 4.171 3.45 2.6-2.772 2.006-5.145-2.466-3.919-4.172-3.45Z" fill="#fff"/>
            </g>
          </g>
        </g>
        <g>
          <g>
            <g>
              <path d="M87.887 76.053a2.184 2.184 0 0 0-.441 2.906c.583 1.149 1.724 1.711 2.55 1.255a2.183 2.183 0 0 0 .441-2.9c-.583-1.154-1.724-1.716-2.55-1.261Z" fill="#b199c5"/>
            </g>
          </g>
        </g>
      </g>
      <g>
        <g>
          <g>
            <g transform="translate(322.744 -490.662)">
              <ellipse cx="7.887" cy="10.538" rx="7.887" ry="10.538" transform="rotate(-5.026 6195.857 2415.548)" fill="#371a45"/>
            </g>
          </g>
        </g>
        <g>
          <g>
            <g>
              <path d="M142.906 63.184c1.381.49 1.983 2.448 1.345 4.372s-2.275 3.087-3.656 2.6-1.982-2.448-1.344-4.372 2.275-3.09 3.655-2.6Z" fill="#fff"/>
            </g>
          </g>
        </g>
        <g>
          <g>
            <g>
              <path d="M147.599 75.521a1.809 1.809 0 0 1 .187 2.427c-.55.914-1.527 1.309-2.182.883a1.809 1.809 0 0 1-.187-2.427c.55-.914 1.527-1.309 2.182-.883Z" fill="#b199c5"/>
            </g>
          </g>
        </g>
      </g>
    </g>
  </g>
</svg>
