<svg xmlns="http://www.w3.org/2000/svg" width="202.993" height="202.993">
  <g>
    <path d="m140.426 151.764-2.483-19.863a7.846 7.846 0 0 0-5.3-6.47l-9.574-3.191a3.923 3.923 0 0 0-3.771.7l-2.82-.94a3.923 3.923 0 0 1-2.682-3.722v-6.321l8.449-3.521a11.767 11.767 0 0 0 7.242-10.863v-1.959a5.883 5.883 0 0 0 4.46-9.72c1.665-6.06 6.345-25.231 1.424-33.432l1.958-7.848s-20.6.49-31.383 3.923l3.923-3.923s-27.578 0-33.343 9.806-9.807-.082-9.807 11.769c0 4.337 2.419 15.167 3.458 19.618a5.883 5.883 0 0 0 4.386 9.807v1.961a11.769 11.769 0 0 0 7.242 10.863l8.449 3.521v6.326a3.923 3.923 0 0 1-2.682 3.722l-2.82.94a3.923 3.923 0 0 0-3.771-.7l-9.574 3.191a7.846 7.846 0 0 0-5.3 6.47l-2.486 19.856a5.884 5.884 0 0 0 5.839 6.614h65.131a5.884 5.884 0 0 0 5.835-6.614Z" fill="#ffd7a3"/>
    <path d="M113.792 111.957H90.255v6.326a3.888 3.888 0 0 1-1.966 3.349c16.45 2.879 25.503-9.675 25.503-9.675Z" fill="#fdc88e"/>
    <path d="M70.64 87.766s-3.923-16.052-3.923-21.576c0-11.85 9.807-11.769 9.807-11.769 5.762-9.807 33.345-9.807 33.345-9.807l-3.923 3.923c10.788-3.433 31.383-3.923 31.383-3.923l-1.961 7.846c5.884 9.807-1.961 35.306-1.961 35.306Z" fill="#734a3e"/>
    <path d="M109.869 44.614s-27.583 0-33.343 9.806-9.809-.08-9.809 11.77c0 5.523 3.923 21.576 3.923 21.576s40.777-18.225 66.689-43.152c0 0-20.6.49-31.383 3.923Z" fill="#623f33"/>
    <path d="M129.478 83.843V79.92a9.807 9.807 0 0 0-9.8-9.807H84.37a9.807 9.807 0 0 0-9.807 9.807v3.923a5.885 5.885 0 1 0 0 11.769v1.961a11.769 11.769 0 0 0 7.242 10.863l12.673 5.277a19.613 19.613 0 0 0 7.544 1.509 19.616 19.616 0 0 0 7.544-1.509l12.674-5.281a11.768 11.768 0 0 0 7.238-10.859v-1.96a5.885 5.885 0 1 0 0-11.769Z" fill="#ffe1b2"/>
    <path d="M102.023 105.473a16.337 16.337 0 0 1-8.949-2.355 1.961 1.961 0 0 1 2.207-3.243 14.407 14.407 0 0 0 13.485 0 1.961 1.961 0 1 1 2.207 3.243 16.336 16.336 0 0 1-8.95 2.355Z" fill="#e4b07b"/>
    <path d="m140.426 151.765-2.483-19.863a7.846 7.846 0 0 0-5.3-6.47l-9.574-3.191a3.859 3.859 0 0 0-4.485 1.522 19.592 19.592 0 0 1-33.114 0 3.859 3.859 0 0 0-4.485-1.522l-9.574 3.191a7.845 7.845 0 0 0-5.3 6.47l-2.49 19.863a5.884 5.884 0 0 0 5.839 6.614h65.131a5.884 5.884 0 0 0 5.835-6.614Z" fill="#6fa3d2"/>
    <path d="M67.739 128.016a7.829 7.829 0 0 0-1.635 3.884l-2.483 19.863a5.884 5.884 0 0 0 5.839 6.614h10.987v-12.766a7.847 7.847 0 0 0-1.916-5.137Z" fill="#a6d2fa"/>
    <path d="M136.307 128.016a7.829 7.829 0 0 1 1.635 3.884l2.483 19.863a5.884 5.884 0 0 1-5.839 6.614h-10.987v-12.766a7.847 7.847 0 0 1 1.916-5.137Z" fill="#a6d2fa"/>
    <path d="M84.859 104.369a9.2 9.2 0 0 1-2.451-6.283V75.859c6.243-.468 25.926-2.17 37.268-5.747H84.37a9.221 9.221 0 0 0-1.961.216v-.016a9.81 9.81 0 0 0-7.846 9.61v3.923a5.885 5.885 0 1 0 0 11.769v1.961a11.769 11.769 0 0 0 7.242 10.863l12.673 5.274a19.645 19.645 0 0 0 1.895.674 81.878 81.878 0 0 1-11.514-10.017Z" fill="#ffd7a3"/>
    <g fill="none">
      <path d="M101.5 0A101.5 101.5 0 1 1 0 101.5 101.5 101.5 0 0 1 101.5 0Z"/>
      <path d="M101.496 2c-6.752 0-13.499.68-20.054 2.021A98.978 98.978 0 0 0 62.77 9.818a99.501 99.501 0 0 0-16.9 9.173 100.22 100.22 0 0 0-14.727 12.15 100.22 100.22 0 0 0-12.15 14.727 99.501 99.501 0 0 0-9.174 16.9 98.98 98.98 0 0 0-5.797 18.674A100.241 100.241 0 0 0 2 101.496c0 6.752.68 13.5 2.021 20.055a98.98 98.98 0 0 0 5.797 18.673 99.502 99.502 0 0 0 9.173 16.9 100.22 100.22 0 0 0 12.15 14.727 100.22 100.22 0 0 0 14.727 12.15 99.501 99.501 0 0 0 16.9 9.174 98.978 98.978 0 0 0 18.674 5.796 100.241 100.241 0 0 0 20.054 2.022c6.752 0 13.5-.68 20.055-2.022a98.978 98.978 0 0 0 18.673-5.796 99.501 99.501 0 0 0 16.9-9.173 100.22 100.22 0 0 0 14.727-12.151 100.22 100.22 0 0 0 12.15-14.727 99.502 99.502 0 0 0 9.174-16.9 98.98 98.98 0 0 0 5.796-18.673 100.241 100.241 0 0 0 2.022-20.055c0-6.752-.68-13.499-2.022-20.054a98.98 98.98 0 0 0-5.796-18.673 99.501 99.501 0 0 0-9.173-16.9 100.22 100.22 0 0 0-12.15-14.727 100.22 100.22 0 0 0-14.728-12.15 99.501 99.501 0 0 0-16.9-9.174 98.978 98.978 0 0 0-18.673-5.797A100.241 100.241 0 0 0 101.496 2m0-2c56.055 0 101.497 45.441 101.497 101.496 0 56.055-45.442 101.497-101.497 101.497C45.442 202.993 0 157.55 0 101.496S45.442 0 101.496 0Z" fill="#6fa3d2"/>
    </g>
  </g>
</svg>
