<svg xmlns="http://www.w3.org/2000/svg" width="202.993" height="202.993">
  <g fill="none" stroke="#6fa3d2" stroke-width="2">
    <circle cx="101.496" cy="101.496" stroke="none" r="101.496"/>
    <circle cx="101.496" cy="101.496" r="100.496"/>
  </g>
  <path d="M101.413 36.806h-.018c-21.365 0-42.282 16.136-42.282 37.837 0 28.749 15.58 42.289 15.58 42.289a53.27 53.27 0 0 0-4.18 12.518h11.674a68.838 68.838 0 0 1-.82-12.519s60.094-10.943 60.094-42.289c.003-21.362-18.688-37.836-40.048-37.836Z" fill="#ff9656"/>
  <path d="M120.068 41.235a41.585 41.585 0 0 0-18.655-4.429h-.018c-21.365 0-42.282 16.136-42.282 37.837 0 28.749 15.58 42.289 15.58 42.289a53.229 53.229 0 0 0-4.18 12.518H82.19a68.806 68.806 0 0 1-.82-12.519 145.717 145.717 0 0 0 14.95-3.808L65.79 83.006s44.211-15.517 54.278-41.771Z" fill="#ef8c56"/>
  <path d="m143.523 151.985-.425-1.454a1.468 1.468 0 0 0-1.593-1.044l-1.484-11.129a11.364 11.364 0 0 0-6.483-8.7l-4.372-2.186c-.708-.354-1.249.1-1.769.68l-9.594-3.53a4.451 4.451 0 0 1-3.044-4.223v-7.178l9.588-3.995a13.355 13.355 0 0 0 8.218-12.327v-2.226a6.677 6.677 0 0 0 0-13.354v-4.451c0-6.146-4.983-15.58-11.129-15.58H81.37c-6.146 0-11.129 9.434-11.129 15.58v4.451a6.677 6.677 0 0 0 0 13.354v2.226a13.354 13.354 0 0 0 8.218 12.327l9.588 4v7.178a4.452 4.452 0 0 1-3.044 4.223l-9.594 3.53c-.52-.578-1.061-1.034-1.769-.68l-4.372 2.186a11.364 11.364 0 0 0-6.484 8.7l-1.483 11.127a1.468 1.468 0 0 0-1.593 1.044l-.425 1.454a1.468 1.468 0 0 0 1 1.821l3.283.958v6.683a4.452 4.452 0 0 0 4.451 4.451h66.771a4.452 4.452 0 0 0 4.451-4.451v-6.683l3.283-.958a1.468 1.468 0 0 0 1.001-1.824Z" fill="#ffd7a3"/>
  <path d="m114.756 112.99-26.709.046v7.365a4.45 4.45 0 0 1-2.157 3.812c18.62 3.217 28.866-11.222 28.866-11.223Z" fill="#fdc88e"/>
  <path d="M140.018 138.356a11.364 11.364 0 0 0-6.484-8.7l-4.372-2.186c-.808-.4-1.4.246-1.988.931a79.151 79.151 0 0 1-25.772 19.688 79.151 79.151 0 0 1-25.773-19.685c-.59-.684-1.18-1.335-1.988-.931l-4.372 2.186a11.364 11.364 0 0 0-6.483 8.7l-1.812 13.587c5.88 2.025 15.945 5.05 15.945 5.05v8.9h48.966v-8.9s10.065-3.026 15.945-5.05Z" fill="#ee97c0"/>
  <path d="M132.564 81.32v-4.451c0-6.146-4.983-15.58-11.129-15.58H81.37c-6.146 0-11.129 9.434-11.129 15.58v4.45a6.677 6.677 0 0 0 0 13.354V96.9a13.354 13.354 0 0 0 8.218 12.327l14.381 5.992a22.255 22.255 0 0 0 8.561 1.712 22.259 22.259 0 0 0 8.56-1.712l14.382-5.992a13.355 13.355 0 0 0 8.218-12.327v-2.226a6.677 6.677 0 1 0 0-13.354Z" fill="#ffe1b2"/>
  <path d="M101.402 105.865a18.538 18.538 0 0 1-10.155-2.672 2.225 2.225 0 1 1 2.5-3.68 16.348 16.348 0 0 0 15.3 0 2.225 2.225 0 1 1 2.5 3.68 18.538 18.538 0 0 1-10.145 2.672Z" fill="#e4b07b"/>
  <path d="M70.241 81.32a6.677 6.677 0 0 0 0 13.354V96.9a13.354 13.354 0 0 0 8.218 12.327l14.381 5.992a22.3 22.3 0 0 0 2.15.765 92.892 92.892 0 0 1-13.065-11.369 10.433 10.433 0 0 1-2.781-7.129V85.772s37.1-4.637 46.74-20.031a11.015 11.015 0 0 0 1.19-2.457C105.37 75.754 70.241 81.32 70.241 81.32Z" fill="#ffd7a3"/>
  <path d="M76.864 156.314a13.329 13.329 0 0 0-2.616-7.332L63.799 135.05a10.846 10.846 0 0 0-1.014 3.307l-1.764 13.232Z" fill="#ffa4d4"/>
  <path d="M59.283 151.984a1.468 1.468 0 0 0 1 1.821l16.637 4.853v-1.664a13.3 13.3 0 0 0-.406-3.092l-14.989-4.37a1.468 1.468 0 0 0-1.821 1Z" fill="#ee97c0"/>
  <path d="M125.942 156.314a13.329 13.329 0 0 1 2.616-7.332l10.449-13.932a10.847 10.847 0 0 1 1.014 3.307l1.764 13.232Z" fill="#ffa4d4"/>
  <path d="M143.519 151.984a1.468 1.468 0 0 1-1 1.821l-16.635 4.853v-1.664a13.3 13.3 0 0 1 .406-3.092l14.983-4.371a1.468 1.468 0 0 1 1.821 1Z" fill="#ee97c0"/>
  <path d="M81.367 119.157H74.69a2.226 2.226 0 0 1-2.226-2.226 2.226 2.226 0 0 1 2.229-2.225h6.674a2.226 2.226 0 0 1 2.226 2.226 2.226 2.226 0 0 1-2.226 2.225Z" fill="#ffa4d4"/>
  <path d="M65.79 60.457v22.552c34.746-4.138 51.2-11.46 58.7-16.447.553 8.155.405 20.393-3.4 32.569 0 0 13.322-18.58 11.257-38.673Z" fill="#ff9656"/>
  <path d="M65.79 60.457v22.552s23.151-8.125 39.766-22.552Z" fill="#ef8c56"/>
</svg>
